<svg width="67" height="19" viewBox="0 0 67 19" fill="none" xmlns="http://www.w3.org/2000/svg">
    <path
        d="M8.03906 8.61328H12.4922V11.2148H8.03906V16.2891H5.27344V11.2148H0.796875V8.61328H5.27344V3.86719H8.03906V8.61328ZM17.9531 8.16797H19.6875C20.5625 8.16016 21.2539 7.93359 21.7617 7.48828C22.2773 7.04297 22.5352 6.39844 22.5352 5.55469C22.5352 4.74219 22.3203 4.11328 21.8906 3.66797C21.4688 3.21484 20.8203 2.98828 19.9453 2.98828C19.1797 2.98828 18.5508 3.21094 18.0586 3.65625C17.5664 4.09375 17.3203 4.66797 17.3203 5.37891H14.4727C14.4727 4.50391 14.7031 3.70703 15.1641 2.98828C15.6328 2.26953 16.2812 1.71094 17.1094 1.3125C17.9453 0.90625 18.8789 0.703125 19.9102 0.703125C21.6133 0.703125 22.9492 1.13281 23.918 1.99219C24.8945 2.84375 25.3828 4.03125 25.3828 5.55469C25.3828 6.32031 25.1367 7.04297 24.6445 7.72266C24.1602 8.39453 23.5312 8.90234 22.7578 9.24609C23.6953 9.56641 24.4062 10.0703 24.8906 10.7578C25.3828 11.4453 25.6289 12.2656 25.6289 13.2188C25.6289 14.75 25.1016 15.9688 24.0469 16.875C23 17.7812 21.6211 18.2344 19.9102 18.2344C18.2695 18.2344 16.9258 17.7969 15.8789 16.9219C14.832 16.0469 14.3086 14.8828 14.3086 13.4297H17.1562C17.1562 14.1797 17.4062 14.7891 17.9062 15.2578C18.4141 15.7266 19.0938 15.9609 19.9453 15.9609C20.8281 15.9609 21.5234 15.7266 22.0312 15.2578C22.5391 14.7891 22.793 14.1094 22.793 13.2188C22.793 12.3203 22.5273 11.6289 21.9961 11.1445C21.4648 10.6602 20.6758 10.418 19.6289 10.418H17.9531V8.16797ZM39.0469 5.4375C39.0469 6.27344 38.832 7.01953 38.4023 7.67578C37.9727 8.32422 37.3867 8.83594 36.6445 9.21094C37.5352 9.625 38.2188 10.1914 38.6953 10.9102C39.1797 11.6289 39.4219 12.4414 39.4219 13.3477C39.4219 14.8477 38.9141 16.0391 37.8984 16.9219C36.8828 17.7969 35.5312 18.2344 33.8438 18.2344C32.1484 18.2344 30.7891 17.793 29.7656 16.9102C28.75 16.0273 28.2422 14.8398 28.2422 13.3477C28.2422 12.4336 28.4844 11.6133 28.9688 10.8867C29.4531 10.1602 30.1328 9.60156 31.0078 9.21094C30.2734 8.83594 29.6914 8.32422 29.2617 7.67578C28.8398 7.01953 28.6289 6.27344 28.6289 5.4375C28.6289 3.98438 29.0977 2.83203 30.0352 1.98047C30.9727 1.12891 32.2383 0.703125 33.832 0.703125C35.4336 0.703125 36.7031 1.12891 37.6406 1.98047C38.5781 2.83203 39.0469 3.98438 39.0469 5.4375ZM36.5742 13.207C36.5742 12.3633 36.3203 11.6836 35.8125 11.168C35.3125 10.6445 34.6484 10.3828 33.8203 10.3828C32.9922 10.3828 32.3281 10.6406 31.8281 11.1562C31.3359 11.6719 31.0898 12.3555 31.0898 13.207C31.0898 14.043 31.332 14.7109 31.8164 15.2109C32.3086 15.7109 32.9844 15.9609 33.8438 15.9609C34.7031 15.9609 35.3711 15.7188 35.8477 15.2344C36.332 14.75 36.5742 14.0742 36.5742 13.207ZM36.2109 5.54297C36.2109 4.80078 35.9961 4.19141 35.5664 3.71484C35.1367 3.23047 34.5586 2.98828 33.832 2.98828C33.1055 2.98828 32.5312 3.21875 32.1094 3.67969C31.6875 4.13281 31.4766 4.75391 31.4766 5.54297C31.4766 6.32422 31.6875 6.94531 32.1094 7.40625C32.5391 7.86719 33.1172 8.09766 33.8438 8.09766C34.5703 8.09766 35.1445 7.86719 35.5664 7.40625C35.9961 6.94531 36.2109 6.32422 36.2109 5.54297ZM53.0625 10.8164C53.0625 13.2695 52.6016 15.1211 51.6797 16.3711C50.7656 17.6133 49.3711 18.2344 47.4961 18.2344C45.6523 18.2344 44.2617 17.6289 43.3242 16.418C42.3945 15.1992 41.918 13.3984 41.8945 11.0156V8.0625C41.8945 5.60938 42.3516 3.76953 43.2656 2.54297C44.1875 1.31641 45.5898 0.703125 47.4727 0.703125C49.3398 0.703125 50.7305 1.30078 51.6445 2.49609C52.5664 3.69141 53.0391 5.48047 53.0625 7.86328V10.8164ZM50.2148 7.62891C50.2148 6.02734 49.9961 4.85547 49.5586 4.11328C49.1211 3.36328 48.4258 2.98828 47.4727 2.98828C46.543 2.98828 45.8594 3.34375 45.4219 4.05469C44.9844 4.75781 44.7539 5.85938 44.7305 7.35938V11.2266C44.7305 12.8203 44.9531 14.0078 45.3984 14.7891C45.8438 15.5703 46.543 15.9609 47.4961 15.9609C48.4102 15.9609 49.0859 15.6016 49.5234 14.8828C49.9609 14.1562 50.1914 13.0234 50.2148 11.4844V7.62891Z"
        fill="black" />

</svg>
