<svg width="20" height="20" viewBox="0 0 20 20" fill="none" xmlns="http://www.w3.org/2000/svg">
<path fill-rule="evenodd" clip-rule="evenodd" d="M10 20C15.5228 20 20 15.5228 20 10C20 4.47715 15.5228 0 10 0C4.47715 0 0 4.47715 0 10C0 15.5228 4.47715 20 10 20ZM9.58001 14.7298C9.39657 15.0126 9.12188 15.1687 8.78409 15.1687C8.61964 15.1687 8.46896 15.1316 8.33015 15.0525C8.19469 14.9752 8.0827 14.8648 7.98311 14.7355L7.98233 14.7345L4.97231 10.901C4.83664 10.7294 4.75 10.5252 4.75 10.3221C4.75 10.1017 4.82924 9.89914 4.97907 9.75153C5.12875 9.60407 5.33341 9.52654 5.55717 9.52654C5.69624 9.52654 5.82905 9.55418 5.95407 9.62514C6.07515 9.69386 6.17221 9.79377 6.25729 9.91222L8.74072 13.163L13.761 5.16311C13.8408 5.03668 13.9335 4.92517 14.06 4.85022C14.1895 4.77345 14.3283 4.75 14.4718 4.75C14.6871 4.75 14.8863 4.82154 15.0324 4.96759C15.1784 5.11364 15.25 5.31288 15.25 5.52815C15.25 5.72232 15.1877 5.89556 15.0673 6.08948L15.0659 6.09166L9.58001 14.7298Z" fill="#EF7F1A"/>
</svg>
