<svg width="28" height="28" viewBox="0 0 28 28" fill="none" xmlns="http://www.w3.org/2000/svg">
<path d="M12.6875 8.75H10.9375V9.625H12.6875V8.75Z" fill="#FFCF00"/>
<path d="M17.0625 8.75H15.3125V9.625H17.0625V8.75Z" fill="#FFCF00"/>
<path d="M16.1875 13.125C16.5356 13.125 16.8694 12.9867 17.1156 12.7406C17.3617 12.4944 17.5 12.1606 17.5 11.8125V11.375C17.8481 11.375 18.1819 11.2367 18.4281 10.9906C18.6742 10.7444 18.8125 10.4106 18.8125 10.0625V8.3125C18.8115 8.03427 18.7219 7.76359 18.5567 7.53971C18.3915 7.31583 18.1593 7.15039 17.8938 7.06737L17.7769 6.125H18.8125V5.25H17.6676L17.5923 4.64975C17.5526 4.3323 17.3984 4.04026 17.1586 3.82854C16.9187 3.61682 16.6098 3.49998 16.2899 3.5H11.7101C11.3902 3.49998 11.0813 3.61682 10.8414 3.82854C10.6016 4.04026 10.4474 4.3323 10.4077 4.64975L10.3324 5.25H9.1875V6.125H10.2231L10.1063 7.06737C9.84069 7.15039 9.60848 7.31583 9.44328 7.53971C9.27808 7.76359 9.18849 8.03427 9.1875 8.3125V10.0625C9.1875 10.4106 9.32578 10.7444 9.57192 10.9906C9.81806 11.2367 10.1519 11.375 10.5 11.375V11.8125C10.5 12.1606 10.6383 12.4944 10.8844 12.7406C11.1306 12.9867 11.4644 13.125 11.8125 13.125C12.1606 13.125 12.4944 12.9867 12.7406 12.7406C12.9867 12.4944 13.125 12.1606 13.125 11.8125V11.375H14.875V11.8125C14.875 12.1606 15.0133 12.4944 15.2594 12.7406C15.5056 12.9867 15.8394 13.125 16.1875 13.125ZM16.625 11.8125C16.625 11.9285 16.5789 12.0398 16.4969 12.1219C16.4148 12.2039 16.3035 12.25 16.1875 12.25C16.0715 12.25 15.9602 12.2039 15.8781 12.1219C15.7961 12.0398 15.75 11.9285 15.75 11.8125V11.375H16.625V11.8125ZM11.7101 4.375H16.2899C16.3966 4.37492 16.4996 4.41384 16.5796 4.48442C16.6596 4.555 16.7111 4.65238 16.7243 4.75825L17.0043 7H14.3754C14.2799 6.62481 14.0621 6.29213 13.7564 6.05452C13.4508 5.8169 13.0747 5.68791 12.6875 5.68791C12.3003 5.68791 11.9242 5.8169 11.6186 6.05452C11.3129 6.29213 11.0951 6.62481 10.9996 7H10.9957L11.2757 4.75825C11.2889 4.65238 11.3404 4.555 11.4204 4.48442C11.5004 4.41384 11.6034 4.37492 11.7101 4.375ZM13.4409 7H11.9341C12.01 6.86715 12.1196 6.75672 12.2519 6.67992C12.3843 6.60311 12.5345 6.56266 12.6875 6.56266C12.8405 6.56266 12.9907 6.60311 13.1231 6.67992C13.2554 6.75672 13.365 6.86715 13.4409 7ZM10.0625 10.0625V8.3125C10.0625 8.19647 10.1086 8.08519 10.1906 8.00314C10.2727 7.92109 10.384 7.875 10.5 7.875H17.5C17.616 7.875 17.7273 7.92109 17.8094 8.00314C17.8914 8.08519 17.9375 8.19647 17.9375 8.3125V10.0625C17.9375 10.1785 17.8914 10.2898 17.8094 10.3719C17.7273 10.4539 17.616 10.5 17.5 10.5H10.5C10.384 10.5 10.2727 10.4539 10.1906 10.3719C10.1086 10.2898 10.0625 10.1785 10.0625 10.0625ZM12.25 11.8125C12.25 11.9285 12.2039 12.0398 12.1219 12.1219C12.0398 12.2039 11.9285 12.25 11.8125 12.25C11.6965 12.25 11.5852 12.2039 11.5031 12.1219C11.4211 12.0398 11.375 11.9285 11.375 11.8125V11.375H12.25V11.8125Z" fill="#FFCF00"/>
<path d="M12.46 15.8113C12.3965 15.7729 12.3241 15.7517 12.25 15.75H9.625C9.50897 15.75 9.39769 15.7961 9.31564 15.8781C9.23359 15.9602 9.1875 16.0715 9.1875 16.1875V18.8125C9.1875 18.9285 9.23359 19.0398 9.31564 19.1219C9.39769 19.2039 9.50897 19.25 9.625 19.25H12.25C12.366 19.25 12.4773 19.2039 12.5594 19.1219C12.6414 19.0398 12.6875 18.9285 12.6875 18.8125V16.7344L14.7 15.225L14.175 14.525L12.46 15.8113ZM11.8125 18.375H10.0625V16.625H11.375L10.675 17.15L11.2 17.85L11.8125 17.3906V18.375Z" fill="#FFCF00"/>
<path d="M14.175 19.775L12.46 21.0613C12.3965 21.0229 12.3241 21.0017 12.25 21H9.625C9.50897 21 9.39769 21.0461 9.31564 21.1281C9.23359 21.2102 9.1875 21.3215 9.1875 21.4375V24.0625C9.1875 24.1785 9.23359 24.2898 9.31564 24.3719C9.39769 24.4539 9.50897 24.5 9.625 24.5H12.25C12.366 24.5 12.4773 24.4539 12.5594 24.3719C12.6414 24.2898 12.6875 24.1785 12.6875 24.0625V21.9844L14.7 20.475L14.175 19.775ZM11.8125 23.625H10.0625V21.875H11.375L10.675 22.4L11.2 23.1L11.8125 22.6406V23.625Z" fill="#FFCF00"/>
<path d="M27.1569 9.26144C27.1993 9.22124 27.2332 9.17296 27.2566 9.11947C27.28 9.06597 27.2924 9.00833 27.2932 8.94994C27.294 8.89155 27.283 8.8336 27.2611 8.7795C27.2391 8.7254 27.2065 8.67625 27.1652 8.63494L25.9276 7.39725C25.8469 7.31668 25.738 7.27077 25.624 7.2693C25.51 7.26783 25.4 7.31091 25.3172 7.38937L22.3125 10.2375V2.1875C22.3125 1.8394 22.1742 1.50556 21.9281 1.25942C21.6819 1.01328 21.3481 0.875 21 0.875H7C6.6519 0.875 6.31806 1.01328 6.07192 1.25942C5.82578 1.50556 5.6875 1.8394 5.6875 2.1875V11.8125H3.5C3.44428 11.8125 3.38906 11.8231 3.33725 11.8436L1.14975 12.7186C1.06858 12.7511 0.99902 12.8072 0.950046 12.8796C0.901073 12.9521 0.874933 13.0376 0.875 13.125V19.25C0.875013 19.3222 0.892876 19.3932 0.926997 19.4568C0.961118 19.5204 1.01044 19.5745 1.07056 19.6144L2.38744 20.4894C2.45914 20.5371 2.5433 20.5625 2.62938 20.5625H5.6875V25.8125C5.6875 26.1606 5.82578 26.4944 6.07192 26.7406C6.31806 26.9867 6.6519 27.125 7 27.125H21C21.2045 27.1245 21.406 27.0761 21.5883 26.9836C21.7707 26.8912 21.9288 26.7572 22.05 26.5926L22.4359 26.9916C22.4767 27.0338 22.5255 27.0673 22.5796 27.0903C22.6336 27.1132 22.6917 27.125 22.7504 27.125C22.8091 27.125 22.8672 27.1132 22.9213 27.0903C22.9753 27.0673 23.0242 27.0338 23.065 26.9916L26.1008 23.8503C26.4264 23.5388 26.6852 23.1642 26.8613 22.7493C27.0374 22.3345 27.1271 21.8881 27.125 21.4375V18.8125C27.125 18.7279 27.1005 18.645 27.0543 18.574C27.0082 18.5031 26.9425 18.447 26.8651 18.4126L22.9276 16.6626C22.8717 16.6378 22.8112 16.6249 22.75 16.6249C22.6888 16.6249 22.6283 16.6378 22.5724 16.6626L22.3125 16.7781V13.8547L27.1569 9.26144ZM17.2694 16.4115L17.7144 16.8564L16.6018 17.5241L17.2694 16.4115ZM18.4279 16.3328L17.8093 15.7146L24.0218 9.82275L24.6404 10.4414L18.4279 16.3328ZM25.6104 8.31731L26.229 8.93594L25.2761 9.83937L24.6575 9.22075L25.6104 8.31731ZM2.7615 19.6875L1.75 19.0155V13.4212L3.584 12.6875H8.75C8.98206 12.6875 9.20462 12.7797 9.36872 12.9438C9.53281 13.1079 9.625 13.3304 9.625 13.5625C9.625 13.7946 9.53281 14.0171 9.36872 14.1812C9.20462 14.3453 8.98206 14.4375 8.75 14.4375H4.8125C4.69647 14.4375 4.58519 14.4836 4.50314 14.5656C4.42109 14.6477 4.375 14.759 4.375 14.875C4.375 15.2231 4.23672 15.5569 3.99058 15.8031C3.74444 16.0492 3.4106 16.1875 3.0625 16.1875V17.0625C3.56661 17.0619 4.05511 16.8876 4.44563 16.5688C4.83614 16.25 5.10478 15.8063 5.20625 15.3125H5.6875V19.6875H2.7615ZM22.75 17.5411L26.25 19.0969V21.4375C26.2502 21.7743 26.1816 22.1076 26.0485 22.417C25.9154 22.7264 25.7207 23.0054 25.4761 23.2369L22.75 26.0579L20.0239 23.2369L20.0187 23.2317C19.7754 23.0005 19.5818 22.7222 19.4497 22.4137C19.3175 22.1052 19.2496 21.7731 19.25 21.4375V19.0969L22.75 17.5411ZM21.4375 17.1671L18.6349 18.4126C18.5575 18.447 18.4918 18.5031 18.4457 18.574C18.3995 18.645 18.375 18.7279 18.375 18.8125V21.4375C18.3729 21.8875 18.4625 22.3332 18.6382 22.7475C18.8139 23.1618 19.0721 23.5359 19.397 23.8472L21.413 25.9337C21.3878 26.0241 21.3338 26.1038 21.2593 26.1608C21.1849 26.2179 21.0938 26.2492 21 26.25H7C6.88397 26.25 6.77269 26.2039 6.69064 26.1219C6.60859 26.0398 6.5625 25.9285 6.5625 25.8125V15.3125H8.75C9.21413 15.3125 9.65925 15.1281 9.98744 14.7999C10.3156 14.4717 10.5 14.0266 10.5 13.5625C10.5 13.0984 10.3156 12.6533 9.98744 12.3251C9.65925 11.9969 9.21413 11.8125 8.75 11.8125H6.5625V2.1875C6.5625 2.07147 6.60859 1.96019 6.69064 1.87814C6.77269 1.79609 6.88397 1.75 7 1.75H21C21.116 1.75 21.2273 1.79609 21.3094 1.87814C21.3914 1.96019 21.4375 2.07147 21.4375 2.1875V11.0687L16.8805 15.3886C16.8516 15.4157 16.8267 15.4468 16.8066 15.4809L14.9503 18.5745C14.9 18.6582 14.8793 18.7562 14.8912 18.8531C14.9031 18.9499 14.947 19.04 15.016 19.109C15.085 19.178 15.1751 19.2219 15.2719 19.2338C15.3688 19.2457 15.4668 19.225 15.5505 19.1747L18.6441 17.3184C18.6715 17.3023 18.6971 17.283 18.7202 17.2611L21.4375 14.6842V17.1671Z" fill="#FFCF00"/>
<path d="M22.75 22.75C22.866 22.75 22.9773 22.7039 23.0593 22.6218L25.5343 20.1469L24.9156 19.5283L22.75 21.6939L21.8216 20.7655L21.203 21.3841L22.4407 22.6218C22.5227 22.7039 22.634 22.75 22.75 22.75Z" fill="#FFCF00"/>
</svg>
