<svg width="140" height="59" viewBox="0 0 140 59" fill="none" xmlns="http://www.w3.org/2000/svg">
<g clip-path="url(#clip0_3101_489)">
<path d="M62.1211 39.1682C62.1211 36.0422 64.6626 33.5094 67.7996 33.5094H78.0869V52.51H63.5636C60.5346 52.51 58.1762 52.184 56.4883 51.5321C55.4122 51.1116 54.3687 50.502 53.3645 49.7034C50.0869 47.0924 48.1243 42.8842 48.4514 37.0787C48.4514 31.6677 49.2594 27.6029 51.8598 24.8908C54.336 21.9604 58.2383 20.4935 63.5668 20.4935H78.0902C78.0902 23.5478 75.6075 26.0219 72.5425 26.0219H63.5668C60.0145 26.0219 57.7346 27.5898 56.7304 30.7224C56.2201 32.3033 55.965 34.321 55.965 36.7723C55.965 39.0801 56.2201 40.9577 56.7304 42.4083C57.7346 45.28 60.0145 46.7175 63.5668 46.7175H71.1687V39.1649H62.1276L62.1211 39.1682Z" fill="white"/>
<path d="M90.6452 26.1099H80.2695C80.2695 23.0328 82.7719 20.5392 85.8597 20.5392H108.05C108.05 23.6163 105.548 26.1099 102.46 26.1099H97.6322V52.51H90.642V26.1099H90.6452Z" fill="white"/>
<path d="M138.499 20.4968C138.499 23.6456 135.938 26.198 132.778 26.198H121.814C118.35 26.198 116.616 27.5996 116.616 30.3997C116.616 32.7206 118.036 33.881 120.875 33.881H129.831C134.607 33.881 137.665 35.1295 139.003 37.6231C139.716 38.9596 140.073 40.7198 140.073 42.9103C140.073 49.309 136.331 52.51 128.847 52.51H110.849C110.849 49.3611 113.411 46.8088 116.57 46.8088H127.754C129.412 46.8088 130.629 46.6133 131.401 46.2221C132.464 45.6843 132.994 44.677 132.994 43.1971C132.994 41.7172 132.543 40.7002 131.64 40.1493C130.927 39.7126 129.782 39.4974 128.212 39.4974H120.24C116.76 39.4974 114.169 38.852 112.465 37.5612C110.529 36.0813 109.561 33.6659 109.561 30.3149C109.561 25.2527 111.317 22.169 115.808 21.064C117.234 20.6859 118.909 20.4968 120.833 20.4968H138.503H138.499Z" fill="white"/>
<path d="M29.9005 32.877C29.6682 32.877 28.0393 32.877 26.1453 32.8868C22.5963 32.8998 19.721 35.7749 19.721 39.3181C19.9729 39.2757 22.3673 39.2366 24.7748 39.2171C27.1822 39.1942 29.6028 39.1845 29.9005 39.1845H34.0612C33.9827 41.2087 33.6229 43.0309 32.9785 44.6542C32.3308 46.2775 31.428 47.6694 30.2603 48.8266C29.0991 49.9903 27.6925 50.8802 26.0439 51.5126C24.4019 52.1384 22.5766 52.4513 20.578 52.4513C18.5794 52.4513 16.8523 52.0634 15.171 51.2876C13.4897 50.5118 12.021 49.4655 10.7617 48.1388C9.50561 46.8121 8.51449 45.2572 7.79486 43.4677C7.07523 41.6781 6.71215 39.7549 6.71215 37.6916C6.71215 35.6282 7.07523 33.7571 7.79486 31.9676C8.51449 30.178 9.50561 28.6232 10.7617 27.2965C12.021 25.9698 13.4897 24.9169 15.171 24.1411C16.8523 23.3718 18.6579 22.9839 20.578 22.9839C20.7808 22.9839 20.9869 22.9872 21.1864 22.997L21.0294 22.6873C20.9673 22.5765 20.9117 22.4689 20.8528 22.3581C20.8332 22.3157 20.8136 22.2668 20.7841 22.2212C20.7056 22.0908 20.6435 21.9702 20.5813 21.8528C20.5584 21.8007 20.5322 21.7518 20.4995 21.6963L20.4276 21.5757L20.0579 20.9108C19.2402 19.4668 18.6612 17.951 18.3407 16.4092C16.3192 16.6276 14.3925 17.1491 12.564 17.9738C10.0682 19.0984 7.89626 20.6304 6.04486 22.5634C4.19673 24.5029 2.72804 26.7651 1.63879 29.3663C0.546262 31.9643 0 34.735 0 37.685C0 40.635 0.542991 43.4123 1.63879 46.0298C2.72804 48.6473 4.19673 50.9226 6.04486 52.8588C7.89626 54.7918 10.0715 56.3238 12.564 57.4484C15.0598 58.573 17.7322 59.1337 20.578 59.1337C23.4238 59.1337 25.9621 58.6838 28.4023 57.7776C30.8425 56.8747 32.972 55.5382 34.7808 53.7715C36.7402 51.8972 38.2285 49.6806 39.2491 47.1381C40.2663 44.5988 40.7701 41.7792 40.7701 38.6825V32.877H29.8972H29.9005Z" fill="white"/>
<path d="M30.4407 14.6457L30.8234 15.3237C30.8855 15.4215 30.9346 15.5225 31 15.6399C31.0491 15.7279 31.0916 15.8159 31.1472 15.9072C31.1995 15.9952 31.2453 16.0865 31.2977 16.1875C31.3467 16.2853 31.3958 16.3798 31.4383 16.4581L31.7164 17.0155C31.9551 17.5305 32.1449 17.964 32.2888 18.3682C32.3182 18.466 32.3477 18.5606 32.3771 18.6649L32.4458 18.9159C32.5047 19.118 32.5537 19.3168 32.5963 19.5319C32.6584 19.8286 32.714 20.1219 32.7631 20.4153C32.7762 20.5131 32.7925 20.6076 32.8023 20.7054C32.8252 21.0151 32.822 21.3215 32.7991 21.6246C32.7664 22.0908 32.678 22.5928 32.5472 23.1306C32.3804 23.7467 32.1972 24.2943 31.965 24.8452L31.9028 24.9951L31.7425 25.3732L32.3935 25.383C32.4523 25.383 32.5047 25.383 32.5636 25.3798C33.172 25.357 33.8033 25.2005 34.4935 24.9039C35.1738 24.6072 35.8117 24.19 36.3939 23.6619C37.5323 22.6384 38.3958 21.1389 38.772 19.5417C39.122 18.1009 39.1187 16.4744 38.7589 14.8315C38.7294 14.6652 38.6869 14.5121 38.6411 14.3523L38.5692 14.1013C38.5365 13.9807 38.507 13.8601 38.4678 13.7395C38.4252 13.6091 38.3762 13.482 38.3271 13.3386L38.2453 13.1169C38.1963 12.9767 38.1439 12.8398 38.0883 12.7062L37.8757 12.227C37.8037 12.0575 37.7252 11.8913 37.6435 11.7315L37.1855 10.8742C36.7145 10.0463 36.3285 9.29329 36.008 8.57617C35.6612 7.81015 35.4192 7.11258 35.236 6.37589C35.0365 5.53816 34.9743 4.7037 35.0365 3.83337C35.0757 3.3379 35.1542 2.81962 35.2687 2.29156C35.4159 1.67548 35.586 1.10504 35.7888 0.541116L35.9883 0L35.4094 0.0195373C34.7322 0.042355 34.0322 0.228193 33.2734 0.586756C32.6257 0.886646 32.0042 1.30714 31.4252 1.84825C31.1178 2.12858 30.8365 2.43824 30.5846 2.77398C29.8748 3.67691 29.3481 4.7363 29.0537 5.86414C28.6547 7.34077 28.6122 8.96083 28.9262 10.5548C29.1944 11.9499 29.7047 13.3255 30.4472 14.6489L30.4407 14.6457Z" fill="#E78E0E"/>
<path d="M20.6498 16.2918C20.9376 17.4881 21.4087 18.6649 22.0465 19.8058L22.4292 20.4837C22.4914 20.5815 22.547 20.6826 22.6059 20.7999C22.6549 20.8879 22.6974 20.976 22.7531 21.0672C22.8054 21.1553 22.8512 21.24 22.9101 21.3541C22.9591 21.4519 23.0082 21.5464 23.0474 21.6148L23.3255 22.1755C23.5381 22.6254 23.7049 23.0132 23.8423 23.3718C23.9731 23.7108 24.0745 24.027 24.1629 24.34C24.3951 25.2038 24.4703 25.9763 24.4049 26.7815C24.3722 27.2476 24.2839 27.7496 24.1531 28.2842C23.9862 28.9035 23.8031 29.4511 23.5708 30.0053L23.3484 30.5333L23.9993 30.5431C24.6601 30.5431 25.3502 30.3866 26.1059 30.0639C26.783 29.7673 27.4175 29.3566 28.0031 28.822C28.3956 28.4667 28.7619 28.056 29.0792 27.5996C29.596 26.8727 29.9984 26.0382 30.2601 25.1712C30.3026 25.0147 30.3484 24.855 30.3811 24.7018C30.6591 23.5576 30.7115 22.2929 30.5414 20.9988C30.5381 20.6011 30.4727 20.2132 30.3516 19.7568C30.2895 19.5352 30.2143 19.307 30.1194 19.0527C30.1096 19.0006 30.09 18.9452 30.0769 18.893C30.0474 18.8018 30.0147 18.7138 29.9853 18.6225C29.9722 18.5834 29.9559 18.541 29.9428 18.5019L29.861 18.2802C29.8119 18.1335 29.7596 17.9934 29.7007 17.8597L29.4881 17.3805C29.4161 17.211 29.3376 17.0448 29.2559 16.8851L28.7979 16.0278C28.3302 15.1999 27.9474 14.4469 27.6269 13.7297C27.2802 12.9637 27.0348 12.2661 26.8549 11.5294C26.6554 10.6852 26.5867 9.85722 26.6554 8.98689C26.6881 8.49142 26.7666 7.97314 26.8876 7.44181C27.0283 6.83225 27.1984 6.25856 27.4077 5.6979L27.6073 5.15352L27.025 5.1731C26.9759 5.1731 26.9269 5.17637 26.8778 5.18288C26.2465 5.22526 25.5988 5.40453 24.889 5.74027C24.2479 6.04016 23.6231 6.46066 23.0409 7.00177C21.9124 8.04486 21.0717 9.47262 20.6694 11.0177C20.2769 12.4911 20.2311 14.1143 20.5418 15.7083C20.5811 15.9006 20.6203 16.0962 20.6694 16.2886L20.6498 16.2918Z" fill="#E78E0E"/>
</g>
<defs>
<clipPath id="clip0_3101_489">
<rect width="140" height="59" fill="white"/>
</clipPath>
</defs>
</svg>
