<svg width="24" height="24" viewBox="0 0 24 24" fill="none" xmlns="http://www.w3.org/2000/svg">
    <path fill-rule="evenodd" clip-rule="evenodd"
          d="M12.046 21.1506C17.0997 21.1506 21.1965 17.0538 21.1965 12.0001C21.1965 6.94637 17.0997 2.84953 12.046 2.84953C6.99226 2.84953 2.89542 6.94637 2.89542 12.0001C2.89542 17.0538 6.99226 21.1506 12.046 21.1506ZM12.046 22.4914C17.8401 22.4914 22.5373 17.7942 22.5373 12.0001C22.5373 6.2059 17.8401 1.50879 12.046 1.50879C6.25179 1.50879 1.55469 6.2059 1.55469 12.0001C1.55469 17.7942 6.25179 22.4914 12.046 22.4914Z"
          fill="#F47322"/>
    <path fill-rule="evenodd" clip-rule="evenodd"
          d="M11.995 19.3036C16.0286 19.3036 19.2985 16.0337 19.2985 12.0001C19.2985 7.96645 16.0286 4.69653 11.995 4.69653C7.96132 4.69653 4.69141 7.96645 4.69141 12.0001C4.69141 16.0337 7.96132 19.3036 11.995 19.3036ZM13.5818 10.2363L16.3131 10.4733C16.8097 10.5128 17.0072 11.1336 16.6291 11.4609L14.5581 13.2554L15.1788 15.9246C15.2917 16.4099 14.7669 16.7936 14.338 16.534L11.9961 15.1176L9.65422 16.5284C9.22534 16.788 8.70053 16.4042 8.8134 15.9189L9.43414 13.2554L7.36311 11.4609C6.98502 11.1336 7.18817 10.5128 7.68477 10.4733L10.4104 10.2419L11.477 7.7251C11.6688 7.268 12.3234 7.268 12.5153 7.7251L13.5818 10.2363Z"
          fill="#F47322"/>
</svg>
