<svg width="256" height="256" viewBox="0 0 256 256" fill="none" xmlns="http://www.w3.org/2000/svg">
<path d="M174 47.75C161.648 33.4843 147.745 20.6385 132.55 9.44995C131.205 8.50766 129.602 8.0022 127.96 8.0022C126.318 8.0022 124.715 8.50766 123.37 9.44995C108.203 20.6431 94.3272 33.4888 82 47.75C54.51 79.32 40 112.6 40 144C40 167.339 49.2714 189.722 65.7746 206.225C82.2778 222.729 104.661 232 128 232C151.339 232 173.722 222.729 190.225 206.225C206.729 189.722 216 167.339 216 144C216 112.6 201.49 79.32 174 47.75ZM183.85 153.34C181.776 164.927 176.201 175.6 167.876 183.923C159.552 192.246 148.877 197.818 137.29 199.89C136.863 199.958 136.432 199.995 136 200C133.993 199.999 132.06 199.245 130.584 197.886C129.107 196.526 128.196 194.662 128.03 192.662C127.863 190.662 128.455 188.673 129.687 187.089C130.919 185.505 132.701 184.442 134.68 184.11C151.25 181.32 165.31 167.26 168.12 150.66C168.475 148.567 169.647 146.702 171.378 145.473C173.109 144.245 175.257 143.755 177.35 144.11C179.443 144.465 181.308 145.637 182.537 147.368C183.765 149.099 184.255 151.247 183.9 153.34H183.85Z" fill="black"/>
</svg>
