<svg width="574" height="94" fill="none" xmlns="http://www.w3.org/2000/svg">
    <path d="M.59 92h78.03l.945-23.895c-9.045.81-17.01.945-24.3.945h-18.9l.675-10.8h18.225c4.455 0 10.53 0 18.09.405L74.3 35.3c-9.855.405-16.335.675-19.575.675H38.12l.675-10.8h21.87c6.885 0 14.04.405 21.33 1.08l1.08-23.625H5.18C4.64 40.835 2.885 70.67.59 92Zm89.394 0h72.63l1.35-25.515c-8.64.405-17.01.675-25.245.675-3.78 0-7.56 0-11.34-.135.675-33.885 2.16-55.35 3.915-64.395H94.439C93.9 40.835 92.28 70.67 89.984 92Zm78.697 0h78.03l.945-23.895c-9.045.81-17.01.945-24.3.945h-18.9l.675-10.8h18.225c4.455 0 10.53 0 18.09.405l.945-23.355c-9.855.405-16.335.675-19.575.675h-16.605l.675-10.8h21.87c6.885 0 14.04.405 21.33 1.08l1.08-23.625h-77.895c-.54 38.205-2.295 68.04-4.59 89.37Zm88.989 0h34.29c0-16.335.27-26.055.405-29.16l1.62-36.315c3.24-.54 5.805-.81 7.425-.81 7.965 0 11.745 1.755 11.745 7.425 0 4.995-3.78 7.56-11.34 7.56-1.62 0-3.375-.27-5.265-.405l-1.35 1.755c3.915 16.605 7.695 33.345 11.07 49.95h36.18c-5.13-15.39-9.315-28.485-12.555-39.285 11.34-4.86 17.145-13.365 17.145-24.975 0-9.18-3.645-16.605-9.855-20.79-6.21-4.185-13.905-4.32-23.895-4.32h-51.03c-.54 40.23-2.43 70.065-4.59 89.37Zm149.707 1.89c36.045 0 56.295-19.305 56.295-48.465 0-27.945-19.44-44.685-55.35-44.685-34.56 0-55.08 18.9-55.08 48.33 0 28.08 19.845 44.82 54.135 44.82Zm-18.09-45.09c0-14.85 6.75-23.085 19.17-23.085 12.285 0 18.9 7.155 18.9 20.655 0 14.58-7.155 22.545-18.9 22.545-12.555 0-19.17-7.155-19.17-20.115ZM471.756 92h32.805c0-11.34.54-20.52.945-27.81l1.08-18.09 10.8 21.6c1.89 3.78 6.48 11.475 11.34 24.3h40.77c-.135-2.835-.135-5.535-.135-8.1 0-12.285.675-21.33.945-27l1.485-31.59c.405-8.775 1.35-16.335 2.16-22.68h-31.05c0 9.72-.135 16.74-.405 20.925l-1.89 24.84-22.95-45.765h-40.635c-1.485 36.45-2.565 66.285-5.265 89.37Z"
          fill="#ED8023"/>
</svg>