<svg width="40" height="40" viewBox="0 0 40 40" fill="none" xmlns="http://www.w3.org/2000/svg">
    <path
        d="M23.5702 35.1187C23.6401 35.5849 23.9235 35.9916 24.3366 36.2183C24.7498 36.4453 25.245 36.4664 25.6758 36.2751L32.0511 33.4589C32.3669 33.3198 32.524 32.9628 32.4136 32.6357L29.2145 23.1305C28.7025 21.6309 27.1763 20.7265 25.6151 20.9975L24.6152 21.1769C22.9029 21.4756 21.7459 23.0921 22.016 24.8096L23.5702 35.1187ZM25.1379 35.0552C25.0872 35.079 25.0283 35.0766 24.9798 35.0485C24.9295 35.022 24.895 34.9722 24.888 34.9155L23.3295 24.6149C23.2974 24.3931 23.3051 24.1673 23.3524 23.9482L24.4794 24.8388C25.0238 25.2633 25.4299 25.8399 25.6459 26.4959L28.0886 33.7555L25.1379 35.0552ZM24.8474 22.4941L25.847 22.3147C25.9544 22.2954 26.0633 22.286 26.1725 22.286C26.9753 22.2881 27.6886 22.7989 27.9492 23.5583L30.9561 32.4899L29.3118 33.2157L26.9087 26.0752C26.611 25.1726 26.052 24.3787 25.3026 23.7944L24.0807 22.8279C24.3077 22.66 24.5698 22.5459 24.8474 22.4941Z"
        fill="#FFCF00" />
    <path
        d="M1.70895 6.33126L11.662 9.264C11.7966 9.30397 11.9217 9.37079 12.0294 9.46049L15.54 12.3853L16.106 12.8585L20.6928 36.6997C20.9246 37.9116 21.6966 38.9518 22.7898 39.5242C23.883 40.0962 25.1776 40.1383 26.3056 39.6383L32.7011 36.8129C33.3241 37.551 34.352 37.803 35.246 37.4369L38.6193 36.0532C39.7553 35.5876 40.2987 34.2896 39.8337 33.1537L33.6902 18.1574L34.1461 17.6308C34.9964 16.6459 34.8893 15.1588 33.9069 14.3057L26.8777 8.21563C26.4045 7.80586 25.7878 7.60113 25.1639 7.64629C24.5396 7.69145 23.959 7.98283 23.5495 8.45606L22.4127 9.77109L19.8577 7.64232H19.8537L15.1214 3.79302C14.8788 3.59531 14.599 3.44825 14.2988 3.36037L3.51704 0.182626C2.26852 -0.184119 0.958675 0.529845 0.590403 1.77806L0.113207 3.39851C-0.0649786 3.99897 0.00336665 4.64551 0.302682 5.19593C0.601998 5.74605 1.10787 6.1546 1.70895 6.33126ZM22.993 11.1407L24.5582 9.33051C24.7361 9.12487 24.9884 8.99824 25.26 8.97841C25.5312 8.95889 25.7994 9.04798 26.0051 9.22586L33.0343 15.3135C33.4614 15.6842 33.5078 16.3304 33.1383 16.7585L32.4146 17.5954C32.2498 17.7855 32.2059 18.0522 32.3011 18.2847L38.6004 33.6556C38.7865 34.1099 38.569 34.6292 38.1147 34.8153L34.7401 36.1984C34.5217 36.2878 34.2767 36.2869 34.0588 36.1957C33.8413 36.1044 33.6689 35.9302 33.5795 35.7118C33.5115 35.5452 33.379 35.4131 33.2118 35.3456C33.0449 35.2782 32.8579 35.2809 32.6931 35.3539L25.7671 38.4138C25.0104 38.7482 24.1427 38.7193 23.4101 38.3354C22.6772 37.9516 22.1594 37.2547 22.0032 36.4422L17.3716 12.3679C17.3423 12.2169 17.2618 12.0805 17.1437 11.9819L16.9344 11.8074L19.4879 9.06934L22.0633 11.2143C22.3422 11.4462 22.7556 11.4123 22.993 11.1383V11.1407ZM1.39163 3.77716L1.86761 2.15548C1.94419 1.89431 2.12176 1.67463 2.36067 1.54434C2.59957 1.41437 2.88027 1.38447 3.14115 1.46166L13.9162 4.63361C14.0468 4.67205 14.1682 4.73582 14.2735 4.82156L18.4566 8.22082L15.9092 10.9537L12.8825 8.43073C12.6353 8.22417 12.3485 8.0707 12.0395 7.98008L2.08485 5.04948C1.54205 4.88929 1.23206 4.31995 1.39163 3.77716Z"
        fill="#FFCF00" />
    <path
        d="M4.667 22.9944C5.91278 23.0224 7.11584 22.54 7.997 21.6589C8.87817 20.7777 9.36086 19.5746 9.33248 18.3286C9.33248 16.2038 6.75031 12.3667 5.67388 11.1248C5.41392 10.8448 5.04901 10.6858 4.667 10.6858C4.2847 10.6858 3.91978 10.8448 3.65983 11.1248C2.58339 12.3667 0.00122108 16.2038 0.00122108 18.3286C-0.0268493 19.5746 0.455534 20.7777 1.3367 21.6589C2.21786 22.54 3.42092 23.0224 4.667 22.9944ZM4.667 11.9966C5.8426 13.3525 7.99945 16.7856 7.99945 18.3286C8.03026 19.2216 7.68915 20.0872 7.05726 20.7191C6.42567 21.351 5.55976 21.6921 4.667 21.6613C3.77394 21.6921 2.90833 21.351 2.27645 20.7191C1.64456 20.0872 1.30344 19.2216 1.33426 18.3286C1.33426 16.7862 3.49171 13.3531 4.667 11.9966Z"
        fill="#FFCF00" />
    <path
        d="M19.1104 12.5171C18.9389 12.5611 18.7916 12.6712 18.7013 12.8235C18.611 12.976 18.585 13.1582 18.6293 13.3296L18.9624 14.6349C19.0381 14.9296 19.3036 15.1359 19.6078 15.1362C19.6636 15.1365 19.7191 15.1295 19.7731 15.1155C20.1298 15.0245 20.3452 14.6615 20.2543 14.3048L19.9211 12.9992C19.8775 12.8277 19.7676 12.6807 19.6157 12.5904C19.4637 12.5 19.2819 12.4735 19.1104 12.5171Z"
        fill="#FFCF00" />
    <path
        d="M19.681 16.8158L20.6256 20.8149C20.6967 21.1154 20.9652 21.3281 21.274 21.3281C21.3258 21.3284 21.3771 21.3223 21.4274 21.3101C21.785 21.2259 22.0072 20.868 21.9239 20.5101L20.9795 16.511C20.9246 16.2791 20.7504 16.0939 20.5222 16.0256C20.294 15.9569 20.0465 16.0155 19.8729 16.1787C19.6996 16.3423 19.6264 16.5857 19.681 16.8176V16.8158Z"
        fill="#FFCF00" />
</svg>
