<svg width="40" height="40" viewBox="0 0 40 40" fill="none" xmlns="http://www.w3.org/2000/svg">
    <g clip-path="url(#clip0)">
        <path
            d="M36.4225 5.24414L33.0891 1.91078C32.7636 1.58523 32.2362 1.58523 31.9108 1.91078C31.5852 2.23633 31.5852 2.76367 31.9108 3.08914L34.6549 5.83328L31.9108 8.57742C31.7545 8.73367 31.6666 8.94523 31.6666 9.16664V11.6666C31.6666 13.5051 33.1616 15 35 15V29.1666C35 29.6264 34.6265 30 34.1666 30C33.7068 30 33.3333 29.6265 33.3333 29.1666V27.5C33.3333 26.1214 32.2118 25 30.8333 25H30V3.33336C30 1.49492 28.505 0 26.6666 0H9.99997C8.16161 0 6.66661 1.49492 6.66661 3.33336V33.3334C4.82825 33.3334 3.33325 34.8283 3.33325 36.6667V39.1667C3.33325 39.6273 3.70599 40.0001 4.16661 40.0001H32.5C32.9606 40.0001 33.3333 39.6273 33.3333 39.1667V36.6667C33.3333 34.8284 31.8384 33.3334 30 33.3334V26.6667H30.8333C31.2931 26.6667 31.6667 27.0402 31.6667 27.5001V29.1667C31.6667 30.5453 32.7881 31.6667 34.1667 31.6667C35.5453 31.6667 36.6667 30.5453 36.6667 29.1667V5.83336C36.6666 5.61195 36.5787 5.40039 36.4225 5.24414ZM26.6666 14.1821C26.6666 14.6427 26.2939 15.0155 25.8333 15.0155H10.8333C10.3726 15.0155 9.99989 14.6427 9.99989 14.1821V4.16664C9.99989 3.70602 10.3726 3.33328 10.8333 3.33328H25.8333C26.2939 3.33328 26.6666 3.70602 26.6666 4.16664V14.1821Z"
            fill="#FFCF00" />
    </g>
    <defs>
        <clipPath id="clip0">
            <rect width="40" height="40" fill="white" />
        </clipPath>
    </defs>
</svg>
