<svg version="1.2" xmlns="http://www.w3.org/2000/svg" width="299" height="295">
    <g id="Layer 1">
        <g id="&lt;Group&gt;">
            <path id="&lt;Path&gt;" class="s0"
                  d="M95.1 17.4c37.5-12.5 76.6-12.3 112.6 5.2 38.8 18.5 66.2 50.7 77.2 90.1h-38.2c-11.1-28.2-33.8-51.2-63.9-62.4-23.7-8.9-57.6-7.3-80.8 2-2.3 1.1-2.6 1.4-5.6 1.4-19.2.5-38.9 0-57.9 0 8.3-12.6 43.9-32.2 56.6-36.3z"
                  fill="#51a245"/>
            <path class="s1"
                  d="M284.9 112.7c8.9 29.8 8.2 75.3-8.6 106.5H143.5c-22.8-1.4-46.2-11.8-57.3-32.4l-4.3-11.6c-3.1-12.4-2.4-26.6.3-38.9h37.6c2.1.2 2.3-.5 1.9 1.4-.2.8-4.8 8.5-4.8 21.4 0 15.3 17.3 23.9 29.2 23.9h104.7c1.8-7.6 2.8-18.5 3-26.3 0-4.8-.2-9.7-.9-14.5-1-10.1-2.8-20.1-6.2-29.5z"
                  fill="#f08120"/>
            <path class="s0"
                  d="M203.1 278.7c-37.6 12.5-76.5 12.2-112.7-5.2-38.8-18.5-66-50.7-77.2-90.1l38.4-.2c11.1 28.4 33.8 51.4 63.7 62.7 23.7 8.8 57.6 7.2 80.8-2.3 2.3-.9 2.6-1.2 5.8-1.2 19-.5 38.7 0 57.9 0-8.4 12.6-44.1 32.2-56.7 36.3z"
                  fill="#51a245"/>
            <path class="s1"
                  d="M13.2 183.4c-8.8-30-8.1-75.3 8.8-106.7h132.8c22.6 1.4 46.2 12 57.3 32.6l4.1 11.6c3.1 12.3 2.6 26.6-.3 38.9h-37.6c-2.1-.1-2.1.5-1.9-1.4.2-.8 5-8.4 5-21.4 0-15.3-17.5-24.1-29.4-24.1H47.3c-1.6 7.8-2.8 18.5-2.8 26.5-.2 4.8.2 9.7.7 14.5 1.2 10.1 3 20.1 6.4 29.5z"
                  fill="#f08120"/>
        </g>
    </g>
</svg>