<svg width="24" height="24" viewBox="0 0 24 24" fill="none" xmlns="http://www.w3.org/2000/svg">
<path fill-rule="evenodd" clip-rule="evenodd" d="M11.9121 21.1803C16.9822 21.1803 21.0923 17.0701 21.0923 12C21.0923 6.9299 16.9822 2.81976 11.9121 2.81976C6.84195 2.81976 2.73181 6.9299 2.73181 12C2.73181 17.0701 6.84195 21.1803 11.9121 21.1803ZM11.9121 22.5254C17.725 22.5254 22.4374 17.813 22.4374 12C22.4374 6.18703 17.725 1.47467 11.9121 1.47467C6.09907 1.47467 1.38672 6.18703 1.38672 12C1.38672 17.813 6.09907 22.5254 11.9121 22.5254Z" fill="#F47322"/>
<path fill-rule="evenodd" clip-rule="evenodd" d="M12.005 19.3271C16.0517 19.3271 19.3323 16.0466 19.3323 11.9999C19.3323 7.95314 16.0517 4.67261 12.005 4.67261C7.95826 4.67261 4.67773 7.95314 4.67773 11.9999C4.67773 16.0466 7.95826 19.3271 12.005 19.3271ZM11.3068 7.14054C11.3068 6.75235 11.6214 6.43766 12.0096 6.43766C12.3978 6.43766 12.7125 6.75235 12.7125 7.14054V13.7342C12.7125 14.1224 12.3978 14.4371 12.0096 14.4371C11.6214 14.4371 11.3068 14.1224 11.3068 13.7342V7.14054ZM11.0705 16.6416C11.0705 16.1334 11.4825 15.7214 11.9908 15.7214H12.0232C12.5314 15.7214 12.9434 16.1334 12.9434 16.6416C12.9434 17.1499 12.5314 17.5619 12.0232 17.5619H11.9908C11.4825 17.5619 11.0705 17.1499 11.0705 16.6416Z" fill="#F47322"/>
</svg>
