<svg width="20" height="20" viewBox="0 0 20 20" fill="none" xmlns="http://www.w3.org/2000/svg">
<path d="M16.6667 0C14.8287 0 13.3334 1.49535 13.3334 3.33332C13.3334 4.92762 15.6954 8.15438 16.2489 8.88879C16.2487 9.12602 16.2489 9.35894 16.2431 9.57273C16.237 9.80262 16.4185 9.9943 16.6488 10.0004C16.6525 10.0004 16.6561 10.0004 16.6602 10.0004C16.8848 10.0004 17.0704 9.82094 17.0765 9.59473C17.0822 9.37535 17.082 9.1359 17.0822 8.89191C17.632 8.16254 20 4.92949 20 3.33332C20 1.49535 18.5047 0 16.6667 0ZM16.6667 4.16668C16.2073 4.16668 15.8334 3.79273 15.8334 3.33336C15.8334 2.87398 16.2073 2.50004 16.6667 2.50004C17.1261 2.50004 17.5 2.87395 17.5 3.33332C17.5 3.79273 17.1261 4.16668 16.6667 4.16668Z" fill="#FFCF00"/>
<path d="M12.7539 12.0089C12.0663 12.3992 11.6842 13.0766 11.4563 13.5519C11.3566 13.7594 11.4441 14.0085 11.6516 14.1077C11.7098 14.1358 11.7713 14.1488 11.8315 14.1488C11.9869 14.1488 12.1359 14.0617 12.2075 13.9124C12.4968 13.309 12.7922 12.9456 13.1657 12.7332C13.3655 12.6197 13.4359 12.3653 13.3219 12.1651C13.2089 11.965 12.9553 11.8946 12.7539 12.0089Z" fill="#FFCF00"/>
<path d="M8.96198 18.0579C8.54448 18.3887 8.07006 18.6377 7.51096 18.8196C7.29206 18.8908 7.17241 19.126 7.24362 19.3449C7.301 19.5207 7.46416 19.6326 7.63995 19.6326C7.68268 19.6326 7.7262 19.6261 7.76893 19.6123C8.41467 19.4023 8.99002 19.0992 9.47955 18.7114C9.65983 18.5681 9.69033 18.3061 9.54752 18.1258C9.40346 17.946 9.14182 17.9139 8.96198 18.0579Z" fill="#FFCF00"/>
<path d="M11.3114 15.0171C11.0957 14.9333 10.8556 15.0403 10.7722 15.2551C10.5855 15.7377 10.3519 16.3004 10.037 16.816C9.91692 17.0125 9.97919 17.2689 10.1753 17.3889C10.2433 17.4304 10.3181 17.45 10.3922 17.45C10.5326 17.45 10.6697 17.3792 10.7482 17.2506C11.0974 16.6785 11.3492 16.073 11.5494 15.5563C11.6324 15.3418 11.5258 15.1005 11.3114 15.0171Z" fill="#FFCF00"/>
<path d="M16.512 10.9773C16.3228 10.8491 16.0628 10.8983 15.9334 11.0887C15.7963 11.2914 15.5155 11.5701 14.6663 11.6462C14.4372 11.667 14.2679 11.8692 14.2887 12.0987C14.3082 12.3152 14.4901 12.4779 14.7033 12.4779C14.7159 12.4779 14.7286 12.4775 14.7412 12.4762C15.6433 12.3953 16.2589 12.0942 16.6235 11.5558C16.7525 11.3654 16.7025 11.1062 16.512 10.9773Z" fill="#FFCF00"/>
<path d="M5.9873 19.1721C7.30203 17.7701 10 14.5446 10 11.6667C10 8.86319 7.80356 6.66675 5 6.66675C2.19645 6.66675 0 8.86319 0 11.6667C0 15.3626 4.45578 19.6412 4.7048 19.8773C4.7048 19.8773 4.70582 19.8783 4.70629 19.8788C4.70766 19.8801 4.71289 19.8851 4.71398 19.8862C4.73121 19.9025 4.7527 19.9101 4.7718 19.9229C4.79543 19.9389 4.8168 19.9576 4.84355 19.9685C4.89375 19.9889 4.94664 20.0001 5 20.0001C5.30355 20.0001 5.59203 19.9895 5.86547 19.9687C6.09496 19.9512 6.26707 19.7514 6.24957 19.5219C6.23707 19.3577 6.13078 19.2296 5.9873 19.1721ZM5 14.1667C3.62141 14.1667 2.5 13.0453 2.5 11.6667C2.5 10.2882 3.62141 9.16675 5 9.16675C6.37859 9.16675 7.5 10.2882 7.5 11.6667C7.5 13.0453 6.37859 14.1667 5 14.1667Z" fill="#FFCF00"/>
</svg>
