<svg width="24" height="24" viewBox="0 0 24 24" fill="none" xmlns="http://www.w3.org/2000/svg">
<path fill-rule="evenodd" clip-rule="evenodd" d="M18.3615 7.95375L19.3678 9.14351C19.4566 9.23277 19.5751 9.29248 19.694 9.29277L20.4063 9.29451C20.5251 9.2948 20.6439 9.23566 20.7035 9.17638L22.4294 7.45888C22.6079 7.28124 22.5789 7.01385 22.4308 6.86503L20.7133 5.13914C20.6245 5.04989 20.5355 5.01985 20.4167 5.01956L10.7399 4.99641C9.94236 3.36178 8.28284 2.22967 6.35328 2.19533C3.62211 2.18867 1.42028 4.3798 1.44354 7.0812C1.43689 9.81237 3.62802 12.0142 6.32942 11.9909C8.28858 11.9957 9.95371 10.8717 10.7297 9.21127L12.4511 9.21546C12.57 9.21575 12.6888 9.15661 12.778 9.06779L13.7902 7.88295C13.9391 7.67562 14.2953 7.67649 14.4432 7.88454L15.4496 9.0743C15.5384 9.16356 15.6569 9.22327 15.7757 9.22356L16.2507 9.22472C16.3696 9.22501 16.4884 9.16587 16.5776 9.07705L17.5898 7.8922C17.8572 7.7446 18.2135 7.7453 18.3615 7.95375ZM2.9236 7.12465C2.91906 8.99423 4.38449 10.4668 6.25405 10.4714C8.05673 10.4087 9.52931 8.94324 9.60077 7.14092C9.6053 5.27133 8.13988 3.79875 6.27032 3.79419C4.40073 3.78966 2.92815 5.25509 2.9236 7.12465ZM1.69687 14.4682C1.69687 13.9159 2.14458 13.4682 2.69687 13.4682H21.2989C21.8512 13.4682 22.2989 13.9159 22.2989 14.4682V20.8047C22.2989 21.357 21.8512 21.8047 21.2989 21.8047H2.69687C2.14458 21.8047 1.69687 21.357 1.69687 20.8047V14.4682ZM3.71594 15.2579C4.04213 14.9661 4.54314 14.9939 4.83499 15.3201L5.84406 16.4479L6.85313 15.3201C7.14498 14.9939 7.64599 14.9661 7.97218 15.2579C8.29836 15.5498 8.3262 16.0508 8.03435 16.377L6.90748 17.6364L8.03435 18.8958C8.3262 19.222 8.29836 19.723 7.97218 20.0149C7.64599 20.3067 7.14498 20.2789 6.85313 19.9527L5.84406 18.8249L4.83499 19.9527C4.54314 20.2789 4.04213 20.3067 3.71594 20.0149C3.38976 19.723 3.36192 19.222 3.65377 18.8958L4.78064 17.6364L3.65377 16.377C3.36192 16.0508 3.38976 15.5498 3.71594 15.2579ZM10.984 15.3201C10.6921 14.9939 10.1911 14.9661 9.86493 15.2579C9.53874 15.5498 9.51091 16.0508 9.80276 16.377L10.9296 17.6364L9.80276 18.8958C9.51091 19.222 9.53874 19.723 9.86493 20.0149C10.1911 20.3067 10.6921 20.2789 10.984 19.9527L11.993 18.8249L13.0021 19.9527C13.294 20.2789 13.795 20.3067 14.1212 20.0149C14.4473 19.723 14.4752 19.222 14.1833 18.8958L13.0565 17.6364L14.1833 16.377C14.4752 16.0508 14.4473 15.5498 14.1212 15.2579C13.795 14.9661 13.294 14.9939 13.0021 15.3201L11.993 16.4479L10.984 15.3201ZM16.0113 15.2579C16.3375 14.9661 16.8385 14.9939 17.1304 15.3201L18.1394 16.4479L19.1485 15.3201C19.4404 14.9939 19.9414 14.9661 20.2675 15.2579C20.5937 15.5498 20.6216 16.0508 20.3297 16.377L19.2029 17.6364L20.3297 18.8958C20.6216 19.222 20.5937 19.723 20.2675 20.0149C19.9414 20.3067 19.4404 20.2789 19.1485 19.9527L18.1394 18.8249L17.1304 19.9527C16.8385 20.2789 16.3375 20.3067 16.0113 20.0149C15.6851 19.723 15.6573 19.222 15.9491 18.8958L17.076 17.6364L15.9491 16.377C15.6573 16.0508 15.6851 15.5498 16.0113 15.2579Z" fill="#F47322"/>
</svg>
