<svg width="40" height="40" viewBox="0 0 40 40" fill="none" xmlns="http://www.w3.org/2000/svg">
<g clip-path="url(#clip0)">
<path d="M29.4962 20.5517V12.4741H31.9637V10.1304H29.4962V6.52094H31.9637V4.17719H12.5343V0H4.43509V4.17719H1.96759V6.52094H4.43509V10.1304H1.96759V12.4741H4.43509V32.2275H1.96759V34.5713H4.43509V37.6562H1.96759V40H28.2699C33.653 40 38.0325 35.6205 38.0325 30.2375C38.0324 25.2697 34.3026 21.1568 29.4962 20.5517ZM6.77884 2.34375H10.1906V4.17719H6.77884V2.34375ZM6.77884 6.52094H27.1524V10.1304H6.77884V6.52094ZM6.77884 12.4741H27.1524V20.5393C22.2938 21.0955 18.5074 25.2323 18.5074 30.2375C18.5074 30.9192 18.5779 31.5848 18.7115 32.2275H6.77884V12.4741ZM6.77884 37.6562V34.5713H19.5238C20.1131 35.7557 20.9358 36.8042 21.9317 37.6562H6.77884ZM28.2699 37.6562C24.1792 37.6562 20.851 34.3282 20.851 30.2375C20.851 26.1468 24.1792 22.8187 28.2699 22.8187C32.3606 22.8187 35.6887 26.1468 35.6887 30.2375C35.6887 34.3282 32.3606 37.6562 28.2699 37.6562Z" fill="#FFCF00"/>
<path d="M29.9904 29.8701C29.6483 29.7488 29.2286 29.6416 28.7312 29.5483C28.3455 29.4737 28.069 29.4037 27.9011 29.3384C27.7333 29.2731 27.6492 29.1752 27.6492 29.0446C27.6492 28.7711 27.9321 28.6342 28.4979 28.6342C29.07 28.6342 29.6763 28.7959 30.3168 29.1192L30.979 27.5242C30.4629 27.232 29.8318 27.0517 29.0856 26.9833V25.9852H27.7705V27.0019C27.0304 27.1077 26.4631 27.3564 26.0683 27.7481C25.6733 28.1399 25.476 28.6094 25.476 29.1566C25.476 29.6292 25.6004 30.0039 25.849 30.2805C26.0977 30.5572 26.3901 30.7562 26.7258 30.8774C27.0616 30.9987 27.4814 31.1122 27.985 31.2178C28.3768 31.2987 28.658 31.3734 28.8291 31.4417C29.0001 31.5101 29.0856 31.6128 29.0856 31.7494C29.0856 31.8677 29.0204 31.9562 28.8897 32.0153C28.7592 32.0744 28.5415 32.1039 28.2369 32.1039C27.8825 32.1039 27.5125 32.0495 27.1269 31.9407C26.7413 31.8319 26.3931 31.6874 26.0823 31.5069L25.3734 33.1112C25.6533 33.2854 26.0061 33.4316 26.4321 33.5496C26.8579 33.6677 27.3042 33.7392 27.7706 33.7641V34.7528H29.0857V33.7175C29.782 33.5932 30.3183 33.3366 30.6947 32.948C31.0708 32.5594 31.259 32.1038 31.259 31.5815C31.259 31.109 31.1331 30.7359 30.8812 30.4622C30.6293 30.1888 30.3322 29.9914 29.9904 29.8701Z" fill="#FFCF00"/>
</g>
<defs>
<clipPath id="clip0">
<rect width="40" height="40" fill="white"/>
</clipPath>
</defs>
</svg>
