<svg width="24" height="24" viewBox="0 0 24 24" fill="none" xmlns="http://www.w3.org/2000/svg">
<path fill-rule="evenodd" clip-rule="evenodd" d="M12.5421 19.2902C16.5683 19.2902 19.8322 16.0263 19.8322 12.0001C19.8322 7.97385 16.5683 4.70994 12.5421 4.70994C8.51586 4.70994 5.25195 7.97385 5.25195 12.0001C5.25195 16.0263 8.51586 19.2902 12.5421 19.2902ZM11.4977 10.9854C11.8378 11.2328 12.2398 11.3667 12.6521 11.3667C13.0643 11.3667 13.4663 11.2327 13.8064 10.9854C14.3115 10.6246 14.6104 10.0268 14.6104 9.40841C14.6104 8.32617 13.7343 7.4501 12.6521 7.4501C11.5698 7.4501 10.6938 8.32622 10.6938 9.40841C10.6937 10.0268 10.9926 10.6246 11.4976 10.9854H11.4977ZM16.8147 14.8304C16.7838 14.6655 16.7528 14.5005 16.7013 14.346C16.3405 13.1194 15.4541 12.13 14.2895 11.6146C14.2173 11.6868 14.1349 11.7589 14.0421 11.8208C13.6298 12.1196 13.1557 12.2743 12.6506 12.2743C12.1455 12.2743 11.6611 12.1197 11.2591 11.8208C11.1458 11.7383 11.0427 11.6456 10.9499 11.5528C9.3936 12.1713 8.31135 13.6657 8.2289 15.3664C8.21869 15.4694 8.25988 15.5725 8.33207 15.655C8.40425 15.7374 8.51756 15.7786 8.62066 15.7786H16.4642C16.5776 15.7786 16.6807 15.7374 16.7528 15.655C16.825 15.5725 16.8662 15.4695 16.8662 15.3561C16.8662 15.3045 16.8662 15.253 16.8559 15.2118C16.8558 15.0881 16.8353 14.9541 16.8147 14.8304Z" fill="#F47322"/>
<path fill-rule="evenodd" clip-rule="evenodd" d="M12.5423 21.1116C17.5745 21.1116 21.6539 17.0322 21.6539 12C21.6539 6.96781 17.5745 2.88842 12.5423 2.88842C7.51012 2.88842 3.43073 6.96781 3.43073 12C3.43073 17.0322 7.51012 21.1116 12.5423 21.1116ZM12.5423 22.4466C18.3118 22.4466 22.9889 17.7695 22.9889 12C22.9889 6.2305 18.3118 1.55339 12.5423 1.55339C6.77281 1.55339 2.0957 6.2305 2.0957 12C2.0957 17.7695 6.77281 22.4466 12.5423 22.4466Z" fill="#F47322"/>
</svg>
