<svg width="24" height="24" viewBox="0 0 24 24" fill="none" xmlns="http://www.w3.org/2000/svg">
<path fill-rule="evenodd" clip-rule="evenodd" d="M6.35938 16.8004C6.35938 13.6222 8.93952 11.0421 12.1178 11.0421C15.296 11.0421 17.8761 13.6222 17.8761 16.8004C17.8761 19.9787 15.296 22.5588 12.1178 22.5588C8.93952 22.5588 6.35938 19.9787 6.35938 16.8004ZM11.5557 13.0783H11.3278C10.1448 13.0783 9.1856 14.0375 9.1856 15.2203C9.1856 16.4033 10.1448 17.3625 11.3278 17.3625H12.9078C13.4701 17.3625 13.9259 17.8182 13.9259 18.3806C13.9259 18.9429 13.4701 19.3987 12.9078 19.3987H11.3278C10.7654 19.3987 10.3097 18.9429 10.3097 18.3806C10.3097 18.0703 10.0579 17.8186 9.74762 17.8186C9.43732 17.8186 9.1856 18.0703 9.1856 18.3806C9.1856 19.5634 10.1448 20.5226 11.3278 20.5226H11.5557V20.7507C11.5557 21.0609 11.8075 21.3126 12.1178 21.3126C12.428 21.3126 12.6798 21.0609 12.6798 20.7507V20.5226H12.9078C14.0907 20.5226 15.0499 19.5634 15.0499 18.3806C15.0499 17.1976 14.0907 16.2384 12.9078 16.2384H11.3278C10.7654 16.2384 10.3097 15.7827 10.3097 15.2203C10.3097 14.6579 10.7654 14.2022 11.3278 14.2022H12.9078C13.4701 14.2022 13.9259 14.6579 13.9259 15.2203C13.9259 15.5306 14.1776 15.7823 14.4879 15.7823C14.7982 15.7823 15.0499 15.5306 15.0499 15.2203C15.0499 14.0375 14.0907 13.0783 12.9078 13.0783H12.6798V12.8502C12.6798 12.54 12.428 12.2883 12.1178 12.2883C11.8075 12.2883 11.5557 12.54 11.5557 12.8502V13.0783Z" fill="#F47322"/>
<path fill-rule="evenodd" clip-rule="evenodd" d="M8.08296 4.14439C7.46568 3.91677 7.29678 3.43275 7.38522 3.0304C7.47786 2.60891 7.90484 2.10119 8.86804 2.10119C9.70813 2.10119 10.2541 2.51678 10.6488 3.0969C10.8719 3.42491 11.0366 3.79363 11.16 4.14438L8.08296 4.14439ZM12.9822 4.14438L15.9679 4.14439C16.3512 4.11164 16.5728 3.96119 16.6972 3.80265C16.8309 3.63223 16.8947 3.3982 16.8623 3.14555C16.8019 2.6739 16.3855 2.10125 15.3858 2.10119C14.6328 2.10114 14.0356 2.52795 13.559 3.15933C13.3204 3.47548 13.1291 3.8224 12.9822 4.14438ZM12.1005 2.97682C12.2201 2.77057 12.3547 2.56375 12.5054 2.36409C13.1165 1.55453 14.0594 0.781107 15.3859 0.781189C17.0099 0.781289 18.0218 1.80866 18.1716 2.97776C18.2444 3.5455 18.1088 4.14204 17.7357 4.61749C17.3557 5.10183 16.7692 5.40986 16.0415 5.46266L16.0177 5.46439L7.87539 5.46439L7.78014 5.43494C6.44963 5.02358 5.85314 3.85191 6.09599 2.74703C6.33867 1.64297 7.36765 0.78119 8.86804 0.781189C10.2581 0.781188 11.1709 1.51769 11.7402 2.35441C11.8778 2.55671 11.997 2.76686 12.1005 2.97682Z" fill="#F47322"/>
<rect x="1.79102" y="4.25134" width="20.4183" height="4.02233" rx="1" fill="#F47322"/>
<path fill-rule="evenodd" clip-rule="evenodd" d="M2.84961 8.23476C2.84961 7.17437 3.70922 6.31476 4.76961 6.31476H19.463C20.5234 6.31476 21.383 7.17437 21.383 8.23476V18.288C21.383 19.3483 20.5234 20.208 19.463 20.208H19.307C18.9093 20.208 18.587 19.8856 18.587 19.488C18.587 19.0903 18.9093 18.768 19.307 18.768H19.463C19.7281 18.768 19.943 18.5531 19.943 18.288V8.23476C19.943 7.96966 19.7281 7.75476 19.463 7.75476H4.76961C4.50451 7.75476 4.28961 7.96966 4.28961 8.23476V18.288C4.28961 18.5531 4.50451 18.768 4.76961 18.768H4.92452C5.32217 18.768 5.64452 19.0903 5.64452 19.488C5.64452 19.8856 5.32217 20.208 4.92452 20.208H4.76961C3.70922 20.208 2.84961 19.3483 2.84961 18.288V8.23476Z" fill="#F47322"/>
</svg>
