<svg width="24" height="24" viewBox="0 0 24 24" fill="none" xmlns="http://www.w3.org/2000/svg">
    <path d="M19.9951 10.5676H4.00781C4.00781 9.36857 4.98885 9.07306 6.1879 9.07306H17.815C19.0141 9.07306 19.9951 9.36857 19.9951 10.5676Z"
          fill="#F47322"/>
    <path d="M19.9951 20.6585C19.9951 21.8575 19.0141 22.0182 17.815 22.0182H6.1879C4.98885 22.0182 4.00781 21.8575 4.00781 20.6585H19.9951Z"
          fill="#F47322"/>
    <path fill-rule="evenodd" clip-rule="evenodd"
          d="M8.01591 9.2712C8.01592 9.27098 8.01592 9.27074 7.27163 9.2531C6.52733 9.23546 6.52734 9.23517 6.52734 9.23485L6.52741 9.23216L6.52757 9.22653L6.52816 9.20843C6.5287 9.19336 6.52953 9.17235 6.53081 9.14579C6.53335 9.09269 6.53766 9.01732 6.54481 8.92283C6.55911 8.73407 6.58487 8.46787 6.63103 8.1498C6.7228 7.51738 6.89777 6.66176 7.23371 5.79658C7.90156 4.07665 9.29787 2.13736 12.0699 2.14836C13.4649 2.1539 14.5417 2.61888 15.3459 3.34077C16.1348 4.04891 16.6217 4.96756 16.9258 5.83362C17.2308 6.70243 17.3661 7.55929 17.4266 8.1911C17.457 8.50904 17.4689 8.77506 17.4732 8.96374C17.4754 9.05819 17.4756 9.13358 17.4752 9.18678C17.4751 9.21339 17.4747 9.23447 17.4744 9.24963L17.474 9.2679L17.4739 9.27363L17.4738 9.27562C17.4738 9.27595 17.4738 9.27703 16.7296 9.2531C15.9855 9.22916 15.9855 9.22942 15.9855 9.22965L15.9857 9.22018L15.9863 9.17698C15.9865 9.13728 15.9864 9.07643 15.9846 8.99746C15.981 8.83929 15.9708 8.60977 15.9443 8.33296C15.891 7.77524 15.7732 7.04566 15.5208 6.32683C15.2675 5.60525 14.8929 4.93504 14.3513 4.44883C13.8249 3.97637 13.1022 3.64148 12.064 3.63736C10.1919 3.62993 9.19053 4.87075 8.62175 6.33555C8.33939 7.06274 8.1863 7.80063 8.1046 8.36364C8.06402 8.64328 8.04169 8.87527 8.02957 9.03527C8.02352 9.11516 8.02004 9.17681 8.01811 9.21714L8.01624 9.26117L8.01591 9.2712Z"
          fill="#F47322"/>
    <path d="M20.7222 11.9799H3.28151C2.48215 11.9799 1.82812 12.6339 1.82812 13.4332V17.7934C1.82812 18.5928 2.48215 19.2468 3.28151 19.2468H20.7222C21.5216 19.2468 22.1756 18.5928 22.1756 17.7934V13.4332C22.1756 12.6339 21.5216 11.9799 20.7222 11.9799ZM5.4616 17.0667C4.66223 17.0667 4.00821 16.4127 4.00821 15.6133C4.00821 14.814 4.66223 14.1599 5.4616 14.1599C6.26096 14.1599 6.91499 14.814 6.91499 15.6133C6.91499 16.4127 6.26096 17.0667 5.4616 17.0667ZM9.82177 17.0667C9.0224 17.0667 8.36838 16.4127 8.36838 15.6133C8.36838 14.814 9.0224 14.1599 9.82177 14.1599C10.6211 14.1599 11.2752 14.814 11.2752 15.6133C11.2752 16.4127 10.6211 17.0667 9.82177 17.0667ZM14.1819 17.0667C13.3826 17.0667 12.7285 16.4127 12.7285 15.6133C12.7285 14.814 13.3826 14.1599 14.1819 14.1599C14.9813 14.1599 15.6353 14.814 15.6353 15.6133C15.6353 16.4127 14.9813 17.0667 14.1819 17.0667ZM18.5421 17.0667C17.7427 17.0667 17.0887 16.4127 17.0887 15.6133C17.0887 14.814 17.7427 14.1599 18.5421 14.1599C19.3415 14.1599 19.9955 14.814 19.9955 15.6133C19.9955 16.4127 19.3415 17.0667 18.5421 17.0667Z"
          fill="#F47322"/>
    <rect x="4.00391" y="10.5677" width="1.53263" height="1.41221" fill="#F47322"/>
    <rect x="18.4609" y="10.5677" width="1.53263" height="1.41221" fill="#F47322"/>
    <rect x="18.4609" y="19.2462" width="1.53263" height="1.41221" fill="#F47322"/>
    <rect x="4.00781" y="19.2462" width="1.53263" height="1.41221" fill="#F47322"/>
</svg>
