<svg width="31" height="30" viewBox="0 0 31 30" fill="none" xmlns="http://www.w3.org/2000/svg">
    <path
        d="M20.5337 9.41428H27.908L19.069 0.514893V7.93959C19.069 8.75281 19.7262 9.41428 20.5337 9.41428Z"
        fill="#FFCF00" />
    <path
        d="M20.5336 11.172C18.7634 11.172 17.323 9.72176 17.323 7.93945V0H6.5085C4.73805 0 3.29791 1.44997 3.29791 3.2325V26.7675C3.29791 28.55 4.73805 30 6.5085 30H25.2089C26.9791 30 28.4195 28.55 28.4195 26.7675V11.172H20.5336ZM11.1835 5.411C12.9538 5.411 14.3941 6.86096 14.3941 8.64349C14.3941 10.4258 12.9538 11.8758 11.1835 11.8758C9.41332 11.8758 7.97318 10.4258 7.97318 8.64349C7.97318 6.86096 9.41332 5.411 11.1835 5.411ZM26.6734 26.7675C26.6734 27.5807 26.0164 28.2422 25.2087 28.2422H6.5085C5.70079 28.2422 5.04381 27.5807 5.04381 26.7675V19.2348L9.16394 15.0865C9.32762 14.9217 9.54949 14.829 9.78114 14.829C10.0126 14.829 10.2347 14.9217 10.3983 15.0865L14.4562 19.1721L19.9164 13.6745C20.0801 13.5098 20.3022 13.4171 20.5336 13.4171C20.7653 13.4171 20.9874 13.5098 21.1511 13.6745L26.6734 19.2348V26.7675Z"
        fill="#FFCF00" />
</svg>
