<svg width="40" height="40" viewBox="0 0 40 40" fill="none" xmlns="http://www.w3.org/2000/svg">
<g clip-path="url(#clip0)">
<path d="M10.4167 32.5001C7.74833 32.5001 5.375 30.7917 4.51333 28.2484L4.455 28.0567C4.25166 27.3834 4.16666 26.8167 4.16666 26.2501V14.8867L0.123329 28.3834C-0.396671 30.3684 0.788329 32.4267 2.77666 32.9751L28.5483 39.8767C28.87 39.9601 29.1917 40.0001 29.5083 40.0001C31.1683 40.0001 32.685 38.8984 33.11 37.2751L34.6117 32.5001H10.4167Z" fill="#FFCF00"/>
<path d="M15.0001 14.9999C16.8384 14.9999 18.3334 13.5049 18.3334 11.6666C18.3334 9.82825 16.8384 8.33325 15.0001 8.33325C13.1617 8.33325 11.6667 9.82825 11.6667 11.6666C11.6667 13.5049 13.1617 14.9999 15.0001 14.9999Z" fill="#FFCF00"/>
<path d="M35.8334 3.33325H10.8334C8.53675 3.33325 6.66675 5.20325 6.66675 7.49992V25.8333C6.66675 28.1299 8.53675 29.9999 10.8334 29.9999H35.8334C38.1301 29.9999 40.0001 28.1299 40.0001 25.8333V7.49992C40.0001 5.20325 38.1301 3.33325 35.8334 3.33325ZM10.8334 6.66659H35.8334C36.2934 6.66659 36.6667 7.03992 36.6667 7.49992V19.3316L31.4017 13.1883C30.8434 12.5333 30.0351 12.1833 29.1667 12.1633C28.3034 12.1683 27.4934 12.5516 26.9401 13.2149L20.7501 20.6449L18.7334 18.6333C17.5934 17.4933 15.7384 17.4933 14.6001 18.6333L10.0001 23.2316V7.49992C10.0001 7.03992 10.3734 6.66659 10.8334 6.66659Z" fill="#FFCF00"/>
</g>
<defs>
<clipPath id="clip0">
<rect width="40" height="40" fill="white"/>
</clipPath>
</defs>
</svg>
