<svg width="28" height="28" viewBox="0 0 28 28" fill="none" xmlns="http://www.w3.org/2000/svg">
<g clip-path="url(#clip0)">
<path d="M27.1242 13.1255H16.0411C15.5581 13.1255 15.1661 12.7335 15.1661 12.2505C15.1661 11.7675 15.5581 11.3755 16.0411 11.3755H27.1242C27.6072 11.3755 27.9991 11.7675 27.9991 12.2505C27.9991 12.7335 27.6072 13.1255 27.1242 13.1255Z" fill="#FFCF00"/>
<path d="M22.7493 17.5003C22.5252 17.5003 22.3013 17.4151 22.1309 17.2438C21.7891 16.9018 21.7891 16.3476 22.1309 16.0059L25.8875 12.2494L22.1309 8.49276C21.7891 8.15097 21.7891 7.59685 22.1309 7.25507C22.4729 6.91307 23.027 6.91307 23.3688 7.25507L27.7436 11.6299C28.0854 11.9717 28.0854 12.5258 27.7436 12.8676L23.3688 17.2425C23.1972 17.4151 22.9734 17.5003 22.7493 17.5003Z" fill="#FFCF00"/>
<path d="M9.33311 28.0002C9.0834 28.0002 8.8465 27.9652 8.60981 27.8917L1.58888 25.5526C0.633586 25.219 0 24.3288 0 23.3338V2.33446C0 1.04764 1.04651 0.00112915 2.33333 0.00112915C2.58284 0.00112915 2.81974 0.0361623 3.05664 0.109646L10.0774 2.44875C11.0329 2.78241 11.6662 3.67255 11.6662 4.66758V25.6669C11.6662 26.9537 10.6199 28.0002 9.33311 28.0002ZM2.33333 1.75107C2.01248 1.75107 1.74995 2.01361 1.74995 2.33446V23.3338C1.74995 23.5822 1.91678 23.8132 2.15475 23.896L9.14278 26.2247C9.19298 26.2409 9.25835 26.2503 9.33311 26.2503C9.65396 26.2503 9.91629 25.9878 9.91629 25.6669V4.66758C9.91629 4.41914 9.74945 4.18822 9.51148 4.10534L2.52345 1.77671C2.47325 1.76047 2.40788 1.75107 2.33333 1.75107Z" fill="#FFCF00"/>
<path d="M17.7911 9.33404C17.3081 9.33404 16.9161 8.94205 16.9161 8.45906V3.20923C16.9161 2.40539 16.2618 1.75087 15.4579 1.75087H2.33335C1.85036 1.75087 1.45837 1.35888 1.45837 0.875896C1.45837 0.392909 1.85036 0.000923157 2.33335 0.000923157H15.4579C17.2277 0.000923157 18.666 1.43942 18.666 3.20923V8.45906C18.666 8.94205 18.274 9.33404 17.7911 9.33404Z" fill="#FFCF00"/>
<path d="M15.4579 24.5001H10.7912C10.3082 24.5001 9.91626 24.1081 9.91626 23.6251C9.91626 23.1421 10.3082 22.7502 10.7912 22.7502H15.4579C16.2617 22.7502 16.916 22.0956 16.916 21.2918V16.042C16.916 15.559 17.308 15.167 17.791 15.167C18.274 15.167 18.666 15.559 18.666 16.042V21.2918C18.666 23.0616 17.2277 24.5001 15.4579 24.5001Z" fill="#FFCF00"/>
</g>
<defs>
<clipPath id="clip0">
<rect width="28" height="28" fill="white"/>
</clipPath>
</defs>
</svg>
