<svg width="267" height="105" viewBox="0 0 267 105" fill="none" xmlns="http://www.w3.org/2000/svg">
    <path fill-rule="evenodd" clip-rule="evenodd"
          d="M13.9055 0.473877H65.2174L61.0531 14.8271H9.74124L13.9055 0.473877ZM22.0572 35.9227H55.4848L51.9349 48.8209H0.623047L4.17421 35.9227L8.52717 19.0958L47.2714 19.0476L44.071 30.879H22.7345L21.4736 35.9227H22.0559H22.0572Z"
          fill="#FEFEFE"/>
    <path d="M52.2957 49.2947H0L3.71715 35.7954L8.16113 18.6205H8.52789L47.8933 18.571L44.4358 31.3528H23.106L22.082 35.4474H56.1066L52.2957 49.2947ZM1.24485 48.347H51.5729L54.8617 36.3965H22.0566V35.5492L21.9348 36.0377L21.0139 35.8075L22.3645 30.4051H43.7076L46.6511 19.5227L8.89331 19.5696L4.63138 36.0404L1.24351 48.3457L1.24485 48.347ZM61.4086 15.3023H9.10882L13.5488 0H65.8485L61.4086 15.3023ZM10.3724 14.3532H60.6965L64.5863 0.947686H14.2609L10.3711 14.3532H10.3724Z"
          fill="#2B2A29"/>
    <path fill-rule="evenodd" clip-rule="evenodd"
          d="M70.3562 48.8207H60.0762L68.4167 17.9792H96.7363C101.23 18.1091 103.105 18.1412 101.78 23.6038L97.9009 41.0612L87.6208 40.8671L91.4999 25.7375H76.3703L70.3576 48.8194L70.3562 48.8207Z"
          fill="#FEFEFE"/>
    <path d="M70.3568 49.2959H59.457L68.0545 17.5067H96.8025C99.4595 17.5843 101.216 17.6352 102.113 18.8105C102.814 19.7301 102.853 21.1971 102.241 23.7189L98.2789 41.5457L87.011 41.3329L90.8875 26.214H76.735L70.8293 48.8823V49.2959H70.3555H70.3568ZM60.6965 48.3469H69.9901L76.0028 25.2649H92.1096L88.2278 40.4066L97.5213 40.5819L101.316 23.5034C101.841 21.3403 101.853 20.0352 101.358 19.386C100.735 18.5709 99.074 18.524 96.7744 18.4571H96.7289H68.78L60.6952 48.3495L60.6965 48.3469Z"
          fill="#2B2A29"/>
    <path fill-rule="evenodd" clip-rule="evenodd"
          d="M141.348 40.4802L139.408 48.8207H109.537C105.108 48.6909 102.812 46.2347 103.524 42.0316L107.404 25.5447C108.632 21.8597 110.346 18.2711 116.326 17.9806H137.469C143.029 18.2068 145.971 20.9549 144.839 25.3506L142.123 36.988H118.847L120.98 29.6179H134.947L136.11 25.3506H118.072L113.999 40.4802H141.348Z"
          fill="#FEFEFE"/>
    <path d="M139.786 49.2959H109.524C107.099 49.225 105.225 48.4673 104.109 47.1047C103.066 45.8344 102.703 44.0528 103.058 41.954L103.063 41.9245L106.948 25.4162L106.954 25.3961C108.174 21.7406 110.001 17.8146 116.304 17.5081H116.327H137.489C140.802 17.6432 143.242 18.6391 144.542 20.39C145.546 21.7405 145.807 23.4967 145.3 25.4711L142.501 37.4658H118.217L120.625 29.1467H134.585L135.49 25.8285H118.435L114.618 40.0091H140.971L141.117 39.384L142.297 40.9581H141.725L139.785 49.2986L139.786 49.2959ZM109.546 48.3469H139.034L140.753 40.9554H113.382L117.711 24.8768H136.734L135.312 30.0931H121.34L119.481 36.5154H141.749L144.379 25.2435C144.822 23.5222 144.62 22.0819 143.782 20.9535C142.659 19.4423 140.473 18.5789 137.461 18.4544H116.34C110.651 18.7355 109.08 22.027 107.863 25.6745L103.992 42.1266C103.683 43.9658 103.969 45.4382 104.844 46.5024C105.78 47.6455 107.407 48.2826 109.547 48.3469H109.546Z"
          fill="#2B2A29"/>
    <path fill-rule="evenodd" clip-rule="evenodd"
          d="M155.009 48.9184H144.729L153.069 18.0769H172.175C176.669 18.2067 179.319 18.2389 177.994 23.7015L177.267 28.3088L167.23 28.2606L167.738 25.8365H161.023L155.01 48.9184H155.009Z"
          fill="#FEFEFE"/>
    <path d="M155.009 49.3924H144.109L152.707 17.6033L172.295 17.606C175.006 17.6836 177.147 17.7452 178.183 19.1038C178.914 20.0608 179.001 21.552 178.459 23.7954L177.672 28.7855L166.645 28.732L167.154 26.3105H161.389L155.403 49.2867L155.085 49.3924H155.008H155.009ZM145.349 48.4447H154.644L160.657 25.3628H168.324L167.814 27.7896L176.862 27.8338L177.533 23.5919C178 21.6644 177.967 20.3848 177.43 19.6807C176.668 18.6821 174.726 18.6259 172.268 18.5563L172.169 18.5536H153.434L145.349 48.4461V48.4447Z"
          fill="#2B2A29"/>
    <path fill-rule="evenodd" clip-rule="evenodd"
          d="M208.336 40.4802L212.457 25.3506H194.903L190.83 40.4802H208.336ZM213.275 59.8691C212.524 62.9585 211.554 65.8538 204.327 65.7908L177.465 65.5553L179.391 58.1852L203.591 58.2294L206.356 48.7873C206.406 48.6173 192.948 48.8221 186.368 48.8221C181.938 48.6922 179.643 46.236 180.355 42.033L184.234 25.5461C185.463 21.861 187.176 18.2724 193.157 17.9819H214.299C219.859 18.2081 222.801 20.9562 221.669 25.352L213.274 59.8704L213.275 59.8691Z"
          fill="#FEFEFE"/>
    <path d="M204.559 66.266C204.481 66.266 204.402 66.266 204.323 66.266L176.854 66.0251L179.026 57.7114L203.236 57.7555L205.739 49.2129C204.177 49.1714 199.437 49.2102 195.185 49.245C192.014 49.2705 188.736 49.2972 186.369 49.2972H186.356C183.93 49.2263 182.056 48.4687 180.939 47.106C179.896 45.8358 179.533 44.0541 179.888 41.9553L179.893 41.9259L183.778 25.4176L183.785 25.3975C185.003 21.7419 186.831 17.8159 193.134 17.5094H193.157H214.319C217.632 17.6446 220.073 18.6405 221.372 20.3913C222.376 21.7419 222.637 23.4981 222.13 25.4724L213.737 59.9842C212.901 63.4216 211.628 66.2687 204.559 66.2687V66.266ZM178.078 65.0854L204.331 65.3157C204.408 65.3157 204.484 65.3157 204.557 65.3157C211.223 65.3157 212.095 62.6827 212.745 60.0404L221.209 25.2382C221.651 23.5208 221.449 22.0819 220.611 20.9535C219.488 19.4423 217.302 18.5789 214.29 18.4544H193.169C187.48 18.7355 185.909 22.027 184.692 25.6745L180.821 42.1266C180.513 43.9658 180.798 45.4382 181.672 46.5037C182.609 47.6468 184.236 48.284 186.376 48.3482C188.738 48.3482 192.011 48.3214 195.177 48.296C198.055 48.2732 200.772 48.2505 202.853 48.2465C206.54 48.2411 206.552 48.2545 206.737 48.4981L206.88 48.6882L206.813 48.9198L203.947 58.7032L179.758 58.659L178.078 65.0854ZM208.698 40.9541H190.211L194.54 24.8754H213.079L208.699 40.9541H208.698ZM191.449 40.0064H207.973L211.836 25.8258H195.267L191.449 40.0064Z"
          fill="#2B2A29"/>
    <path fill-rule="evenodd" clip-rule="evenodd"
          d="M110.301 56.7891L104.191 79.2888H119.514L125.431 56.6914L136.778 56.7891L128.611 87.6801C118.982 87.6279 109.36 87.6293 99.7305 87.6293C95.3013 87.4994 93.0057 85.0432 93.7178 80.8402L100.071 56.7878H110.302L110.301 56.7891Z"
          fill="#EF7F1A"/>
    <path d="M128.641 87.719H128.612C119.397 87.6681 110.033 87.6668 100.976 87.6681H99.7313C97.4343 87.6012 95.6741 86.8984 94.6381 85.6362C93.665 84.4489 93.3424 82.8333 93.681 80.8348L100.042 56.7516H110.353L110.339 56.7998L104.242 79.2527H119.487L125.403 56.6553L136.829 56.753L136.817 56.7998L128.643 87.719H128.641ZM102.22 87.5918C110.879 87.5918 119.799 87.5945 128.584 87.6413L136.73 56.8266L125.461 56.7302L119.544 79.3276H104.142L104.155 79.2794L110.252 56.8266H100.099L93.7547 80.8495C93.4214 82.8225 93.7373 84.4181 94.697 85.5867C95.7183 86.8315 97.4584 87.5235 99.7326 87.5905H100.976C101.39 87.5905 101.805 87.5905 102.22 87.5905V87.5918Z"
          fill="#2B2A29"/>
    <path fill-rule="evenodd" clip-rule="evenodd"
          d="M44.1116 79.3491L48.0697 64.2195L64.9207 64.1954L60.8903 79.3491H44.1116ZM26.5352 104.169L37.4631 104.225L41.7223 87.6387C41.7652 87.4728 54.6902 87.6896 61.2718 87.6896C65.764 87.5598 68.9457 85.3458 70.291 81.1428L74.7912 64.4136C75.3654 60.7286 75.4069 57.14 69.5695 56.8495H39.4869L26.5352 104.17V104.169Z"
          fill="#EF7F1A"/>
    <path d="M37.4932 104.264H37.4638L26.4863 104.207L26.4997 104.159L39.4595 56.8107H69.5702C71.7721 56.9204 73.2646 57.4946 74.1373 58.5668C75.3795 60.0928 75.1466 62.387 74.8293 64.419L70.3278 81.1521C68.9933 85.3217 65.8637 87.5946 61.2739 87.7271C58.8082 87.7271 55.4592 87.6963 52.2199 87.6669C47.2338 87.6214 42.0804 87.5745 41.7551 87.6629L37.4932 104.262V104.264ZM26.5854 104.131L37.4343 104.187L41.6855 87.6294C41.6989 87.5785 41.711 87.533 44.9556 87.5384C46.9019 87.5437 49.4853 87.5665 52.2199 87.5919C55.4592 87.6214 58.8069 87.6521 61.2712 87.6521C65.8249 87.521 68.9304 85.2669 70.2542 81.1321L74.7544 64.4042C75.0676 62.3924 75.3005 60.1169 74.0771 58.615C73.2191 57.5603 71.744 56.9954 69.5662 56.8869H39.5158L26.5854 104.132V104.131ZM60.9191 79.3866H44.111V79.3478L44.0749 79.3384L48.0396 64.1807H48.0691L64.9696 64.1566L64.9575 64.2048L60.9191 79.3866ZM44.1619 79.3103H60.8616L64.8719 64.2329L48.0999 64.257L44.1619 79.3103Z"
          fill="#2B2A29"/>
    <path fill-rule="evenodd" clip-rule="evenodd"
          d="M85.8251 88.221L74.7285 88.1635L87.6187 40.8685L97.8988 41.0626L85.8251 88.221Z" fill="#EF7F1A"/>
    <path d="M85.8539 88.2585H85.8244L74.6797 88.2009L74.6931 88.1527L87.5913 40.8297H87.6208L97.949 41.0251L97.937 41.072L85.8552 88.2585H85.8539ZM74.7787 88.126L85.795 88.1835L97.85 41.1001L87.6475 40.9073L74.7787 88.126Z"
          fill="#2B2A29"/>
    <path fill-rule="evenodd" clip-rule="evenodd"
          d="M157.205 76.4551H146.474C141.943 76.0281 138.366 74.4017 138.527 68.5121C139.361 59.2119 143.166 58.2762 152.022 58.0393L179.39 58.1852L177.464 65.5552L152.12 65.5365C148.783 65.8163 148.956 68.4626 151.129 68.4117C153.155 68.4278 155.18 68.4439 157.206 68.4613L168.152 68.5027C172.683 68.9297 176.259 70.5561 176.099 76.4457C175.293 85.501 173.191 87.1059 163.234 87.6466L133.047 87.6587L135.131 79.8724L163.234 79.9085C166.571 79.6287 165.671 76.4979 163.498 76.5488C161.472 76.5327 159.233 76.4751 157.206 76.4591L157.205 76.4551Z"
          fill="#EF7F1A"/>
    <path d="M132.995 87.6949L135.1 79.8322H135.129L163.232 79.8684C164.888 79.7292 165.437 78.8979 165.396 78.1671C165.355 77.3854 164.619 76.5568 163.496 76.5836C162.481 76.5755 161.397 76.5568 160.349 76.538C159.301 76.5206 158.216 76.5006 157.203 76.4925H146.473C143.832 76.2436 142.004 75.6292 140.716 74.561C139.142 73.2532 138.413 71.2749 138.489 68.5108C139.319 59.2587 143.053 58.2414 152.02 58.0005L179.438 58.1464L179.426 58.1932L177.492 65.5914H177.462L152.118 65.5727C150.322 65.7239 149.545 66.5752 149.584 67.3034C149.612 67.8241 150.087 68.3729 151.063 68.3729C151.083 68.3729 151.105 68.3729 151.126 68.3729L157.204 68.4211L168.148 68.4626C170.789 68.7116 172.618 69.3246 173.906 70.3941C175.48 71.7019 176.209 73.6802 176.133 76.4443C175.762 80.6166 175.128 83.5467 173.12 85.2654C171.167 86.9359 167.889 87.4285 163.233 87.6815L132.994 87.6935L132.995 87.6949ZM135.159 79.9085L133.095 87.6185L163.232 87.6065C169.488 87.2665 171.635 86.4366 173.072 85.2078C175.061 83.5065 175.69 80.5912 176.059 76.4403C176.134 73.7043 175.414 71.7447 173.859 70.453C172.583 69.3942 170.768 68.7852 168.147 68.5389L157.111 68.4974L151.129 68.4492C151.107 68.4492 151.086 68.4492 151.065 68.4492C150.039 68.4492 149.54 67.8629 149.51 67.3088C149.488 66.8965 149.701 66.4909 150.106 66.1697C150.572 65.8016 151.268 65.5686 152.117 65.4977L177.434 65.5165L179.34 58.2227L152.022 58.0768C147.319 58.2026 144.374 58.5319 142.288 59.9093C140.09 61.3589 138.976 63.9329 138.565 68.5161C138.49 71.2521 139.21 73.2118 140.766 74.5035C142.041 75.5622 143.856 76.1713 146.477 76.4176H157.204C158.218 76.4256 159.302 76.4443 160.35 76.4631C161.398 76.4805 162.482 76.5006 163.494 76.5086C163.509 76.5086 163.524 76.5086 163.54 76.5086C164.434 76.5086 165.416 77.1324 165.471 78.1644C165.513 78.9314 164.947 79.8014 163.233 79.946L135.156 79.9112L135.159 79.9085Z"
          fill="#2B2A29"/>
    <path fill-rule="evenodd" clip-rule="evenodd"
          d="M257.006 17.9806H266.219L255.982 59.8705C255.227 62.9585 254.261 65.8551 247.034 65.7922L220.172 65.5566L222.098 58.1866L246.298 58.2307L249.063 48.7886C249.113 48.6186 235.655 48.8234 229.075 48.8234C224.645 48.6936 222.35 46.2374 223.062 42.0343L228.88 17.5951L239.741 17.745L233.535 40.4829H251.04L257.005 17.9833L257.006 17.9806Z"
          fill="#FEFEFE"/>
    <path d="M247.271 66.266C247.19 66.266 247.11 66.266 247.028 66.266L219.559 66.025L221.732 57.7113L245.943 57.7555L248.446 49.2129C246.884 49.1714 242.144 49.2102 237.891 49.245C234.72 49.2705 231.442 49.2972 229.076 49.2972H229.062C226.637 49.2263 224.763 48.4686 223.647 47.106C222.604 45.8357 222.241 44.0541 222.596 41.9553L222.602 41.9245L228.509 17.1158L240.362 17.2791L234.158 40.009H250.677L256.58 17.7383L256.809 17.5094H257.006H266.823L266.68 18.0957L256.442 59.9855C256.042 61.6239 255.572 63.1927 254.25 64.3693C252.795 65.6636 250.573 66.2687 247.272 66.2687L247.271 66.266ZM220.783 65.0854L247.036 65.3156C254.141 65.3745 254.845 62.5194 255.52 59.7566L265.614 18.4544H257.37L251.405 40.9554H232.913L239.121 18.2081L229.252 18.0716L223.525 42.1266C223.217 43.9658 223.502 45.4382 224.376 46.5023C225.313 47.6455 226.939 48.2826 229.08 48.3468C231.442 48.3468 234.715 48.3201 237.881 48.2946C240.759 48.2719 243.476 48.2491 245.557 48.2451C249.244 48.2384 249.256 48.2531 249.44 48.4968L249.584 48.6868L249.517 48.9184L246.651 58.7018L222.462 58.6577L220.782 65.084L220.783 65.0854Z"
          fill="#2B2A29"/>
</svg>
