<svg width="100" height="117" viewBox="0 0 100 117" fill="none" xmlns="http://www.w3.org/2000/svg">
<g clip-path="url(#clip0_2502_6245)">
<path fill-rule="evenodd" clip-rule="evenodd" d="M6.2168 0C14.6039 4.17738 20.2706 7.73788 23.2168 10.682C62.332 7.68058 86.0981 10.6481 94.5152 19.5834C105.472 -8.66178 23.2168 10.682 6.2168 0Z" fill="#EF7F1A"/>
<path fill-rule="evenodd" clip-rule="evenodd" d="M72.2502 43.9988C78.0636 26.3634 70.8111 23.5554 31.7798 23.0484C60.6439 32.1575 28.4411 37.975 42.1195 46.6688C-6.08968 39.5478 55.3554 35.0123 0 10.9359C22.2013 21.1094 135.43 2.67043 72.2502 43.9988Z" fill="#EF7F1A"/>
<path fill-rule="evenodd" clip-rule="evenodd" d="M30.5547 48.7497C32.2043 61.6428 43.1942 71.6067 56.5058 71.6067C70.9564 71.6067 82.6709 59.8647 82.6709 45.3802C82.6709 44.4162 82.619 43.4646 82.518 42.5278C77.9079 46.698 74.6301 48.6045 72.6842 48.2469C63.8064 46.6312 70.2133 39.3617 69.4493 34.4495C69.1763 29.9326 61.67 27.7921 46.9307 28.0275C48.6956 31.386 48.1435 34.872 45.2735 38.487C43.7082 39.9981 43.2004 41.6511 43.7511 43.4464C44.6766 46.6522 54.6628 43.6837 59.3516 49.252C78.762 67.7544 38.8761 76.7853 37.7767 49.9119C37.7767 49.9119 35.3696 49.5246 30.5556 48.7497H30.5547Z" fill="#2B2A29"/>
<path d="M56.5051 71.7757C50.0619 71.7757 43.8608 69.4189 39.0444 65.1398C34.269 60.897 31.1941 55.0843 30.3867 48.7716L30.5406 48.7521L30.5544 48.5811H30.703L30.7059 48.6031L37.9383 49.7672L37.944 49.9051C38.1331 54.5299 39.4731 58.3497 41.9263 61.2589C44.0161 63.737 46.8532 65.4463 50.131 66.2021C52.8824 66.8367 55.7839 66.745 58.3014 65.9448C60.8251 65.1426 62.7582 63.6883 63.7437 61.8495C64.8274 59.8289 65.682 55.5216 59.2336 49.3752L59.2208 49.3618C56.6332 46.2888 52.3842 45.8576 48.9701 45.5115C46.2073 45.2312 44.0251 45.0101 43.5874 43.4937C43.021 41.6468 43.5455 39.9232 45.147 38.3733C46.5527 36.6004 47.4025 34.8381 47.6721 33.135C47.9412 31.4366 47.6411 29.7449 46.7799 28.1067L46.6517 27.8632L46.9266 27.8589C54.2781 27.7415 59.9081 28.2242 63.6599 29.2942C65.551 29.8337 67.0105 30.5351 67.9966 31.3793C68.9984 32.2369 69.5433 33.2634 69.6162 34.4318C69.8648 36.0475 69.358 37.9073 68.8683 39.7059C68.2229 42.0746 67.6136 44.3116 68.6306 45.9297C69.3032 46.9997 70.6389 47.7031 72.7134 48.0807C74.596 48.4269 77.8561 46.5165 82.4038 42.4027L82.6492 42.1806L82.6849 42.5101C82.7868 43.4564 82.8388 44.4224 82.8388 45.3806C82.8388 48.944 82.1423 52.4009 80.7695 55.6548C79.4433 58.798 77.5446 61.6208 75.1261 64.0449C72.7077 66.4691 69.8915 68.3722 66.7557 69.7015C63.5089 71.0781 60.0606 71.7757 56.5056 71.7757H56.5051ZM30.7511 48.9526C31.5919 55.0972 34.6105 60.748 39.2683 64.8862C44.0232 69.1109 50.1444 71.4371 56.5051 71.4371C60.0148 71.4371 63.4193 70.7481 66.6237 69.3893C69.7191 68.0767 72.4995 66.1979 74.887 63.8048C77.2745 61.4117 79.1489 58.6252 80.4584 55.5221C81.8141 52.3097 82.501 48.8972 82.501 45.3797C82.501 44.5446 82.461 43.7038 82.3824 42.8758C80.1831 44.8463 78.2677 46.3112 76.6852 47.2313C75.018 48.2006 73.6614 48.5983 72.6525 48.4131C70.4793 48.0177 69.0703 47.2643 68.3443 46.1093C67.2478 44.3655 67.9056 41.951 68.542 39.6161C69.0236 37.849 69.5214 36.0213 69.2808 34.4752L69.2789 34.4595C69.015 30.0983 61.5878 27.9898 47.2019 28.1927C48.0022 29.8209 48.2723 31.5001 48.0046 33.1875C47.725 34.9517 46.8499 36.7699 45.4032 38.592L45.3885 38.6087C44.6301 39.3406 44.1223 40.1146 43.8779 40.9096C43.6355 41.6993 43.6464 42.5359 43.9103 43.3963C44.2852 44.6955 46.3674 44.907 49.0035 45.1739C52.4756 45.5258 56.7961 45.9636 59.4723 49.1355C66.075 55.4333 65.169 59.9043 64.04 62.009C62.3842 65.0973 58.3166 66.9589 53.8046 66.9594C52.5742 66.9594 51.3109 66.8209 50.0539 66.5311C46.7041 65.7591 43.8041 64.011 41.6667 61.4766C39.1887 58.5383 37.8245 54.6966 37.6111 50.057L30.7497 48.9526H30.7511Z" fill="#FEFEFE"/>
<path fill-rule="evenodd" clip-rule="evenodd" d="M9.99246 79.8779H28.2529L26.771 84.9978H8.51053L9.99246 79.8779ZM12.8934 92.5228H24.7894L23.5261 97.1237H5.26562L6.52939 92.5228L8.07848 86.5205L21.8665 86.5033L20.7275 90.7237H13.1345L12.6858 92.5228H12.893H12.8934Z" fill="#FEFEFE"/>
<path d="M23.6555 97.2926H5.04492L6.36775 92.4774L7.94924 86.3509H8.07976L22.0888 86.3333L20.8584 90.8926H13.2677L12.9033 92.3532H25.0117L23.6555 97.2926ZM5.48793 96.9546H23.3983L24.5687 92.6917H12.8942V92.3895L12.8509 92.5638L12.5232 92.4817L13.0038 90.5546H20.5992L21.6467 86.6728L8.2098 86.6895L6.6931 92.5647L5.48745 96.9541L5.48793 96.9546ZM26.8985 85.1673H8.2865L9.86655 79.7089H28.4786L26.8985 85.1673ZM8.73617 84.8288H26.6451L28.0294 80.0469H10.12L8.73569 84.8288H8.73617Z" fill="#2B2A29"/>
<path fill-rule="evenodd" clip-rule="evenodd" d="M30.0822 97.1236H26.4238L29.392 86.1222H39.4701C41.0693 86.1685 41.7366 86.18 41.265 88.1285L39.8846 94.3557L36.2262 94.2865L37.6067 88.8896H32.2225L30.0827 97.1231L30.0822 97.1236Z" fill="#FEFEFE"/>
<path d="M30.0821 97.293H26.2031L29.2627 85.9536H39.4933C40.4389 85.9813 41.0639 85.9995 41.383 86.4187C41.6326 86.7467 41.6464 87.27 41.4287 88.1696L40.0187 94.5285L36.0088 94.4526L37.3883 89.0596H32.3519L30.2502 97.1455V97.293H30.0816H30.0821ZM26.6442 96.9545H29.9515L32.0913 88.721H37.8232L36.4418 94.1222L39.7491 94.1847L41.0996 88.0927C41.2863 87.3211 41.2906 86.8556 41.1144 86.624C40.8929 86.3332 40.3017 86.3165 39.4833 86.2926H39.4671H29.5209L26.6438 96.9555L26.6442 96.9545Z" fill="#2B2A29"/>
<path fill-rule="evenodd" clip-rule="evenodd" d="M55.3476 94.1485L54.6574 97.1236H44.0271C42.4508 97.0773 41.6339 96.2011 41.8873 94.7019L43.2678 88.8209C43.7051 87.5064 44.3148 86.2263 46.4432 86.1227H53.9671C55.9459 86.2034 56.9929 87.1836 56.5899 88.7516L55.6234 92.9028H47.3401L48.0994 90.2738H53.0697L53.4836 88.7516H47.0643L45.6148 94.1485H55.3476Z" fill="#FEFEFE"/>
<path d="M54.7915 97.2931H44.0221C43.1589 97.2678 42.4921 96.9975 42.0948 96.5114C41.7237 96.0583 41.5946 95.4228 41.7208 94.6741L41.7227 94.6636L43.1051 88.775L43.1075 88.7678C43.5415 87.4639 44.1917 86.0634 46.4348 85.9541H46.4429H53.974C55.153 86.0023 56.0214 86.3576 56.4839 86.9821C56.8412 87.4639 56.9341 88.0903 56.7535 88.7946L55.7575 93.0732H47.1155L47.9725 90.1057H52.9403L53.2624 88.9221H47.1932L45.8346 93.9804H55.213L55.2649 93.7574L55.6851 94.3189H55.4812L54.791 97.294L54.7915 97.2931ZM44.0297 96.9545H54.5237L55.1354 94.3179H45.3949L46.9355 88.5826H53.7054L53.199 90.4433H48.2269L47.5652 92.7342H55.4898L56.4258 88.7134C56.5835 88.0994 56.5116 87.5856 56.2134 87.1831C55.8137 86.644 55.0358 86.3361 53.964 86.2917H46.4477C44.4232 86.3919 43.8639 87.566 43.4309 88.8671L42.0533 94.7357C41.9433 95.3918 42.0452 95.917 42.3563 96.2966C42.6897 96.7043 43.2685 96.9316 44.0302 96.9545H44.0297Z" fill="#2B2A29"/>
<path fill-rule="evenodd" clip-rule="evenodd" d="M60.2092 97.1584H56.5508L59.5189 86.157H66.3184C67.9175 86.2033 68.8607 86.2148 68.3891 88.1633L68.1304 89.8068L64.5582 89.7896L64.7393 88.9249H62.3494L60.2096 97.1584H60.2092Z" fill="#FEFEFE"/>
<path d="M60.209 97.3275H56.3301L59.3897 85.988L66.3606 85.989C67.3252 86.0167 68.0874 86.0386 68.4561 86.5233C68.7162 86.8647 68.7471 87.3966 68.5542 88.1968L68.2741 89.9768L64.3499 89.9577L64.531 89.094H62.4793L60.3491 97.2897L60.2362 97.3275H60.2085H60.209ZM56.7712 96.9894H60.079L62.2187 88.7559H64.9473L64.7658 89.6216L67.9859 89.6373L68.2246 88.1242C68.3908 87.4367 68.3789 86.9802 68.1879 86.7291C67.9169 86.3729 67.2257 86.3528 66.3511 86.328L66.3158 86.327H59.6483L56.7712 96.9899V96.9894Z" fill="#2B2A29"/>
<path fill-rule="evenodd" clip-rule="evenodd" d="M79.1873 94.1485L80.654 88.7516H74.4071L72.9575 94.1485H79.1873ZM80.945 101.065C80.6778 102.167 80.3324 103.199 77.7606 103.177L68.2012 103.093L68.8866 100.464L77.4986 100.48L78.4827 97.1117C78.5004 97.051 73.7111 97.1241 71.3694 97.1241C69.7931 97.0778 68.9762 96.2016 69.2296 94.7023L70.6101 88.8214C71.0474 87.5069 71.6571 86.2268 73.7854 86.1232H81.3094C83.2882 86.2039 84.3352 87.1841 83.9322 88.7521L80.9445 101.065L80.945 101.065Z" fill="#FEFEFE"/>
<path d="M77.8419 103.346C77.8143 103.346 77.7862 103.346 77.7581 103.346L67.9824 103.26L68.7555 100.295L77.3713 100.311L78.2621 97.2635C77.7062 97.2487 76.0194 97.2625 74.5061 97.2749C73.3776 97.284 72.211 97.2935 71.3688 97.2935H71.364C70.5009 97.2682 69.834 96.998 69.4362 96.5119C69.0652 96.0588 68.9361 95.4233 69.0623 94.6746L69.0642 94.6641L70.4466 88.7755L70.449 88.7683C70.8825 87.4644 71.5331 86.0639 73.7763 85.9546H73.7844H81.3155C82.4945 86.0028 83.3629 86.3581 83.8254 86.9826C84.1827 87.4644 84.2756 88.0908 84.095 88.7951L81.1083 101.106C80.8106 102.332 80.3576 103.347 77.8419 103.347V103.346ZM68.4183 102.925L77.761 103.007C77.7881 103.007 77.8153 103.007 77.8415 103.007C80.2137 103.007 80.5238 102.068 80.7553 101.126L83.7673 88.7115C83.9245 88.0989 83.8526 87.5856 83.5544 87.1831C83.1547 86.6441 82.3768 86.3361 81.305 86.2917H73.7887C71.7642 86.392 71.2049 87.5661 70.7719 88.8672L69.3943 94.7357C69.2848 95.3918 69.3862 95.917 69.6973 96.2971C70.0307 96.7048 70.6095 96.9321 71.3712 96.955C72.2119 96.955 73.3766 96.9455 74.5032 96.9364C75.5274 96.9283 76.4943 96.9202 77.2351 96.9187C78.5469 96.9168 78.5512 96.9216 78.617 97.0085L78.6679 97.0763L78.6441 97.1589L77.6243 100.649L69.0161 100.633L68.4183 102.925ZM79.3148 94.3175H72.7359L74.2765 88.5821H80.8739L79.3153 94.3175H79.3148ZM73.1766 93.9794H79.0571L80.4319 88.9211H74.5351L73.1766 93.9794Z" fill="#2B2A29"/>
<path fill-rule="evenodd" clip-rule="evenodd" d="M44.2967 99.966L42.1221 107.992H47.5754L49.6809 99.9312L53.7189 99.966L50.8127 110.985C47.3858 110.966 43.9618 110.967 40.5349 110.967C38.9587 110.921 38.1417 110.044 38.3951 108.545L40.6559 99.9655H44.2971L44.2967 99.966Z" fill="#EF7F1A"/>
<path d="M50.8236 110.999H50.8132C47.534 110.981 44.2014 110.98 40.9784 110.981H40.5354C39.718 110.957 39.0916 110.706 38.7229 110.256C38.3766 109.832 38.2618 109.256 38.3823 108.543L40.6459 99.9526H44.3153L44.3105 99.9698L42.1407 107.979H47.5659L49.6714 99.9182L53.7375 99.9531L53.7332 99.9698L50.8241 110.999H50.8236ZM41.4209 110.953C44.5025 110.953 47.6769 110.954 50.8032 110.971L53.7022 99.9793L49.6918 99.945L47.5864 108.006H42.105L42.1097 107.988L44.2795 99.9793H40.6664L38.4085 108.548C38.2899 109.252 38.4023 109.821 38.7438 110.238C39.1073 110.682 39.7266 110.929 40.5359 110.953H40.9784C41.1256 110.953 41.2733 110.953 41.4209 110.953V110.953Z" fill="#2B2A29"/>
<path fill-rule="evenodd" clip-rule="evenodd" d="M20.7433 108.013L22.1518 102.616L28.1486 102.608L26.7143 108.013H20.7433ZM14.4883 116.866L18.3772 116.887L19.893 110.97C19.9082 110.911 24.5079 110.988 26.8501 110.988C28.4487 110.942 29.581 110.152 30.0597 108.653L31.6612 102.686C31.8656 101.371 31.8804 100.091 29.803 99.9874H19.0975L14.4883 116.867V116.866Z" fill="#EF7F1A"/>
<path d="M18.3877 116.9H18.3773L14.4707 116.88L14.4755 116.863L19.0875 99.9736H29.803C30.5866 100.013 31.1178 100.218 31.4283 100.6C31.8704 101.144 31.7875 101.963 31.6746 102.688L30.0726 108.656C29.5977 110.144 28.484 110.954 26.8506 111.002C25.9732 111.002 24.7813 110.991 23.6286 110.98C21.8542 110.964 20.0202 110.947 19.9044 110.979L18.3877 116.9V116.9ZM14.506 116.853L18.3668 116.873L19.8797 110.967C19.8844 110.949 19.8887 110.933 21.0434 110.934C21.736 110.936 22.6554 110.944 23.6286 110.954C24.7813 110.964 25.9727 110.975 26.8497 110.975C28.4702 110.928 29.5753 110.124 30.0464 108.649L31.6479 102.682C31.7594 101.965 31.8423 101.153 31.4069 100.617C31.1016 100.241 30.5766 100.04 29.8016 100.001H19.1075L14.506 116.854V116.853ZM26.7244 108.027H20.7428V108.013L20.73 108.009L22.1409 102.603H22.1514L28.1658 102.594L28.1615 102.611L26.7244 108.027ZM20.7609 107.999H26.7039L28.131 102.621L22.1624 102.63L20.7609 107.999Z" fill="#2B2A29"/>
<path fill-rule="evenodd" clip-rule="evenodd" d="M35.5876 111.178L31.6387 111.157L36.2259 94.2869L39.8843 94.3561L35.5876 111.178Z" fill="#EF7F1A"/>
<path d="M35.5977 111.191H35.5872L31.6211 111.171L31.6259 111.154L36.216 94.2731H36.2265L39.902 94.3428L39.8977 94.3595L35.5982 111.191H35.5977ZM31.6563 111.144L35.5767 111.165L39.8667 94.3695L36.236 94.3008L31.6563 111.144Z" fill="#2B2A29"/>
<path fill-rule="evenodd" clip-rule="evenodd" d="M60.9898 106.981H57.1709C55.5584 106.829 54.2856 106.248 54.3428 104.148C54.6395 100.83 55.9938 100.496 59.1453 100.412L68.8848 100.464L68.1994 103.093L59.1801 103.086C57.9926 103.186 58.054 104.13 58.8276 104.112C59.5483 104.118 60.2691 104.123 60.9902 104.129L64.8854 104.144C66.4978 104.297 67.7706 104.877 67.7135 106.978C67.4267 110.208 66.6788 110.78 63.1353 110.973L52.3926 110.977L53.1343 108.2L63.1353 108.213C64.3228 108.113 64.0027 106.996 63.2291 107.014C62.5084 107.009 61.7114 106.988 60.9902 106.982L60.9898 106.981Z" fill="#EF7F1A"/>
<path d="M52.3735 110.99L53.1223 108.186H53.1328L63.1338 108.199C63.7231 108.149 63.9184 107.852 63.9041 107.592C63.8893 107.313 63.6273 107.017 63.2277 107.027C62.8666 107.024 62.4808 107.017 62.1078 107.011C61.7348 107.004 61.3489 106.997 60.9883 106.994H57.1699C56.2301 106.906 55.5794 106.686 55.1211 106.305C54.5609 105.839 54.3013 105.133 54.3285 104.147C54.6238 100.847 55.9528 100.484 59.1439 100.398L68.901 100.45L68.8967 100.467L68.2084 103.106H68.1979L59.1787 103.099C58.5394 103.153 58.2631 103.457 58.277 103.716C58.287 103.902 58.4561 104.098 58.8033 104.098C58.8105 104.098 58.8181 104.098 58.8257 104.098L60.9888 104.115L64.8835 104.13C65.8233 104.219 66.474 104.437 66.9323 104.819C67.4924 105.285 67.7521 105.991 67.7249 106.977C67.593 108.465 67.3672 109.511 66.6526 110.124C65.9576 110.72 64.7911 110.895 63.1343 110.985L52.373 110.99L52.3735 110.99ZM53.1433 108.213L52.4088 110.963L63.1338 110.959C65.3603 110.837 66.1244 110.541 66.6355 110.103C67.3434 109.496 67.5672 108.456 67.6987 106.976C67.7254 106 67.4691 105.301 66.9156 104.84C66.4616 104.462 65.8157 104.245 64.883 104.157L60.9555 104.142L58.8267 104.125C58.819 104.125 58.8114 104.125 58.8038 104.125C58.4389 104.125 58.2612 103.916 58.2508 103.718C58.2427 103.571 58.3184 103.427 58.4627 103.312C58.6285 103.181 58.8762 103.098 59.1782 103.072L68.1879 103.079L68.8662 100.477L59.1444 100.425C57.471 100.47 56.423 100.588 55.6804 101.079C54.8982 101.596 54.5019 102.514 54.3556 104.149C54.3289 105.125 54.5852 105.824 55.1387 106.285C55.5927 106.662 56.2386 106.88 57.1713 106.968H60.9888C61.3494 106.97 61.7353 106.977 62.1082 106.984C62.4812 106.99 62.8671 106.997 63.2272 107C63.2324 107 63.2377 107 63.2434 107C63.5616 107 63.9112 107.223 63.9308 107.591C63.9455 107.864 63.744 108.175 63.1343 108.226L53.1424 108.214L53.1433 108.213Z" fill="#2B2A29"/>
<path fill-rule="evenodd" clip-rule="evenodd" d="M96.5067 86.1226H99.7854L96.1423 101.065C95.8736 102.167 95.5297 103.2 92.9579 103.177L83.3984 103.093L84.0839 100.464L92.6959 100.48L93.68 97.1121C93.6976 97.0514 88.9084 97.1245 86.5667 97.1245C84.9904 97.0782 84.1735 96.202 84.4269 94.7028L86.4976 85.9851L90.3627 86.0386L88.1539 94.1494H94.3836L96.5062 86.1236L96.5067 86.1226Z" fill="#FEFEFE"/>
<path d="M93.0416 103.346C93.013 103.346 92.9844 103.346 92.9554 103.346L83.1797 103.26L83.9533 100.295L92.5691 100.311L93.4598 97.2635C92.9039 97.2487 91.2172 97.2625 89.7038 97.2749C88.5753 97.284 87.4087 97.2935 86.5666 97.2935H86.5618C85.6986 97.2682 85.0317 96.998 84.6345 96.5119C84.2634 96.0588 84.1343 95.4233 84.2605 94.6746L84.2629 94.6636L86.3651 85.8142L90.5831 85.8725L88.3753 93.9804H94.2539L96.3546 86.0362L96.4361 85.9546H96.5061H99.9997L99.9487 86.1637L96.3056 101.106C96.1631 101.691 95.9959 102.25 95.5253 102.67C95.0075 103.132 94.2168 103.347 93.0421 103.347L93.0416 103.346ZM83.6156 102.925L92.9582 103.007C95.4867 103.028 95.7373 102.01 95.9774 101.024L99.5695 86.2917H96.6357L94.5131 94.3179H87.9323L90.1416 86.2038L86.6294 86.1551L84.5911 94.7357C84.4816 95.3918 84.583 95.917 84.8941 96.2966C85.2275 96.7043 85.8063 96.9316 86.568 96.9545C87.4087 96.9545 88.5734 96.945 89.7 96.9359C90.7241 96.9278 91.6911 96.9197 92.4319 96.9182C93.7437 96.9159 93.748 96.9211 93.8138 97.008L93.8647 97.0758L93.8409 97.1584L92.821 100.648L84.2129 100.632L83.6151 102.925L83.6156 102.925Z" fill="#2B2A29"/>
</g>
<defs>
<clipPath id="clip0_2502_6245">
<rect width="100" height="117" fill="white"/>
</clipPath>
</defs>
</svg>
