<svg width="116" height="77" viewBox="0 0 116 77" fill="none" xmlns="http://www.w3.org/2000/svg">
<g clip-path="url(#clip0_2916_7944)">
<path d="M72.9406 53.1666C65.9074 53.1666 60.752 48.2434 60.752 41.5937C60.752 34.9441 65.9074 30.0208 72.9406 30.0208C79.9418 30.0208 85.1292 34.9121 85.1292 41.5937C85.1292 48.2753 79.9418 53.1666 72.9406 53.1666ZM72.9406 48.7549C76.9186 48.7549 79.91 45.8457 79.91 41.5937C79.91 37.3418 76.9186 34.4326 72.9406 34.4326C68.9626 34.4326 65.9711 37.3418 65.9711 41.5937C65.9711 45.8457 68.9626 48.7549 72.9406 48.7549Z" fill="#1A1919"/>
<path d="M89.0037 52.783V30.4044H94.1592V52.783H89.0037Z" fill="#1A1919"/>
<path d="M99.446 52.783V30.4044H104.601V48.5631H115.772V52.783H99.446Z" fill="#1A1919"/>
<path d="M65.0977 59.0276C67.0521 59.0276 68.4769 60.3888 68.4769 62.4307C68.4769 64.4726 67.0521 65.8464 65.0977 65.8464C64.1143 65.8464 63.2569 65.4683 62.7147 64.7121V65.7708H61.5547V56.4185H62.7651V60.0989C63.3199 59.3805 64.1521 59.0276 65.0977 59.0276ZM64.9969 64.7877C66.2829 64.7877 67.2538 63.855 67.2538 62.4307C67.2538 61.0064 66.2829 60.0863 64.9969 60.0863C63.7234 60.0863 62.7525 61.0064 62.7525 62.4307C62.7525 63.855 63.7234 64.7877 64.9969 64.7877Z" fill="#1A1919"/>
<path d="M75.1675 59.0906H76.378V65.7708H75.2306V64.7625C74.7389 65.4557 73.9067 65.8464 72.961 65.8464C71.2336 65.8464 70.0862 64.9011 70.0862 62.9349V59.0906H71.2967V62.7962C71.2967 64.1071 71.9523 64.7625 73.0997 64.7625C74.3606 64.7625 75.1675 63.981 75.1675 62.5441V59.0906Z" fill="#1A1919"/>
<path d="M80.5988 65.8464C79.4893 65.8464 78.3923 65.5061 77.8375 65.065L78.3419 64.1071C78.9093 64.5104 79.8171 64.8003 80.6871 64.8003C81.8093 64.8003 82.2758 64.46 82.2758 63.8928C82.2758 62.3929 78.0519 63.6911 78.0519 61.0316C78.0519 59.8343 79.1236 59.0276 80.8384 59.0276C81.7084 59.0276 82.6919 59.2545 83.2719 59.6326L82.7549 60.5905C82.1497 60.1998 81.4815 60.0611 80.8258 60.0611C79.7667 60.0611 79.2497 60.4519 79.2497 60.9812C79.2497 62.5568 83.4862 61.2711 83.4862 63.8676C83.4862 65.0776 82.3767 65.8464 80.5988 65.8464Z" fill="#1A1919"/>
<path d="M85.6042 57.805C85.1377 57.805 84.7846 57.4647 84.7846 57.0235C84.7846 56.5824 85.1377 56.2295 85.6042 56.2295C86.0707 56.2295 86.4238 56.5698 86.4238 56.9983C86.4238 57.4521 86.0833 57.805 85.6042 57.805ZM84.999 65.7708V59.0906H86.2094V65.7708H84.999Z" fill="#1A1919"/>
<path d="M92.0888 59.0276C93.7153 59.0276 94.8627 59.9603 94.8627 61.9265V65.7708H93.6523V62.0652C93.6523 60.7544 92.9966 60.1115 91.8492 60.1115C90.5632 60.1115 89.731 60.8804 89.731 62.3299V65.7708H88.5206V59.0906H89.6806V60.0989C90.1723 59.4183 91.0297 59.0276 92.0888 59.0276Z" fill="#1A1919"/>
<path d="M103.179 62.4685C103.179 62.5694 103.167 62.7206 103.154 62.834H97.7324C97.8837 64.0062 98.8293 64.7877 100.153 64.7877C100.935 64.7877 101.591 64.523 102.082 63.981L102.751 64.7625C102.145 65.4683 101.225 65.8464 100.115 65.8464C97.9593 65.8464 96.5219 64.4222 96.5219 62.4307C96.5219 60.4519 97.9467 59.0276 99.8759 59.0276C101.805 59.0276 103.179 60.414 103.179 62.4685ZM99.8759 60.0485C98.7159 60.0485 97.8585 60.83 97.7324 61.9644H102.019C101.893 60.8426 101.048 60.0485 99.8759 60.0485Z" fill="#1A1919"/>
<path d="M106.777 65.8464C105.667 65.8464 104.57 65.5061 104.015 65.065L104.52 64.1071C105.087 64.5104 105.995 64.8003 106.865 64.8003C107.987 64.8003 108.454 64.46 108.454 63.8928C108.454 62.3929 104.23 63.6911 104.23 61.0316C104.23 59.8343 105.301 59.0276 107.016 59.0276C107.886 59.0276 108.87 59.2545 109.45 59.6326L108.933 60.5905C108.328 60.1998 107.659 60.0611 107.004 60.0611C105.944 60.0611 105.428 60.4519 105.428 60.9812C105.428 62.5568 109.664 61.2711 109.664 63.8676C109.664 65.0776 108.554 65.8464 106.777 65.8464Z" fill="#1A1919"/>
<path d="M113.093 65.8464C111.984 65.8464 110.887 65.5061 110.332 65.065L110.836 64.1071C111.404 64.5104 112.312 64.8003 113.182 64.8003C114.304 64.8003 114.77 64.46 114.77 63.8928C114.77 62.3929 110.546 63.6911 110.546 61.0316C110.546 59.8343 111.618 59.0276 113.333 59.0276C114.203 59.0276 115.186 59.2545 115.766 59.6326L115.249 60.5905C114.644 60.1998 113.976 60.0611 113.32 60.0611C112.261 60.0611 111.744 60.4519 111.744 60.9812C111.744 62.5568 115.981 61.2711 115.981 63.8676C115.981 65.0776 114.871 65.8464 113.093 65.8464Z" fill="#1A1919"/>
<path d="M75.3391 67.7989H76.4865V73.5717C76.4865 75.9286 75.2887 77 73.0191 77C71.7961 77 70.5604 76.6597 69.8291 76.0043L70.4091 75.0715C71.0269 75.6009 71.9978 75.9412 72.9813 75.9412C74.5574 75.9412 75.2761 75.2102 75.2761 73.6977V73.1683C74.6961 73.8615 73.8261 74.2019 72.8678 74.2019C70.9387 74.2019 69.4761 72.891 69.4761 70.9626C69.4761 69.0342 70.9387 67.7359 72.8678 67.7359C73.8639 67.7359 74.7717 68.1014 75.3391 68.8325V67.7989ZM73.0065 73.1431C74.343 73.1431 75.3013 72.2482 75.3013 70.9626C75.3013 69.6644 74.343 68.7947 73.0065 68.7947C71.6574 68.7947 70.6991 69.6644 70.6991 70.9626C70.6991 72.2482 71.6574 73.1431 73.0065 73.1431Z" fill="#1A1919"/>
<path d="M79.9593 68.9207C80.388 68.1393 81.2202 67.7359 82.3928 67.7359V68.9081C82.2919 68.8955 82.2036 68.8955 82.1154 68.8955C80.8167 68.8955 80.0097 69.6896 80.0097 71.1517V74.4792H78.7993V67.7989H79.9593V68.9207Z" fill="#1A1919"/>
<path d="M86.6852 74.5548C84.6805 74.5548 83.2052 73.1305 83.2052 71.139C83.2052 69.1476 84.6805 67.7359 86.6852 67.7359C88.69 67.7359 90.1526 69.1476 90.1526 71.139C90.1526 73.1305 88.69 74.5548 86.6852 74.5548ZM86.6852 73.496C87.9713 73.496 88.9296 72.5633 88.9296 71.139C88.9296 69.7148 87.9713 68.7947 86.6852 68.7947C85.3992 68.7947 84.4283 69.7148 84.4283 71.139C84.4283 72.5633 85.3992 73.496 86.6852 73.496Z" fill="#1A1919"/>
<path d="M96.8449 67.7989H98.0553V74.4792H96.9079V73.4708C96.4162 74.164 95.584 74.5548 94.6384 74.5548C92.911 74.5548 91.7636 73.6095 91.7636 71.6432V67.7989H92.974V71.5046C92.974 72.8154 93.6297 73.4708 94.7771 73.4708C96.0379 73.4708 96.8449 72.6894 96.8449 71.2525V67.7989Z" fill="#1A1919"/>
<path d="M103.903 67.7359C105.857 67.7359 107.282 69.0972 107.282 71.139C107.282 73.1935 105.857 74.5548 103.903 74.5548C102.957 74.5548 102.125 74.1893 101.57 73.4708V76.9244H100.36V67.7989H101.52V68.8577C102.062 68.114 102.919 67.7359 103.903 67.7359ZM103.802 73.496C105.088 73.496 106.059 72.5633 106.059 71.139C106.059 69.7274 105.088 68.7947 103.802 68.7947C102.528 68.7947 101.558 69.7274 101.558 71.139C101.558 72.5633 102.528 73.496 103.802 73.496Z" fill="#1A1919"/>
<path d="M24.9881 76.8854C38.7887 76.8854 49.9763 65.7019 49.9763 51.9062C49.9763 45.6456 48.3715 38.5 38.0553 29.4479C26.3027 19.1354 19.7637 11.7032 22.581 0C22.581 0 7.33597 11.1146 17.4229 28.1875C19.3862 31.5104 25.5025 36.7812 27.6245 38.9583C31.9802 43.4271 36.1162 46.2012 35.9921 51.9062C35.9921 57.9814 31.0655 62.9062 24.9881 62.9062C18.9108 62.9062 13.9842 57.9814 13.9842 51.9062C13.9842 47.0596 15.8182 45.2604 21.2055 40.2188L11.8063 30.6814C4.71826 35.0897 0 42.9472 0 51.9062C0 65.7019 11.1876 76.8854 24.9881 76.8854Z" fill="#E28033"/>
<path d="M24.9871 57.6354C28.1524 57.6354 30.7183 55.0704 30.7183 51.9062C30.7183 50.226 29.8801 48.7146 28.7274 47.6667L24.8725 43.8854L21.1322 47.6667C19.9795 48.7146 19.2559 50.226 19.2559 51.9062C19.2559 55.0704 21.8218 57.6354 24.9871 57.6354Z" fill="#1A1919"/>
</g>
<defs>
<clipPath id="clip0_2916_7944">
<rect width="116" height="77" fill="white"/>
</clipPath>
</defs>
</svg>
