<svg width="90" height="104" viewBox="0 0 90 104" fill="none" xmlns="http://www.w3.org/2000/svg">
<g clip-path="url(#clip0_2907_10449)">
<path fill-rule="evenodd" clip-rule="evenodd" d="M5.59375 0C13.1422 3.71323 18.2422 6.87811 20.8938 9.49507C56.0974 6.82718 77.4869 9.46494 85.0623 17.4075C94.9233 -7.69936 20.8938 9.49507 5.59375 0Z" fill="#EF7F1A"/>
<path fill-rule="evenodd" clip-rule="evenodd" d="M65.0251 39.1101C70.2572 23.4342 63.73 20.9382 28.6018 20.4875C54.5795 28.5845 25.5969 33.7556 37.9075 41.4834C-5.48071 35.1537 49.8199 31.1221 0 9.72086C19.9812 18.7639 121.887 2.37376 65.0251 39.1101Z" fill="#EF7F1A"/>
<path fill-rule="evenodd" clip-rule="evenodd" d="M27.498 43.333C28.9827 54.7936 38.8736 63.6503 50.8541 63.6503C63.8596 63.6503 74.4026 53.2131 74.4026 40.3379C74.4026 39.481 74.3559 38.6352 74.265 37.8025C70.1159 41.5093 67.1659 43.204 65.4146 42.8861C57.4246 41.4499 63.1908 34.9881 62.5032 30.6217C62.2575 26.6067 55.5018 24.7041 42.2365 24.9133C43.8249 27.8987 43.328 30.9973 40.745 34.2106C39.3362 35.5539 38.8792 37.0232 39.3748 38.619C40.2078 41.4686 49.1954 38.83 53.4152 43.7795C70.8846 60.2261 34.9873 68.2536 33.9978 44.3661C33.9978 44.3661 31.8315 44.0219 27.4989 43.333H27.498Z" fill="#2B2A29"/>
<path d="M50.8542 63.8006C45.0554 63.8006 39.4743 61.7057 35.1396 57.902C30.8417 54.1307 28.0743 48.9638 27.3477 43.3526L27.4861 43.3352L27.4986 43.1832H27.6323L27.6349 43.2028L34.1441 44.2375L34.1492 44.3601C34.3194 48.471 35.5254 51.8664 37.7333 54.4524C39.6141 56.6551 42.1675 58.1745 45.1175 58.8464C47.5938 59.4104 50.2051 59.3289 52.4709 58.6176C54.7422 57.9046 56.4819 56.6118 57.369 54.9774C58.3443 53.1812 59.1134 49.3526 53.3099 43.889L53.2983 43.8772C50.9695 41.1456 47.1454 40.7624 44.0727 40.4546C41.5862 40.2055 39.6222 40.009 39.2282 38.6611C38.7185 37.0194 39.1905 35.4873 40.6319 34.1096C41.897 32.5337 42.6618 30.9672 42.9045 29.4533C43.1467 27.9437 42.8766 26.44 42.1015 24.9838L41.9862 24.7673L42.2335 24.7635C48.8499 24.6591 53.9169 25.0882 57.2935 26.0393C58.9955 26.5189 60.3091 27.1424 61.1965 27.8927C62.0981 28.655 62.5886 29.5675 62.6542 30.606C62.878 32.0423 62.4218 33.6954 61.9811 35.2942C61.4002 37.3997 60.8518 39.3881 61.7672 40.8264C62.3725 41.7776 63.5746 42.4027 65.4417 42.7384C67.136 43.0461 70.0701 41.348 74.1631 37.6913L74.3839 37.4939L74.416 37.7868C74.5078 38.628 74.5545 39.4866 74.5545 40.3384C74.5545 43.5058 73.9277 46.5786 72.6921 49.471C71.4986 52.2649 69.7897 54.7741 67.6131 56.9288C65.4365 59.0836 62.902 60.7753 60.0797 61.9569C57.1576 63.1805 54.0541 63.8006 50.8546 63.8006H50.8542ZM27.6756 43.5134C28.4323 48.9753 31.1491 53.9982 35.3411 57.6767C39.6205 61.4319 45.1295 63.4997 50.8542 63.4997C54.013 63.4997 57.077 62.8872 59.961 61.6794C62.7468 60.5126 65.2492 58.8425 67.3979 56.7154C69.5466 54.5882 71.2337 52.1113 72.4122 49.353C73.6323 46.4975 74.2505 43.4642 74.2505 40.3375C74.2505 39.5952 74.2145 38.8478 74.1438 38.1119C72.1644 39.8634 70.4405 41.1655 69.0163 41.9834C67.5158 42.845 66.2948 43.1985 65.3868 43.0338C63.431 42.6824 62.1629 42.0127 61.5095 40.986C60.5226 39.436 61.1147 37.2898 61.6874 35.2144C62.1209 33.6436 62.5689 32.0189 62.3524 30.6447L62.3506 30.6307C62.1131 26.754 55.4286 24.8798 42.4813 25.0602C43.2016 26.5074 43.4447 28.0001 43.2037 29.5C42.9521 31.0682 42.1645 32.6844 40.8625 34.304L40.8492 34.3188C40.1667 34.9695 39.7097 35.6575 39.4898 36.3641C39.2715 37.0661 39.2814 37.8097 39.5189 38.5745C39.8563 39.7293 41.7302 39.9173 44.1028 40.1546C47.2277 40.4674 51.1161 40.8566 53.5247 43.676C59.4671 49.274 58.6517 53.2483 57.6356 55.1191C56.1454 57.8643 52.4846 59.5191 48.4238 59.5195C47.3164 59.5195 46.1795 59.3964 45.0481 59.1388C42.0333 58.4525 39.4233 56.8987 37.4997 54.6459C35.2695 52.034 34.0416 48.6192 33.8496 44.4951L27.6743 43.5134H27.6756Z" fill="#FEFEFE"/>
<path fill-rule="evenodd" clip-rule="evenodd" d="M8.99439 71.0025H25.4288L24.0951 75.5536H7.66065L8.99439 71.0025ZM11.6053 82.2424H22.3116L21.1747 86.3321H4.74023L5.87762 82.2424L7.27181 76.907L19.681 76.8918L18.6559 80.6432H11.8222L11.4184 82.2424H11.6048H11.6053Z" fill="#FEFEFE"/>
<path d="M21.2905 86.4823H4.54102L5.73156 82.2021L7.1549 76.7564H7.27237L19.8805 76.7407L18.7731 80.7934H11.9415L11.6136 82.0917H22.5111L21.2905 86.4823ZM4.93972 86.1818H21.059L22.1124 82.3926H11.6054V82.124L11.5664 82.2789L11.2714 82.2059L11.704 80.4929H18.5399L19.4826 77.0424L7.38941 77.0573L6.02437 82.2797L4.93929 86.1814L4.93972 86.1818ZM24.2092 75.7042H7.45843L8.88048 70.8523H25.6313L24.2092 75.7042ZM7.86314 75.4033H23.9812L25.227 71.1528H9.10856L7.86271 75.4033H7.86314Z" fill="#2B2A29"/>
<path fill-rule="evenodd" clip-rule="evenodd" d="M27.0757 86.332H23.7832L26.4545 76.553H35.5249C36.9641 76.5942 37.5647 76.6044 37.1403 78.3364L35.8979 83.8717L32.6053 83.8102L33.8478 79.013H29.002L27.0762 86.3316L27.0757 86.332Z" fill="#FEFEFE"/>
<path d="M27.075 86.4827H23.584L26.3376 76.4032H35.5452C36.3962 76.4278 36.9587 76.4439 37.2459 76.8166C37.4705 77.1082 37.483 77.5733 37.287 78.3729L36.018 84.0253L32.4091 83.9578L33.6507 79.164H29.1179L27.2264 86.3516V86.4827H27.0746H27.075ZM23.981 86.1818H26.9576L28.8833 78.8631H34.0421L32.7988 83.6641L35.7754 83.7197L36.9908 78.3046C37.1589 77.6187 37.1627 77.2049 37.0041 76.9991C36.8047 76.7406 36.2727 76.7258 35.5362 76.7045H35.5216H26.57L23.9805 86.1826L23.981 86.1818Z" fill="#2B2A29"/>
<path fill-rule="evenodd" clip-rule="evenodd" d="M49.8115 83.6875L49.1903 86.3321H39.623C38.2044 86.2909 37.4691 85.5121 37.6972 84.1794L38.9396 78.9519C39.3332 77.7834 39.882 76.6456 41.7975 76.5535H48.569C50.3499 76.6252 51.2923 77.4965 50.9296 78.8903L50.0597 82.5802H42.6047L43.2881 80.2434H47.7613L48.1339 78.8903H42.3565L41.0519 83.6875H49.8115Z" fill="#FEFEFE"/>
<path d="M49.3117 86.4827H39.6193C38.8425 86.4602 38.2423 86.22 37.8847 85.788C37.5507 85.3852 37.4346 84.8203 37.5482 84.1548L37.5499 84.1455L38.794 78.9111L38.7962 78.9048C39.1867 77.7457 39.7719 76.5008 41.7907 76.4037H41.798H48.576C49.6371 76.4465 50.4187 76.7623 50.8349 77.3174C51.1565 77.7457 51.2401 78.3025 51.0776 78.9285L50.1812 82.7317H42.4034L43.1746 80.094H47.6457L47.9355 79.0418H42.4733L41.2506 83.5381H49.6911L49.7379 83.3399L50.116 83.839H49.9325L49.3113 86.4836L49.3117 86.4827ZM39.6262 86.1818H49.0708L49.6213 83.8382H40.8549L42.2413 78.7401H48.3342L47.8785 80.394H43.4036L42.8081 82.4304H49.9402L50.7826 78.8564C50.9246 78.3106 50.8598 77.8539 50.5914 77.4961C50.2317 77.0169 49.5317 76.7432 48.567 76.7037H41.8023C39.9803 76.7928 39.477 77.8365 39.0873 78.993L37.8474 84.2095C37.7484 84.7927 37.8401 85.2596 38.1201 85.597C38.4202 85.9594 38.9411 86.1614 39.6266 86.1818H39.6262Z" fill="#2B2A29"/>
<path fill-rule="evenodd" clip-rule="evenodd" d="M54.189 86.3631H50.8965L53.5678 76.584H59.6873C61.1265 76.6252 61.9754 76.6354 61.5509 78.3674L61.3181 79.8283L58.1032 79.813L58.2661 79.0444H56.1152L54.1895 86.3631H54.189Z" fill="#FEFEFE"/>
<path d="M54.1883 86.5133H50.6973L53.4509 76.4338L59.7247 76.4347C60.5929 76.4593 61.2788 76.4788 61.6107 76.9096C61.8447 77.2131 61.8726 77.6859 61.699 78.3972L61.4469 79.9794L57.9151 79.9624L58.078 79.1947H56.2316L54.3143 86.4798L54.2127 86.5133H54.1879H54.1883ZM51.0943 86.2128H54.0713L55.9971 78.8942H58.4527L58.2894 79.6637L61.1875 79.6777L61.4023 78.3327C61.5519 77.7215 61.5412 77.3158 61.3693 77.0925C61.1254 76.7759 60.5033 76.7581 59.7162 76.736L59.6844 76.7352H53.6837L51.0943 86.2133V86.2128Z" fill="#2B2A29"/>
<path fill-rule="evenodd" clip-rule="evenodd" d="M71.2664 83.6875L72.5864 78.8903H66.9642L65.6596 83.6875H71.2664ZM72.8484 89.8352C72.6079 90.8147 72.297 91.7328 69.9824 91.7128L61.3789 91.6381L61.9958 89.3013L69.7466 89.3153L70.6323 86.3214C70.6482 86.2675 66.3379 86.3325 64.2303 86.3325C62.8117 86.2913 62.0764 85.5125 62.3045 84.1798L63.5469 78.9523C63.9405 77.7839 64.4892 76.646 66.4048 76.5539H73.1763C74.9572 76.6256 75.8995 77.497 75.5368 78.8907L72.8479 89.8356L72.8484 89.8352Z" fill="#FEFEFE"/>
<path d="M70.0572 91.8635C70.0323 91.8635 70.007 91.8635 69.9817 91.8635L61.1836 91.7871L61.8794 89.151L69.6336 89.165L70.4353 86.4564C69.935 86.4433 68.4169 86.4556 67.0549 86.4666C66.0392 86.4747 64.9893 86.4832 64.2313 86.4832H64.2271C63.4502 86.4607 62.85 86.2204 62.492 85.7884C62.1581 85.3856 62.0419 84.8207 62.1555 84.1552L62.1572 84.1459L63.4013 78.9115L63.4035 78.9052C63.7936 77.7461 64.3792 76.5013 66.3981 76.4041H66.4054H73.1834C74.2444 76.4469 75.026 76.7627 75.4423 77.3179C75.7638 77.7461 75.8474 78.3029 75.6849 78.9289L72.9969 89.8717C72.7289 90.9616 72.3212 91.8643 70.0572 91.8643V91.8635ZM61.5759 91.4892L69.9843 91.5622C70.0087 91.5622 70.0332 91.5622 70.0567 91.5622C72.1917 91.5622 72.4708 90.7273 72.6792 89.8895L75.39 78.8547C75.5314 78.3101 75.4667 77.8539 75.1983 77.4961C74.8386 77.0169 74.1386 76.7432 73.1739 76.7037H66.4092C64.5872 76.7929 64.0839 77.8365 63.6942 78.993L62.4543 84.2096C62.3557 84.7927 62.447 85.2596 62.727 85.5974C63.0271 85.9598 63.548 86.1619 64.2335 86.1822C64.9902 86.1822 66.0384 86.1738 67.0523 86.1657C67.974 86.1585 68.8443 86.1513 69.511 86.15C70.6917 86.1483 70.6955 86.1525 70.7547 86.2298L70.8006 86.29L70.7791 86.3635L69.8612 89.4655L62.1139 89.4515L61.5759 91.4892ZM71.3828 83.8378H65.4618L66.8482 78.7397H72.7859L71.3832 83.8378H71.3828ZM65.8583 83.5373H71.1508L72.3881 79.041H67.081L65.8583 83.5373Z" fill="#2B2A29"/>
<path fill-rule="evenodd" clip-rule="evenodd" d="M39.8699 88.8586L37.9128 95.9927H42.8208L44.7157 88.8276L48.3499 88.8586L45.7343 98.6533C42.6501 98.6368 39.5685 98.6372 36.4843 98.6372C35.0657 98.596 34.3305 97.8172 34.5586 96.4846L36.5932 88.8582H39.8704L39.8699 88.8586Z" fill="#EF7F1A"/>
<path d="M45.7428 98.6657H45.7334C42.7821 98.6495 39.7828 98.6491 36.8821 98.6495H36.4834C35.7477 98.6283 35.184 98.4055 34.8522 98.0053C34.5405 97.6288 34.4372 97.1165 34.5456 96.4829L36.5829 88.8467H39.8853L39.881 88.862L37.9282 95.9812H42.8108L44.7058 88.8162L48.3653 88.8472L48.3614 88.862L45.7433 98.6657H45.7428ZM37.2804 98.6253C40.0538 98.6253 42.9107 98.6262 45.7244 98.641L48.3336 88.8705L44.7242 88.84L42.8293 96.005H37.896L37.9003 95.9897L39.8531 88.8705H36.6013L34.5692 96.4875C34.4625 97.1131 34.5636 97.619 34.871 97.9896C35.1981 98.3843 35.7555 98.6037 36.4839 98.6249H36.8821C37.0146 98.6249 37.1475 98.6249 37.2804 98.6249V98.6253Z" fill="#2B2A29"/>
<path fill-rule="evenodd" clip-rule="evenodd" d="M18.6685 96.0118L19.9363 91.2146L25.3334 91.2069L24.0425 96.0118H18.6685ZM13.0391 103.881L16.5391 103.899L17.9033 98.6402C17.917 98.5876 22.0567 98.6563 24.1647 98.6563C25.6035 98.6152 26.6225 97.9132 27.0534 96.5805L28.4947 91.2761C28.6786 90.1077 28.6919 88.9698 26.8223 88.8777H17.1873L13.0391 103.882V103.881Z" fill="#EF7F1A"/>
<path d="M16.5488 103.911H16.5393L13.0234 103.894L13.0277 103.878L17.1786 88.8654H26.8225C27.5278 88.9003 28.0058 89.0823 28.2853 89.4223C28.6832 89.9061 28.6086 90.6336 28.507 91.2778L27.0652 96.5835C26.6378 97.9055 25.6354 98.6262 24.1653 98.6682C23.3757 98.6682 22.303 98.6585 21.2655 98.6491C19.6685 98.6347 18.018 98.6198 17.9138 98.6478L16.5488 103.911V103.911ZM13.0552 103.869L16.5299 103.887L17.8915 98.6372C17.8958 98.6211 17.8997 98.6067 18.9389 98.6084C19.5622 98.6101 20.3896 98.6173 21.2655 98.6254C22.303 98.6347 23.3752 98.6445 24.1645 98.6445C25.623 98.6029 26.6176 97.8881 27.0416 96.5771L28.483 91.2732C28.5833 90.6353 28.6579 89.9138 28.266 89.4376C27.9912 89.1031 27.5188 88.924 26.8212 88.8896H17.1966L13.0552 103.87V103.869ZM24.0517 96.0237H18.6683V96.0114L18.6568 96.0084L19.9266 91.2023H19.9361L25.349 91.1946L25.3452 91.2099L24.0517 96.0237ZM18.6846 95.9995H24.0333L25.3177 91.2188L19.9459 91.2265L18.6846 95.9995Z" fill="#2B2A29"/>
<path fill-rule="evenodd" clip-rule="evenodd" d="M32.0287 98.8248L28.4746 98.8066L32.6031 83.8106L35.8957 83.8722L32.0287 98.8248Z" fill="#EF7F1A"/>
<path d="M32.0379 98.8367H32.0285L28.459 98.8185L28.4633 98.8032L32.5944 83.7983H32.6038L35.9118 83.8603L35.9079 83.8751L32.0383 98.8367H32.0379ZM28.4907 98.7947L32.019 98.8129L35.8801 83.884L32.6124 83.8229L28.4907 98.7947Z" fill="#2B2A29"/>
<path fill-rule="evenodd" clip-rule="evenodd" d="M54.8918 95.0942H51.4547C50.0035 94.9588 48.858 94.4431 48.9095 92.5757C49.1765 89.6269 50.3954 89.3302 53.2318 89.2551L61.9973 89.3013L61.3804 91.6382L53.2631 91.6322C52.1943 91.7209 52.2496 92.56 52.9458 92.5439C53.5945 92.549 54.2431 92.5541 54.8922 92.5596L58.3978 92.5727C59.849 92.7081 60.9945 93.2238 60.9431 95.0912C60.685 97.9624 60.0119 98.4713 56.8227 98.6428L47.1543 98.6466L47.8218 96.1777L56.8227 96.1892C57.8915 96.1005 57.6034 95.1078 56.9072 95.1239C56.2585 95.1188 55.5413 95.1006 54.8922 95.0955L54.8918 95.0942Z" fill="#EF7F1A"/>
<path d="M47.1371 98.658L47.8111 96.165H47.8205L56.8214 96.1765C57.3517 96.1323 57.5275 95.8688 57.5147 95.637C57.5014 95.3892 57.2656 95.1264 56.9059 95.1349C56.5809 95.1324 56.2337 95.1264 55.898 95.1205C55.5623 95.115 55.215 95.1086 54.8905 95.1061H51.4539C50.608 95.0271 50.0224 94.8323 49.61 94.4936C49.1058 94.079 48.8722 93.4517 48.8966 92.5753C49.1624 89.6417 50.3585 89.3191 53.2305 89.2427L62.0119 89.289L62.008 89.3039L61.3885 91.6496H61.3791L53.2618 91.6437C52.6865 91.6916 52.4378 91.9616 52.4502 92.1924C52.4592 92.3575 52.6114 92.5316 52.924 92.5316C52.9304 92.5316 52.9373 92.5316 52.9441 92.5316L54.8909 92.5468L58.3961 92.56C59.242 92.6389 59.8276 92.8333 60.24 93.1724C60.7442 93.5871 60.9778 94.2144 60.9534 95.0908C60.8346 96.4137 60.6314 97.3428 59.9884 97.8877C59.3629 98.4174 58.3129 98.5736 56.8219 98.6538L47.1367 98.6576L47.1371 98.658ZM47.83 96.1892L47.1689 98.6338L56.8214 98.63C58.8252 98.5222 59.5129 98.2591 59.9729 97.8695C60.61 97.33 60.8115 96.4056 60.9298 95.0895C60.9538 94.222 60.7232 93.6007 60.225 93.1911C59.8164 92.8554 59.2351 92.6623 58.3957 92.5842L54.8609 92.571L52.945 92.5557C52.9381 92.5557 52.9313 92.5557 52.9244 92.5557C52.596 92.5557 52.4361 92.3698 52.4267 92.1941C52.4194 92.0634 52.4875 91.9348 52.6174 91.833C52.7666 91.7162 52.9896 91.6424 53.2614 91.6199L61.3701 91.6258L61.9806 89.3132L53.2309 89.2669C51.7248 89.3068 50.7817 89.4112 50.1133 89.848C49.4093 90.3076 49.0527 91.1238 48.921 92.577C48.897 93.4445 49.1277 94.0658 49.6258 94.4754C50.0344 94.8111 50.6158 95.0042 51.4552 95.0823H54.8909C55.2155 95.0849 55.5627 95.0908 55.8984 95.0967C56.2341 95.1022 56.5813 95.1086 56.9055 95.1112C56.9102 95.1112 56.9149 95.1112 56.92 95.1112C57.2064 95.1112 57.5211 95.3089 57.5387 95.6362C57.552 95.8794 57.3706 96.1552 56.8219 96.2011L47.8291 96.19L47.83 96.1892Z" fill="#2B2A29"/>
<path fill-rule="evenodd" clip-rule="evenodd" d="M86.8541 76.5535H89.8049L86.5261 89.8356C86.2843 90.8148 85.9748 91.7332 83.6601 91.7133L75.0566 91.6386L75.6736 89.3017L83.4243 89.3157L84.3101 86.3219C84.3259 86.268 80.0156 86.3329 77.908 86.3329C76.4894 86.2917 75.7542 85.5129 75.9822 84.1803L77.8459 76.4312L81.3245 76.4788L79.3365 83.6884H84.9433L86.8536 76.5543L86.8541 76.5535Z" fill="#FEFEFE"/>
<path d="M83.737 91.8635C83.7113 91.8635 83.6856 91.8635 83.6595 91.8635L74.8613 91.7871L75.5576 89.151L83.3118 89.165L84.1135 86.4564C83.6132 86.4433 82.0951 86.4556 80.733 86.4666C79.7174 86.4747 78.6675 86.4831 77.9095 86.4831H77.9052C77.1284 86.4606 76.5282 86.2204 76.1706 85.7884C75.8367 85.3856 75.7205 84.8207 75.8341 84.1552L75.8362 84.1455L77.7282 76.2793L81.5244 76.3311L79.5373 83.5381H84.8281L86.7188 76.4767L86.7921 76.4041H86.8551H89.9993L89.9534 76.59L86.6746 89.8721C86.5464 90.3916 86.3959 90.889 85.9724 91.2621C85.5064 91.6725 84.7947 91.8643 83.7375 91.8643L83.737 91.8635ZM75.2536 91.4891L83.662 91.5622C85.9376 91.5808 86.1632 90.6755 86.3792 89.7995L89.6122 76.7037H86.9717L85.0614 83.8382H79.1386L81.127 76.6256L77.9661 76.5823L76.1316 84.2095C76.033 84.7927 76.1243 85.2596 76.4043 85.597C76.7044 85.9594 77.2253 86.1614 77.9108 86.1818C78.6675 86.1818 79.7157 86.1733 80.7296 86.1653C81.6513 86.158 82.5216 86.1508 83.1883 86.1495C84.369 86.1474 84.3728 86.1521 84.432 86.2293L84.4779 86.2896L84.4564 86.363L83.5386 89.4651L75.7912 89.4511L75.2532 91.4887L75.2536 91.4891Z" fill="#2B2A29"/>
</g>
<defs>
<clipPath id="clip0_2907_10449">
<rect width="90" height="104" fill="white"/>
</clipPath>
</defs>
</svg>
