<svg width="60" height="70" viewBox="0 0 60 70" fill="none" xmlns="http://www.w3.org/2000/svg">
<g clip-path="url(#clip0_4950_4193)">
<path fill-rule="evenodd" clip-rule="evenodd" d="M3.73047 0C8.76274 2.49929 12.1628 4.6295 13.9305 6.39091C37.3996 4.59522 51.6593 6.37063 56.7095 11.7166C63.2835 -5.18226 13.9305 6.39091 3.73047 0Z" fill="#FEFEFE"/>
<path fill-rule="evenodd" clip-rule="evenodd" d="M6.23876 1.04523C5.76117 0.910543 5.31707 0.760676 4.90956 0.594119C4.52703 0.398452 4.134 0.200413 3.73047 0C4.07904 0.218401 4.47334 0.415823 4.90956 0.594119C5.33918 0.813869 5.75557 1.03063 6.15871 1.24439C9.87311 3.21392 12.4637 4.92937 13.9305 6.39091C37.1506 4.61427 51.3557 6.33337 56.5457 11.5477C56.6013 11.6036 56.656 11.6599 56.7095 11.7166C56.7385 11.6422 56.7663 11.5683 56.7931 11.4951C60.5032 1.34117 43.567 1.70143 27.5527 2.04207C19.16 2.22059 11.0205 2.39373 6.23876 1.04523ZM56.6267 11.3271C57.3091 9.40404 57.2165 7.90562 56.5529 6.7282C55.8488 5.47915 54.4763 4.54404 52.5669 3.85616C48.7449 2.47922 42.9093 2.1402 36.5099 2.13123C33.5889 2.12714 30.5581 2.1916 27.5569 2.25544C27.2755 2.26143 26.9944 2.26741 26.7137 2.27332C23.4397 2.34233 20.2167 2.40282 17.2333 2.36388C14.2505 2.32494 11.5011 2.18658 9.17506 1.85652C8.41117 1.74813 7.69039 1.61874 7.02025 1.46458C10.2832 3.23838 12.6176 4.80681 14.0113 6.17071C25.7073 5.27975 35.1231 5.27616 42.2535 6.16385C49.1784 7.02598 53.9902 8.73346 56.6267 11.3271Z" fill="#FEFEFE"/>
<path fill-rule="evenodd" clip-rule="evenodd" d="M43.3501 26.3241C46.8381 15.773 42.4867 14.093 19.0679 13.7896C36.3863 19.2396 17.0646 22.7201 25.2717 27.9215C-3.65381 23.6611 33.2132 20.9476 0 6.54288C13.3208 12.6296 81.2578 1.59772 43.3501 26.3241Z" fill="#FEFEFE"/>
<path fill-rule="evenodd" clip-rule="evenodd" d="M2.10627 7.48343C17.5227 14.5816 15.4315 18.7046 13.954 21.6178C12.6204 24.2472 11.7866 25.8911 24.7757 27.8477C24.9388 27.8722 25.1042 27.8969 25.2717 27.9215C25.1249 27.8285 24.987 27.7361 24.8575 27.6441C21.8675 25.5219 23.3731 23.6817 24.8603 21.8639C26.862 19.4171 28.8305 17.011 19.7592 14.0125C19.5355 13.9386 19.3051 13.8643 19.0679 13.7896C19.3123 13.7928 19.5547 13.7961 19.795 13.7996C42.3389 14.1256 46.7115 15.8467 43.4556 26C43.4213 26.1071 43.3861 26.2151 43.3501 26.3241C43.446 26.2615 43.5413 26.1992 43.6358 26.1371C68.7844 9.6201 46.1901 9.23394 24.7442 8.86741C15.8716 8.71576 7.19549 8.56748 2.17831 7.28162C1.47383 7.10106 0.841489 6.89808 0.290872 6.66951C0.194517 6.6274 0.0975608 6.58519 0 6.54288C0.0942425 6.58594 0.191219 6.62814 0.290872 6.66951C0.921429 6.94509 1.52624 7.21637 2.10627 7.48343ZM3.11098 7.71722C9.38684 10.6932 12.5856 13.1513 14.067 15.2376C14.9242 16.4448 15.21 17.5322 15.1784 18.5209C15.1469 19.5034 14.8023 20.3681 14.4362 21.1288C14.3445 21.3193 14.2509 21.5044 14.1603 21.683L14.1447 21.7138C14.0594 21.882 13.9771 22.0442 13.9004 22.2024C13.7372 22.5393 13.6046 22.8479 13.528 23.1376C13.4518 23.4257 13.4338 23.6854 13.4906 23.9279C13.5469 24.1683 13.6808 24.4095 13.9381 24.6551C14.4627 25.1557 15.4807 25.6563 17.3008 26.165C18.96 26.6287 21.2608 27.0928 24.4103 27.5762C23.8002 27.0946 23.398 26.6169 23.1668 26.1371C22.8475 25.4748 22.8651 24.8319 23.0731 24.2171C23.2783 23.6107 23.6694 23.0287 24.0994 22.4711C24.2916 22.2218 24.4946 21.9737 24.695 21.7288C24.7195 21.6987 24.7441 21.6687 24.7686 21.6388C24.9935 21.3636 25.2135 21.0922 25.4153 20.8213C25.821 20.2766 26.1389 19.7518 26.2705 19.2322C26.3992 18.7241 26.3517 18.2147 26.0095 17.6806C25.6609 17.1365 24.998 16.5543 23.8675 15.9354C22.7393 15.3178 21.1615 14.6722 19.0038 13.9932L19.0706 13.5762C24.9262 13.6521 29.597 13.814 33.2536 14.18C36.9056 14.5456 39.5683 15.1165 41.394 16.0228C43.2341 16.9363 44.2344 18.197 44.5312 19.9208C44.8024 21.4959 44.4817 23.4358 43.7386 25.8138C48.1858 22.877 51.0923 20.4656 52.7539 18.4874C54.4838 16.4278 54.8152 14.9016 54.2505 13.7518C53.963 13.1664 53.4308 12.6469 52.6664 12.1885C51.9023 11.7303 50.9183 11.3404 49.7467 11.0094C47.4033 10.3472 44.3424 9.92944 40.869 9.65636C35.9949 9.27315 30.3366 9.17646 24.7485 9.08096C22.3704 9.04032 20.005 8.99989 17.7181 8.9377C13.8917 8.83364 10.2864 8.66851 7.21917 8.33841C5.71193 8.1762 4.32917 7.97367 3.11098 7.71722Z" fill="#FEFEFE"/>
<path fill-rule="evenodd" clip-rule="evenodd" d="M18.332 29.1665C19.3218 36.8803 25.9157 42.8416 33.9027 42.8416C42.5731 42.8416 49.6018 35.8165 49.6018 27.1505C49.6018 26.5738 49.5706 26.0044 49.51 25.444C46.7439 27.939 44.7773 29.0796 43.6097 28.8657C38.2831 27.899 42.1272 23.5497 41.6688 20.6108C41.505 17.9084 37.0012 16.6277 28.1576 16.7686C29.2166 18.778 28.8853 20.8636 27.1633 23.0264C26.2241 23.9305 25.9195 24.9195 26.2499 25.9936C26.8052 27.9115 32.7969 26.1356 35.6102 29.467C47.2564 40.5368 23.3249 45.9399 22.6652 29.8618C22.6652 29.8618 21.221 29.6301 18.3326 29.1665H18.332Z" fill="#FEFEFE"/>
<path d="M33.9034 42.9427C30.0376 42.9427 26.3169 41.5326 23.427 38.9725C20.5618 36.4341 18.7169 32.9564 18.2324 29.1796L18.3247 29.1679L18.333 29.0656H18.4222L18.4239 29.0788L22.7634 29.7752L22.7668 29.8578C22.8803 32.6247 23.6843 34.9101 25.1562 36.6506C26.41 38.1332 28.1123 39.1559 30.079 39.6081C31.7298 39.9878 33.4707 39.9329 34.9812 39.4541C36.4955 38.9742 37.6553 38.1041 38.2466 37.004C38.8968 35.7951 39.4096 33.2181 35.5406 29.5407L35.5328 29.5327C33.9803 27.6941 31.4309 27.4362 29.3825 27.2291C27.7248 27.0614 26.4155 26.9291 26.1528 26.0219C25.813 24.9169 26.1277 23.8856 27.0886 22.9584C27.932 21.8977 28.4419 20.8433 28.6036 19.8243C28.7651 18.8082 28.5851 17.7961 28.0683 16.816L27.9914 16.6703L28.1564 16.6677C32.5673 16.5975 35.9453 16.8863 38.1963 17.5264C39.331 17.8492 40.2067 18.2689 40.7983 18.7739C41.3994 19.287 41.7264 19.9012 41.7701 20.6002C41.9193 21.5669 41.6152 22.6796 41.3214 23.7557C40.9341 25.1729 40.5686 26.5112 41.1788 27.4793C41.5823 28.1195 42.3837 28.5403 43.6284 28.7662C44.758 28.9734 46.7141 27.8304 49.4427 25.3691L49.5899 25.2363L49.6113 25.4334C49.6725 25.9996 49.7036 26.5775 49.7036 27.1508C49.7036 29.2827 49.2858 31.3509 48.4621 33.2978C47.6664 35.1783 46.5271 36.8672 45.0761 38.3175C43.625 39.7678 41.9353 40.9065 40.0538 41.7018C38.1057 42.5253 36.0367 42.9427 33.9037 42.9427H33.9034ZM18.4511 29.2879C18.9555 32.9641 20.7667 36.345 23.5614 38.8208C26.4143 41.3484 30.087 42.7402 33.9034 42.7402C36.0093 42.7402 38.052 42.3279 39.9746 41.5149C41.8318 40.7296 43.5001 39.6055 44.9326 38.1738C46.3651 36.742 47.4898 35.0749 48.2754 33.2183C49.0889 31.2964 49.501 29.2547 49.501 27.1502C49.501 26.6506 49.477 26.1475 49.4298 25.6522C48.1102 26.8311 46.961 27.7076 46.0115 28.258C45.0112 28.8379 44.1972 29.0759 43.5919 28.9651C42.288 28.7285 41.4426 28.2778 41.007 27.5867C40.349 26.5435 40.7438 25.0989 41.1256 23.702C41.4146 22.6447 41.7132 21.5512 41.5689 20.6262L41.5677 20.6168C41.4094 18.0075 36.953 16.746 28.3216 16.8674C28.8017 17.8415 28.9638 18.8462 28.8031 19.8558C28.6354 20.9113 28.1103 21.9991 27.2423 23.0892L27.2335 23.0992C26.7785 23.5371 26.4738 24.0002 26.3272 24.4758C26.1817 24.9483 26.1883 25.4488 26.3466 25.9636C26.5715 26.7409 27.8208 26.8674 29.4025 27.0271C31.4858 27.2376 34.0781 27.4996 35.6838 29.3973C39.6454 33.1652 39.1018 35.8402 38.4244 37.0994C37.4309 38.9471 34.9904 40.0609 32.2832 40.0612C31.5449 40.0612 30.787 39.9783 30.0327 39.8049C28.0229 39.343 26.2829 38.2972 25.0004 36.7809C23.5136 35.0229 22.6951 32.7244 22.567 29.9486L18.4502 29.2879H18.4511Z" fill="#FEFEFE"/>
<path fill-rule="evenodd" clip-rule="evenodd" d="M5.99626 47.7902H16.9525L16.0634 50.8534H5.1071L5.99626 47.7902ZM7.73685 55.3555H14.8744L14.1164 58.1082H3.16016L3.91841 55.3555L4.84787 51.7644L13.1207 51.7541L12.4373 54.2791H7.88147L7.61223 55.3555H7.73656H7.73685Z" fill="#FEFEFE"/>
<path d="M14.1937 58.2093H3.02734L3.82104 55.3283L4.76993 51.663H4.84825L13.2537 51.6524L12.5154 54.3802H7.96101L7.74237 55.2541H15.0074L14.1937 58.2093ZM3.29315 58.007H14.0394L14.7416 55.4566H7.73694V55.2758L7.71093 55.38L7.51429 55.3309L7.80267 54.178H12.3599L12.9884 51.8555L4.92627 51.8655L4.01625 55.3806L3.29286 58.0067L3.29315 58.007ZM16.1395 50.9548H4.97229L5.92032 47.6891H17.0875L16.1395 50.9548ZM5.24209 50.7522H15.9874L16.818 47.8913H6.07237L5.24181 50.7522H5.24209Z" fill="#FEFEFE"/>
<path fill-rule="evenodd" clip-rule="evenodd" d="M18.0505 58.1081H15.8555L17.6364 51.5261H23.6833C24.6427 51.5538 25.0432 51.5606 24.7602 52.7264L23.9319 56.4521L21.7369 56.4107L22.5652 53.1818H19.3346L18.0508 58.1078L18.0505 58.1081Z" fill="#FEFEFE"/>
<path d="M18.05 58.2095H15.7227L17.5584 51.4252H23.6968C24.2641 51.4418 24.6391 51.4527 24.8306 51.7035C24.9804 51.8997 24.9886 52.2128 24.858 52.751L24.012 56.5555L21.6061 56.5101L22.4338 53.2835H19.4119L18.1509 58.1212V58.2095H18.0497H18.05ZM15.9873 58.007H17.9717L19.2556 53.081H22.6947L21.8659 56.3124L23.8503 56.3498L24.6605 52.705C24.7726 52.2434 24.7751 51.9649 24.6694 51.8263C24.5365 51.6523 24.1818 51.6423 23.6908 51.6281H23.6811H17.7133L15.987 58.0075L15.9873 58.007Z" fill="#FEFEFE"/>
<path fill-rule="evenodd" clip-rule="evenodd" d="M33.209 56.3282L32.7948 58.1081H26.4166C25.4709 58.0804 24.9807 57.5562 25.1328 56.6592L25.9611 53.1407C26.2234 52.3543 26.5893 51.5884 27.8663 51.5264H32.3807C33.5679 51.5747 34.1961 52.1611 33.9543 53.0993L33.3744 55.5828H28.4045L28.86 54.01H31.8422L32.0906 53.0993H28.239L27.3693 56.3282H33.209Z" fill="#FEFEFE"/>
<path d="M32.8745 58.2095H26.4129C25.895 58.1944 25.4948 58.0327 25.2565 57.7419C25.0338 57.4708 24.9564 57.0906 25.0321 56.6427L25.0333 56.6364L25.8627 53.1133L25.8641 53.109C26.1245 52.3288 26.5146 51.491 27.8605 51.4255H27.8654H32.384C33.0914 51.4544 33.6124 51.6669 33.89 52.0406C34.1043 52.3288 34.1601 52.7036 34.0517 53.125L33.4541 55.6848H28.2689L28.7831 53.9094H31.7638L31.957 53.2012H28.3155L27.5004 56.2276H33.1274L33.1586 56.0942L33.4107 56.4301H33.2883L32.8742 58.2101L32.8745 58.2095ZM26.4174 58.007H32.7139L33.0808 56.4295H27.2366L28.1609 52.9981H32.2228L31.919 54.1114H28.9357L28.5387 55.482H33.2935L33.8551 53.0764C33.9497 52.709 33.9065 52.4017 33.7276 52.1608C33.4878 51.8383 33.0211 51.6541 32.378 51.6275H27.8682C26.6535 51.6875 26.318 52.3899 26.0582 53.1684L25.2316 56.6795C25.1656 57.072 25.2267 57.3862 25.4134 57.6133C25.6135 57.8573 25.9607 57.9933 26.4177 58.007H26.4174Z" fill="#FEFEFE"/>
<path fill-rule="evenodd" clip-rule="evenodd" d="M36.1247 58.129H33.9297L35.7106 51.5469H39.7902C40.7497 51.5746 41.3156 51.5815 41.0327 52.7473L40.8775 53.7306L38.7342 53.7203L38.8428 53.2029H37.4089L36.125 58.129H36.1247Z" fill="#FEFEFE"/>
<path d="M36.1242 58.2301H33.7969L35.6326 51.4458L39.8152 51.4464C40.394 51.463 40.8513 51.4761 41.0725 51.7661C41.2285 51.9703 41.2471 52.2885 41.1314 52.7673L40.9633 53.8323L38.6088 53.8209L38.7174 53.3041H37.4864L36.2083 58.2075L36.1405 58.2301H36.1239H36.1242ZM34.0615 58.0279H36.0462L37.3301 53.1018H38.9672L38.8583 53.6197L40.7904 53.6292L40.9336 52.7239C41.0333 52.3125 41.0262 52.0394 40.9116 51.8892C40.7489 51.6761 40.3342 51.6641 39.8095 51.6492L39.7883 51.6487H35.7878L34.0615 58.0281V58.0279Z" fill="#FEFEFE"/>
<path fill-rule="evenodd" clip-rule="evenodd" d="M47.5116 56.3281L48.3916 53.0993H44.6435L43.7737 56.3281H47.5116ZM48.5662 60.466C48.4059 61.1253 48.1987 61.7432 46.6556 61.7298L40.9199 61.6795L41.3312 60.1066L46.4984 60.1161L47.0889 58.101C47.0994 58.0647 44.2259 58.1084 42.8209 58.1084C41.8751 58.0807 41.3849 57.5565 41.537 56.6595L42.3653 53.141C42.6276 52.3545 42.9935 51.5887 44.2705 51.5267H48.7849C49.9721 51.5749 50.6003 52.1614 50.3585 53.0995L48.5659 60.4663L48.5662 60.466Z" fill="#FEFEFE"/>
<path d="M46.7048 61.8312C46.6882 61.8312 46.6713 61.8312 46.6545 61.8312L40.7891 61.7798L41.2529 60.0055L46.4224 60.0149L46.9569 58.1918C46.6233 58.183 45.6113 58.1912 44.7032 58.1987C44.0262 58.2041 43.3262 58.2098 42.8209 58.2098H42.818C42.3001 58.1947 41.9 58.033 41.6614 57.7422C41.4387 57.4711 41.3613 57.0909 41.437 56.6429L41.4381 56.6366L42.2676 53.1135L42.269 53.1092C42.5291 52.3291 42.9195 51.4912 44.2654 51.4258H44.2702H48.7889C49.4963 51.4547 50.0173 51.6672 50.2948 52.0409C50.5092 52.3291 50.5649 52.7039 50.4566 53.1252L48.6646 60.4906C48.486 61.2242 48.2141 61.8318 46.7048 61.8318V61.8312ZM41.0506 61.5792L46.6562 61.6284C46.6725 61.6284 46.6888 61.6284 46.7045 61.6284C48.1278 61.6284 48.3139 61.0665 48.4528 60.5026L50.26 53.0752C50.3543 52.7087 50.3111 52.4016 50.1322 52.1608C49.8924 51.8383 49.4257 51.6541 48.7826 51.6275H44.2728C43.0581 51.6875 42.7226 52.3899 42.4628 53.1684L41.6362 56.6795C41.5705 57.072 41.6313 57.3862 41.818 57.6136C42.018 57.8576 42.3653 57.9936 42.8223 58.0073C43.3268 58.0073 44.0256 58.0016 44.7015 57.9961C45.316 57.9913 45.8962 57.9864 46.3407 57.9856C47.1278 57.9844 47.1303 57.9873 47.1698 58.0393L47.2004 58.0798L47.1861 58.1292L46.5742 60.2172L41.4093 60.2077L41.0506 61.5792ZM47.5885 56.4292H43.6412L44.5655 52.9978H48.524L47.5888 56.4292H47.5885ZM43.9055 56.227H47.4339L48.2587 53.2007H44.7207L43.9055 56.227Z" fill="#FEFEFE"/>
<path fill-rule="evenodd" clip-rule="evenodd" d="M26.578 59.8087L25.2733 64.6105H28.5452L29.8085 59.7878L32.2313 59.8087L30.4876 66.4013C28.4315 66.3902 26.3771 66.3904 24.3209 66.3904C23.3752 66.3627 22.885 65.8385 23.0371 64.9415L24.3935 59.8084H26.5783L26.578 59.8087Z" fill="#FEFEFE"/>
<path d="M30.4946 66.4096H30.4883C28.5208 66.3987 26.5212 66.3984 24.5874 66.3987H24.3216C23.8312 66.3844 23.4553 66.2345 23.2341 65.9651C23.0263 65.7117 22.9575 65.3669 23.0298 64.9404L24.3879 59.8007H26.5895L26.5867 59.811L25.2848 64.6027H28.5399L29.8032 59.7801L32.2429 59.801L32.2403 59.811L30.4949 66.4096H30.4946ZM24.853 66.3824C26.7019 66.3824 28.6065 66.383 30.4823 66.393L32.2217 59.8167L29.8155 59.7961L28.5522 64.6187H25.2634L25.2662 64.6084L26.5681 59.8167H24.4002L23.0455 64.9435C22.9743 65.3646 23.0418 65.7051 23.2467 65.9545C23.4648 66.2202 23.8363 66.3679 24.3219 66.3821H24.5874C24.6758 66.3821 24.7644 66.3821 24.853 66.3821V66.3824Z" fill="#FEFEFE"/>
<path fill-rule="evenodd" clip-rule="evenodd" d="M12.4444 64.6233L13.2895 61.3944L16.8876 61.3893L16.027 64.6233H12.4444ZM8.69141 69.9201L11.0248 69.9321L11.9342 66.3924C11.9434 66.357 14.7032 66.4033 16.1085 66.4033C17.0677 66.3756 17.747 65.9031 18.0343 65.0061L18.9952 61.4359C19.1178 60.6494 19.1266 59.8836 17.8802 59.8216H11.4569L8.69141 69.9204V69.9201Z" fill="#FEFEFE"/>
<path d="M11.0319 69.9404H11.0256L8.68164 69.9284L8.6845 69.9181L11.4517 59.8133H17.881C18.3512 59.8367 18.6699 59.9593 18.8562 60.1881C19.1215 60.5137 19.0717 61.0034 19.004 61.437L18.0428 65.0081C17.7579 65.898 17.0896 66.383 16.1096 66.4113C15.5831 66.4113 14.868 66.4047 14.1764 66.3985C13.1117 66.3887 12.0113 66.3787 11.9419 66.3976L11.0319 69.9401V69.9404ZM8.70279 69.9121L11.0193 69.9241L11.927 66.3905C11.9299 66.3796 11.9325 66.3699 12.6253 66.371C13.0408 66.3722 13.5924 66.377 14.1764 66.3825C14.868 66.3887 15.5828 66.3953 16.109 66.3953C17.0813 66.3673 17.7444 65.8863 18.0271 65.0038L18.988 61.4339C19.0549 61.0045 19.1046 60.5189 18.8434 60.1984C18.6602 59.9733 18.3452 59.8527 17.8802 59.8296H11.4637L8.70279 69.9124V69.9121ZM16.0338 64.6313H12.4449V64.623L12.4372 64.621L13.2838 61.3862H13.2901L16.8987 61.381L16.8961 61.3913L16.0338 64.6313ZM12.4558 64.615H16.0216L16.8778 61.3973L13.2966 61.4024L12.4558 64.615Z" fill="#FEFEFE"/>
<path fill-rule="evenodd" clip-rule="evenodd" d="M21.3518 66.5167L18.9824 66.5044L21.7348 56.411L23.9298 56.4524L21.3518 66.5167Z" fill="#FEFEFE"/>
<path d="M21.3586 66.5247H21.3523L18.9727 66.5124L18.9755 66.5021L21.7296 56.4027H21.7359L23.9412 56.4444L23.9386 56.4544L21.3589 66.5247H21.3586ZM18.9938 66.4964L21.346 66.5087L23.92 56.4604L21.7416 56.4193L18.9938 66.4964Z" fill="#FEFEFE"/>
<path fill-rule="evenodd" clip-rule="evenodd" d="M36.5939 64.0057H34.3025C33.335 63.9146 32.5714 63.5675 32.6057 62.3105C32.7837 60.3257 33.5963 60.1261 35.4872 60.0755L41.3309 60.1066L40.9196 61.6795L35.5081 61.6755C34.7955 61.7352 34.8324 62.3 35.2966 62.2891C35.729 62.2926 36.1614 62.296 36.5941 62.2997L38.9312 62.3085C39.8987 62.3997 40.6624 62.7468 40.6281 64.0037C40.456 65.9362 40.0073 66.2787 37.8812 66.3941L31.4355 66.3967L31.8806 64.735L37.8812 64.7427C38.5937 64.683 38.4016 64.0148 37.9375 64.0257C37.505 64.0223 37.0269 64.01 36.5941 64.0065L36.5939 64.0057Z" fill="#FEFEFE"/>
<path d="M31.4241 66.4044L31.8734 64.7264H31.8797L37.8803 64.7342C38.2338 64.7044 38.351 64.527 38.3425 64.3711C38.3336 64.2042 38.1764 64.0274 37.9366 64.0331C37.72 64.0314 37.4885 64.0274 37.2647 64.0234C37.0409 64.0197 36.8094 64.0154 36.593 64.0137H34.3019C33.738 63.9606 33.3476 63.8294 33.0727 63.6015C32.7366 63.3224 32.5808 62.9002 32.5971 62.3103C32.7743 60.3358 33.5717 60.1187 35.4863 60.0672L41.3406 60.0984L41.338 60.1084L40.925 61.6872H40.9188L35.5072 61.6832C35.1237 61.7155 34.9579 61.8972 34.9662 62.0526C34.9722 62.1637 35.0736 62.2809 35.282 62.2809C35.2863 62.2809 35.2908 62.2809 35.2954 62.2809L36.5933 62.2911L38.9301 62.3C39.494 62.3531 39.8844 62.484 40.1594 62.7122C40.4955 62.9913 40.6512 63.4135 40.6349 64.0034C40.5558 64.8938 40.4203 65.5192 39.9916 65.886C39.5746 66.2425 38.8746 66.3476 37.8806 66.4016L31.4238 66.4042L31.4241 66.4044ZM31.886 64.7427L31.4453 66.3882L37.8803 66.3856C39.2162 66.313 39.6746 66.1359 39.9813 65.8737C40.406 65.5106 40.5403 64.8884 40.6192 64.0026C40.6352 63.4187 40.4815 63.0004 40.1494 62.7248C39.877 62.4988 39.4894 62.3688 38.9298 62.3163L36.5733 62.3074L35.296 62.2971C35.2914 62.2971 35.2868 62.2971 35.2823 62.2971C35.0633 62.2971 34.9567 62.172 34.9505 62.0537C34.9456 61.9658 34.991 61.8792 35.0776 61.8106C35.1771 61.7321 35.3257 61.6824 35.5069 61.6672L40.9128 61.6712L41.3197 60.1147L35.4866 60.0835C34.4826 60.1104 33.8538 60.1806 33.4082 60.4746C32.9389 60.784 32.7011 61.3333 32.6134 62.3114C32.5974 62.8953 32.7511 63.3135 33.0832 63.5892C33.3556 63.8152 33.7432 63.9451 34.3028 63.9977H36.5933C36.8096 63.9994 37.0412 64.0034 37.2649 64.0074C37.4887 64.0111 37.7202 64.0154 37.9363 64.0171C37.9395 64.0171 37.9426 64.0171 37.946 64.0171C38.137 64.0171 38.3467 64.1503 38.3585 64.3705C38.3673 64.5342 38.2464 64.7199 37.8806 64.7507L31.8854 64.7433L31.886 64.7427Z" fill="#FEFEFE"/>
<path fill-rule="evenodd" clip-rule="evenodd" d="M57.904 51.5264H59.8712L57.6854 60.4663C57.5242 61.1253 57.3178 61.7435 55.7747 61.7301L50.0391 61.6798L50.4503 60.1069L55.6175 60.1163L56.208 58.1012C56.2186 58.065 53.345 58.1087 51.94 58.1087C50.9942 58.081 50.5041 57.5568 50.6561 56.6598L51.8985 51.4441L54.2176 51.4761L52.8923 56.3287H56.6301L57.9037 51.5269L57.904 51.5264Z" fill="#FEFEFE"/>
<path d="M55.8253 61.8312C55.8082 61.8312 55.7911 61.8312 55.7736 61.8312L49.9082 61.7798L50.3724 60.0055L55.5418 60.0149L56.0763 58.1918C55.7427 58.183 54.7307 58.1912 53.8227 58.1987C53.1456 58.2041 52.4456 58.2098 51.9403 58.2098H51.9375C51.4196 58.1947 51.0194 58.033 50.7811 57.7422C50.5584 57.4711 50.481 57.0909 50.5567 56.6429L50.5581 56.6364L51.8194 51.3418L54.3503 51.3767L53.0255 56.2276H56.5527L57.8132 51.4747L57.862 51.4258H57.9041H60.0002L59.9696 51.5509L57.7837 60.4908C57.6983 60.8405 57.5979 61.1753 57.3156 61.4264C57.0049 61.7026 56.5304 61.8318 55.8256 61.8318L55.8253 61.8312ZM50.1697 61.5792L55.7753 61.6284C57.2924 61.6409 57.4428 61.0316 57.5868 60.442L59.7421 51.6275H57.9818L56.7082 56.4295H52.7597L54.0853 51.5749L51.978 51.5458L50.7551 56.6795C50.6893 57.072 50.7502 57.3862 50.9368 57.6133C51.1369 57.8573 51.4842 57.9933 51.9412 58.007C52.4456 58.007 53.1444 58.0013 53.8204 57.9958C54.4349 57.991 55.0151 57.9861 55.4595 57.9853C56.2466 57.9838 56.2492 57.987 56.2887 58.039L56.3192 58.0795L56.3049 58.129L55.693 60.2169L50.5281 60.2075L50.1694 61.5789L50.1697 61.5792Z" fill="#FEFEFE"/>
</g>
<defs>
<clipPath id="clip0_4950_4193">
<rect width="60" height="70" fill="white"/>
</clipPath>
</defs>
</svg>
