<svg width="24" height="24" viewBox="0 0 24 24" fill="none" xmlns="http://www.w3.org/2000/svg">
<path d="M9.34484 11.7161C10.1623 12.7746 10.8829 14.9564 11.5347 14.9564V20.2111L6.36716 19.1796L8.81537 10.811C8.99386 11.0636 9.15171 11.453 9.34484 11.7161ZM14.6958 11.7161C13.8783 12.7746 13.0931 14.9564 12.4688 14.9564V20.2111L17.6364 19.1796L15.1881 10.811C15.0096 11.0636 14.8889 11.453 14.6958 11.7161ZM8.08098 9.67068L6.09331 10.3605L0.865442 19.4326C0.710932 19.7007 0.944348 20.026 1.24782 19.9654L5.40708 19.1352C5.87745 17.5272 7.6859 11.2582 8.08098 9.67068ZM17.9099 10.3605L15.9223 9.67068C16.3067 11.2222 18.1268 17.5307 18.5961 19.1352L22.7554 19.9653C23.0588 20.0259 23.2923 19.7007 23.1377 19.4325L17.9099 10.3605Z" fill="#F47322"/>
<path fill-rule="evenodd" clip-rule="evenodd" d="M10.4776 3.53852C11.4206 2.99422 12.5823 2.99423 13.5252 3.53855L10.4776 3.53852ZM13.5252 3.53855C14.4682 4.08304 15.049 5.089 15.049 6.17775C15.049 6.6286 14.9005 7.08795 14.6077 7.6216C14.3116 8.16142 13.8954 8.73048 13.3945 9.41279C12.9005 10.0614 12.4356 11.2847 12.0014 11.9746C11.5672 11.2846 11.1024 10.0614 10.6084 9.4127C10.1072 8.73058 9.69098 8.16152 9.39499 7.6218C9.10238 7.08826 8.95391 6.62886 8.95391 6.17792C8.95391 5.08907 9.53466 4.08296 10.4776 3.53852M9.87762 2.49927C11.1918 1.74064 12.8109 1.74064 14.1252 2.49927C15.4394 3.25808 16.249 4.6602 16.249 6.17775C16.249 6.90448 16.0063 7.56716 15.6598 8.19874C15.3209 8.81658 14.8573 9.44797 14.3737 10.1067L14.3523 10.1358C13.8075 10.8509 13.2996 12.1464 12.8312 12.9135C12.4531 13.5327 11.5496 13.5327 11.1715 12.9134C10.7032 12.1464 10.1955 10.8508 9.65067 10.1358L9.64433 10.1275L9.63325 10.1122C9.1478 9.45154 8.68263 8.81844 8.34282 8.19883C7.99643 7.56719 7.75391 6.90455 7.75391 6.17792C7.75391 4.66046 8.56329 3.25812 9.87762 2.49927Z" fill="#F47322"/>
<path fill-rule="evenodd" clip-rule="evenodd" d="M11.9996 5.45375C11.6411 5.45375 11.3504 5.74442 11.3504 6.10297C11.3504 6.46153 11.6411 6.75219 11.9996 6.75219C12.3582 6.75219 12.6488 6.46153 12.6488 6.10297C12.6488 5.74442 12.3582 5.45375 11.9996 5.45375ZM10.1504 6.10297C10.1504 5.08168 10.9783 4.25375 11.9996 4.25375C13.0209 4.25375 13.8488 5.08168 13.8488 6.10297C13.8488 7.12427 13.0209 7.95219 11.9996 7.95219C10.9783 7.95219 10.1504 7.12427 10.1504 6.10297Z" fill="#F47322"/>
</svg>
