<svg width="31" height="30" viewBox="0 0 31 30" fill="none" xmlns="http://www.w3.org/2000/svg">
    <path fill-rule="evenodd" clip-rule="evenodd"
          d="M14.8046 10.2977C14.9186 10.2461 15.0372 10.2461 15.1512 10.2977L21.6344 13.2363C21.7859 13.305 21.8774 13.4461 21.8774 13.6112V21.0068C21.8774 22.192 20.9031 23.1571 19.7058 23.1571H19.333C19.1037 23.1571 18.9168 22.9719 18.9168 22.7449V17.3552C18.9168 16.3207 18.0675 15.4803 17.023 15.4803H12.9328C11.8881 15.4803 11.0389 16.3207 11.0389 17.3552V22.7449C11.0389 22.972 10.8519 23.1571 10.6227 23.1571H10.2499C9.05259 23.1571 8.07827 22.1922 8.07827 21.0068L8.07812 13.6116C8.07812 13.4465 8.16965 13.3054 8.32115 13.2367L14.8046 10.2977Z"
          fill="#F47322"/>
    <path d="M13.3406 17.4712H16.6168C16.8647 17.4712 17.0666 17.6707 17.0666 17.9162L17.0665 22.2333C17.0665 22.4151 16.9167 22.5634 16.7331 22.5634H13.224C13.0405 22.5634 12.8906 22.4152 12.8906 22.2333V17.9162C12.8906 17.6707 13.0923 17.4712 13.3406 17.4712Z"
          stroke="#F47322" stroke-width="1.1"/>
    <path d="M14.5868 7.75096L6.90072 11.2389C6.7578 11.3038 6.66602 11.4462 6.66602 11.6032V13.5642C6.66602 13.855 6.9665 14.0486 7.23131 13.9284L14.5868 10.5905C14.8494 10.4714 15.1506 10.4714 15.4132 10.5905L22.77 13.9285C23.0349 14.0487 23.3353 13.855 23.3353 13.5642V11.6032C23.3353 11.4462 23.2435 11.3038 23.1006 11.2389L15.4132 7.75094C15.1506 7.63179 14.8494 7.6318 14.5868 7.75096Z"
          stroke="#F47322" stroke-width="1.1" stroke-linecap="round"/>
</svg>
