<svg width="31" height="30" viewBox="0 0 31 30" fill="none" xmlns="http://www.w3.org/2000/svg">
<path d="M23.7426 8.25H8.40586C8.18495 8.25 8.00586 8.42909 8.00586 8.65V10.35C8.00586 10.5709 8.18495 10.75 8.40586 10.75H23.7426C23.9635 10.75 24.1426 10.5709 24.1426 10.35V8.65C24.1426 8.42909 23.9635 8.25 23.7426 8.25Z" stroke="#C8CACE" stroke-width="1.5" stroke-linecap="round"/>
<path d="M23.7426 13.75H8.40586C8.18495 13.75 8.00586 13.9291 8.00586 14.15V15.85C8.00586 16.0709 8.18495 16.25 8.40586 16.25H23.7426C23.9635 16.25 24.1426 16.0709 24.1426 15.85V14.15C24.1426 13.9291 23.9635 13.75 23.7426 13.75Z" stroke="#C8CACE" stroke-width="1.5" stroke-linecap="round"/>
<path d="M23.7426 19.25H8.40586C8.18495 19.25 8.00586 19.4291 8.00586 19.65V21.35C8.00586 21.5709 8.18495 21.75 8.40586 21.75H23.7426C23.9635 21.75 24.1426 21.5709 24.1426 21.35V19.65C24.1426 19.4291 23.9635 19.25 23.7426 19.25Z" stroke="#C8CACE" stroke-width="1.5" stroke-linecap="round"/>
</svg>
