<svg width="31" height="30" viewBox="0 0 31 30" fill="none" xmlns="http://www.w3.org/2000/svg">
<path fill-rule="evenodd" clip-rule="evenodd" d="M16.5421 22.2902C20.5683 22.2902 23.8322 19.0263 23.8322 15.0001C23.8322 10.9739 20.5683 7.70996 16.5421 7.70996C12.5159 7.70996 9.25195 10.9739 9.25195 15.0001C9.25195 19.0263 12.5159 22.2902 16.5421 22.2902ZM15.4977 13.9854C15.8378 14.2328 16.2398 14.3667 16.6521 14.3667C17.0643 14.3667 17.4663 14.2327 17.8064 13.9854C18.3115 13.6246 18.6104 13.0268 18.6104 12.4084C18.6104 11.3262 17.7343 10.4501 16.6521 10.4501C15.5698 10.4501 14.6938 11.3262 14.6938 12.4084C14.6937 13.0268 14.9926 13.6246 15.4976 13.9854H15.4977ZM20.8147 17.8304L20.8147 17.8304C20.7838 17.6655 20.7528 17.5006 20.7013 17.346C20.3405 16.1195 19.4541 15.13 18.2895 14.6147C18.2173 14.6868 18.1349 14.759 18.0421 14.8208C17.6298 15.1196 17.1557 15.2743 16.6506 15.2743C16.1455 15.2743 15.6611 15.1197 15.2591 14.8208C15.1458 14.7383 15.0427 14.6456 14.9499 14.5528C13.3936 15.1713 12.3114 16.6657 12.2289 18.3664C12.2187 18.4694 12.2599 18.5725 12.3321 18.655C12.4043 18.7374 12.5176 18.7786 12.6207 18.7786H20.4642C20.5776 18.7786 20.6807 18.7374 20.7528 18.655C20.825 18.5725 20.8662 18.4695 20.8662 18.3561C20.8662 18.3046 20.8662 18.253 20.8559 18.2118C20.8558 18.0881 20.8353 17.9541 20.8147 17.8304Z" fill="#C8CACE"/>
<path fill-rule="evenodd" clip-rule="evenodd" d="M16.5423 24.1115C21.5745 24.1115 25.6539 20.0321 25.6539 15C25.6539 9.96776 21.5745 5.88837 16.5423 5.88837C11.5101 5.88837 7.43073 9.96776 7.43073 15C7.43073 20.0321 11.5101 24.1115 16.5423 24.1115ZM16.5423 25.4466C22.3118 25.4466 26.9889 20.7695 26.9889 15C26.9889 9.23045 22.3118 4.55334 16.5423 4.55334C10.7728 4.55334 6.0957 9.23045 6.0957 15C6.0957 20.7695 10.7728 25.4466 16.5423 25.4466Z" fill="#C8CACE"/>
</svg>
