<svg width="33" height="33" viewBox="0 0 33 33" fill="none" xmlns="http://www.w3.org/2000/svg">
<path d="M31.625 17.8464H1.375C0.615997 17.8464 0 17.2304 0 16.4714C0 15.7124 0.615997 15.0964 1.375 15.0964H31.625C32.384 15.0964 33 15.7124 33 16.4714C33 17.2304 32.384 17.8464 31.625 17.8464Z" fill="#FFCF00"/>
<path d="M31.625 7.30469H1.375C0.615997 7.30469 0 6.68869 0 5.92969C0 5.17068 0.615997 4.55469 1.375 4.55469H31.625C32.384 4.55469 33 5.17068 33 5.92969C33 6.68869 32.384 7.30469 31.625 7.30469Z" fill="#FFCF00"/>
<path d="M31.625 28.3879H1.375C0.615997 28.3879 0 27.7719 0 27.0129C0 26.2539 0.615997 25.6379 1.375 25.6379H31.625C32.384 25.6379 33 26.2539 33 27.0129C33 27.7719 32.384 28.3879 31.625 28.3879Z" fill="#FFCF00"/>
</svg>
