<svg width="31" height="30" viewBox="0 0 31 30" fill="none" xmlns="http://www.w3.org/2000/svg">
    <path d="M12.3448 14.716C13.1623 15.7746 13.8829 17.9564 14.5347 17.9564V23.211L9.36716 22.1796L11.8154 13.811C11.9939 14.0636 12.1517 14.4529 12.3448 14.716ZM17.6958 14.716C16.8783 15.7746 16.0931 17.9564 15.4688 17.9564V23.211L20.6364 22.1796L18.1881 13.811C18.0096 14.0636 17.8889 14.4529 17.6958 14.716ZM11.081 12.6707L9.09331 13.3605L3.86544 22.4326C3.71093 22.7007 3.94435 23.0259 4.24782 22.9654L8.40708 22.1352C8.87745 20.5271 10.6859 14.2582 11.081 12.6707ZM20.9099 13.3605L18.9223 12.6707C19.3067 14.2222 21.1268 20.5307 21.5961 22.1351L25.7554 22.9653C26.0588 23.0259 26.2923 22.7006 26.1377 22.4325L20.9099 13.3605Z"
          fill="#C8CACE"/>
    <path fill-rule="evenodd" clip-rule="evenodd"
          d="M13.4776 6.53852C14.4206 5.99422 15.5823 5.99423 16.5252 6.53855L13.4776 6.53852ZM16.5252 6.53855C17.4682 7.08304 18.049 8.089 18.049 9.17775C18.049 9.6286 17.9005 10.088 17.6077 10.6216C17.3116 11.1614 16.8954 11.7305 16.3945 12.4128C15.9005 13.0614 15.4356 14.2847 15.0014 14.9746C14.5672 14.2846 14.1024 13.0614 13.6084 12.4127C13.1072 11.7306 12.691 11.1615 12.395 10.6218C12.1024 10.0883 11.9539 9.62886 11.9539 9.17792C11.9539 8.08907 12.5347 7.08296 13.4776 6.53852M12.8776 5.49927C14.1918 4.74064 15.8109 4.74064 17.1252 5.49927C18.4394 6.25808 19.249 7.6602 19.249 9.17775C19.249 9.90448 19.0063 10.5672 18.6598 11.1987C18.3209 11.8166 17.8573 12.448 17.3737 13.1067L17.3523 13.1358C16.8075 13.8509 16.2996 15.1464 15.8312 15.9135C15.4531 16.5327 14.5496 16.5327 14.1715 15.9134C13.7032 15.1464 13.1955 13.8508 12.6507 13.1358L12.6443 13.1275L12.6332 13.1122C12.1478 12.4515 11.6826 11.8184 11.3428 11.1988C10.9964 10.5672 10.7539 9.90455 10.7539 9.17792C10.7539 7.66046 11.5633 6.25812 12.8776 5.49927Z"
          fill="#C8CACE"/>
    <path fill-rule="evenodd" clip-rule="evenodd"
          d="M14.9996 8.45378C14.6411 8.45378 14.3504 8.74445 14.3504 9.103C14.3504 9.46156 14.6411 9.75222 14.9996 9.75222C15.3582 9.75222 15.6488 9.46156 15.6488 9.103C15.6488 8.74445 15.3582 8.45378 14.9996 8.45378ZM13.1504 9.103C13.1504 8.08171 13.9783 7.25378 14.9996 7.25378C16.0209 7.25378 16.8488 8.08171 16.8488 9.103C16.8488 10.1243 16.0209 10.9522 14.9996 10.9522C13.9783 10.9522 13.1504 10.1243 13.1504 9.103Z"
          fill="#C8CACE"/>
</svg>
