<svg width="24" height="24" viewBox="0 0 24 24" fill="none" xmlns="http://www.w3.org/2000/svg">
<path d="M21.7042 5.93505H20.6644C20.473 5.93505 20.3178 5.78416 20.3178 5.59825V4.58737C20.3178 4.40851 20.2448 4.23718 20.1149 4.11073C19.9849 3.98452 19.8087 3.91354 19.6247 3.91354H2.29658C1.9139 3.91354 1.60352 4.21509 1.60352 4.58736V19.4126C1.60352 19.5915 1.67652 19.7628 1.80658 19.8893C1.93639 20.0155 2.11286 20.0865 2.29659 20.0865H19.6247C19.8087 20.0865 19.9849 20.0155 20.115 19.8893C20.2448 19.7628 20.3178 19.5915 20.3178 19.4126L20.5397 18.065L22.1756 7.95686L22.3973 6.60899C22.3973 6.43036 22.3243 6.25903 22.1942 6.13258C22.0644 6.00613 21.8879 5.93505 21.7042 5.93505ZM2.94426 9.30092C2.94426 9.11477 3.09922 8.96389 3.29068 8.96389H15.8125C15.9043 8.96389 15.9923 8.99938 16.0574 9.0626C16.1224 9.12582 16.1589 9.21161 16.1589 9.30091V11.3916C16.1589 11.4809 16.1224 11.5667 16.0574 11.6299C15.9923 11.6931 15.9043 11.7286 15.8125 11.7286H3.29068C3.09922 11.7286 2.94426 11.5777 2.94426 11.3916V9.30092ZM9.22806 18.4501C9.22806 18.5394 9.19131 18.6252 9.12628 18.6884C9.06125 18.7516 8.97326 18.7871 8.8814 18.7871H3.29068C3.09922 18.7871 2.94426 18.6362 2.94426 18.4501V13.2377C2.94426 13.0515 3.09922 12.9007 3.29068 12.9007H8.8814C8.97326 12.9007 9.06125 12.9361 9.12628 12.9994C9.19131 13.0626 9.22781 13.1484 9.22781 13.2377L9.22806 18.4501ZM19.0669 18.4501C19.0669 18.5394 19.0301 18.6252 18.9651 18.6884C18.9001 18.7516 18.8118 18.7871 18.72 18.7871H11.6537C11.4624 18.7871 11.3072 18.6362 11.3072 18.4501V17.7763C11.3072 17.5901 11.4624 17.4392 11.6537 17.4392H18.72C18.8118 17.4392 18.9001 17.4747 18.9651 17.5379C19.0301 17.6012 19.0666 17.6869 19.0666 17.7762L19.0669 18.4501ZM19.0669 16.2449C19.0669 16.3342 19.0301 16.42 18.9651 16.4832C18.9001 16.5464 18.8118 16.5819 18.72 16.5819H11.6537C11.4624 16.5819 11.3072 16.431 11.3072 16.2451V15.5711C11.3072 15.3851 11.4624 15.2343 11.6537 15.2343H18.72C18.8118 15.2343 18.9001 15.2697 18.9651 15.333C19.0301 15.3962 19.0666 15.4817 19.0666 15.571L19.0669 16.2449ZM19.0669 13.9378C19.0669 14.0271 19.0301 14.1131 18.9651 14.1763C18.9001 14.2395 18.8118 14.275 18.72 14.275H11.6537C11.4624 14.275 11.3072 14.1241 11.3072 13.938V13.2642C11.3072 13.078 11.4624 12.9271 11.6537 12.9271H18.72C18.8118 12.9271 18.9001 12.9626 18.9651 13.0259C19.0301 13.0891 19.0666 13.1749 19.0666 13.2642L19.0669 13.9378ZM18.9492 7.44699C18.9492 7.53631 18.9125 7.62233 18.8475 7.68555C18.7824 7.74877 18.6942 7.78426 18.6023 7.78426H3.17306C2.9816 7.78426 2.82664 7.63337 2.82664 7.44722V5.57688C2.82664 5.39074 2.9816 5.23985 3.17306 5.23985H18.6023C18.6942 5.23985 18.7824 5.27534 18.8475 5.33856C18.9125 5.40178 18.949 5.48757 18.949 5.57688L18.9492 7.44699Z" fill="#F47322"/>
</svg>
