<svg width="40" height="40" viewBox="0 0 40 40" fill="none" xmlns="http://www.w3.org/2000/svg">
<g clip-path="url(#clip0)">
<path d="M31.326 16.3289V14.8448C31.326 14.1987 30.8004 13.6731 30.1543 13.6731H27.9838L25.3281 16.3289H31.326Z" fill="#FFCF00"/>
<path d="M12.5013 23.6712C11.8542 23.6712 11.3296 23.1466 11.3296 22.4995C11.3296 21.8525 11.8542 21.3279 12.5013 21.3279H17.015L19.6708 18.6721H8.67383V25.1553C8.67383 25.8014 9.19944 26.327 9.84549 26.327H12.016L14.6717 23.6712H12.5013Z" fill="#FFCF00"/>
<path d="M9.67697 28.6658C7.81683 28.5775 6.33054 27.0367 6.33054 25.1551V14.8445C6.33054 12.9063 7.90737 11.3295 9.84553 11.3295H27.0133L33.2759 5.0669C25.6192 -1.84028 13.5485 -1.7956 5.87656 5.87636C-1.67582 13.4287 -1.95303 25.3945 5.07257 33.2701L9.67697 28.6658Z" fill="#FFCF00"/>
<path d="M34.9273 6.72949L30.3229 11.3339C32.183 11.4222 33.6693 12.963 33.6693 14.8446V25.1552C33.6693 27.0934 32.0925 28.6702 30.1544 28.6702H12.9866L6.724 34.9328C14.3807 41.84 26.4514 41.7953 34.1233 34.1233C41.6757 26.571 41.9529 14.6052 34.9273 6.72949Z" fill="#FFCF00"/>
<path d="M31.326 25.1553V18.6721H22.9847C22.937 18.7198 16.671 24.9859 15.3299 26.327H30.1543C30.8004 26.327 31.326 25.8014 31.326 25.1553Z" fill="#FFCF00"/>
<path d="M9.84549 13.6731C9.19944 13.6731 8.67383 14.1987 8.67383 14.8448V16.3289H22.0142L24.6699 13.6731H9.84549Z" fill="#FFCF00"/>
</g>
<defs>
<clipPath id="clip0">
<rect width="40" height="40" fill="white"/>
</clipPath>
</defs>
</svg>
