<svg width="30" height="30" viewBox="0 0 30 30" fill="none" xmlns="http://www.w3.org/2000/svg">
<g clip-path="url(#clip0)">
<path d="M27.0675 5.63432C27.0675 4.01283 25.7482 2.69351 24.1267 2.69351H21.9631H15.2498V1.49864C15.2498 0.670905 14.6943 0 14.0084 0H8.71824C8.03289 0 7.47685 0.670905 7.47685 1.49864V2.69407H5.87342C4.25193 2.69407 2.93262 4.01338 2.93262 5.63488C2.93262 6.81881 3.63597 7.84136 4.64654 8.30743V10.2466C3.63597 10.7127 2.93262 11.7353 2.93262 12.9192C2.93262 14.1031 3.63597 15.1257 4.64654 15.5918V17.531C3.63597 17.9966 2.93262 19.0196 2.93262 20.2035C2.93262 21.3875 3.63597 22.41 4.64654 22.8761V24.3867C3.63597 24.8528 2.93262 25.8753 2.93262 27.0593C2.93262 28.6808 4.25193 30.0001 5.87342 30.0001H24.1267C25.7482 30.0001 27.0675 28.6808 27.0675 27.0593C27.0675 25.8753 26.3641 24.8528 25.3536 24.3867V22.876C26.3641 22.41 27.0675 21.3874 27.0675 20.2035C27.0675 19.0195 26.3641 17.997 25.3536 17.5309V15.5917C26.3641 15.1256 27.0675 14.1031 27.0675 12.9191C27.0675 11.7352 26.3641 10.7127 25.3536 10.2466V8.30688C26.3641 7.8413 27.0675 6.81875 27.0675 5.63432ZM24.1267 13.8613H23.3553V19.2598H24.1267C24.6472 19.2598 25.0693 19.682 25.0693 20.2025C25.0693 20.723 24.6472 21.1452 24.1267 21.1452H23.3553V26.1156H24.1267C24.6472 26.1156 25.0693 26.5377 25.0693 27.0582C25.0693 27.5788 24.6472 28.0009 24.1267 28.0009H5.87342C5.3529 28.0009 4.93077 27.5788 4.93077 27.0582C4.93077 26.5377 5.3529 26.1156 5.87342 26.1156H6.64475V21.1452H5.87342C5.3529 21.1452 4.93077 20.723 4.93077 20.2025C4.93077 19.682 5.3529 19.2598 5.87342 19.2598H6.64475V13.8613H5.87342C5.3529 13.8613 4.93077 13.4392 4.93077 12.9187C4.93077 12.3981 5.3529 11.976 5.87342 11.976H6.64475V6.57741H5.87342C5.3529 6.57741 4.93077 6.15528 4.93077 5.63475C4.93077 5.11423 5.3529 4.69209 5.87342 4.69209H7.47697H8.03695H15.2498H21.9627H24.1262C24.6467 4.69209 25.0688 5.11423 25.0688 5.63475C25.0688 6.15528 24.6467 6.57741 24.1262 6.57741H23.3549V11.976H24.1262C24.6467 11.976 25.0688 12.3981 25.0688 12.9187C25.0688 13.4392 24.6472 13.8613 24.1267 13.8613Z" fill="#FFCF00"/>
<path d="M15 7.4248C15 7.4248 14.4675 8.1831 13.7342 9.38399C10.9208 13.9892 5.14056 25.1205 15 25.1205C26.3701 25.1205 16.9413 10.3171 15.2498 7.79145C15.0919 7.5562 15 7.4248 15 7.4248ZM15.6734 21.9684C17.0106 21.351 17.224 20.0896 16.8958 18.7534C16.6181 17.6214 18.3604 17.1413 18.6387 18.2728C19.1457 20.3374 18.6602 22.5713 16.5856 23.529C15.535 24.0136 14.6164 22.4565 15.6734 21.9684Z" fill="#FFCF00"/>
</g>
<defs>
<clipPath id="clip0">
<rect width="30" height="30" fill="white"/>
</clipPath>
</defs>
</svg>
