<svg width="1200" height="1200" viewBox="0 0 1200 1200" fill="none" xmlns="http://www.w3.org/2000/svg">
<path d="M596.847 188.488C493.503 188.488 409.727 286.298 409.727 406.953C409.727 490.631 450.023 563.305 509.195 600L440.578 631.801L257.979 716.489C240.339 725.31 231.535 740.267 231.535 761.436V962.538C232.986 987.681 248.072 1011.12 272.531 1011.51H922.151C950.075 1009.08 964.201 986.592 964.476 962.538V761.436C964.476 740.267 955.672 725.31 938.033 716.489L762.045 631.801L688.907 597.151C745.651 559.63 783.968 488.527 783.968 406.954C783.967 286.298 700.19 188.488 596.847 188.488ZM295.023 265.312C250.55 267.001 215.304 286.245 188.526 316.908C158.906 353.826 144.466 397.658 144.187 441.262C146.006 505.74 174.856 566.78 226.216 598.708L21.163 693.997C7.05 699.289 0 711.636 0 731.041V892.439C1.102 913.844 12.216 931.834 33.055 932.142H169.339V761.436C171.594 715.797 193.026 678.907 231.535 660.905L367.782 596.088C378.366 589.913 388.513 581.52 398.215 570.936C342.039 484.26 334.238 380.445 370.442 289.135C346.895 274.724 320.432 265.463 295.023 265.312ZM903.609 265.312C874.526 265.921 847.649 276.631 825.57 291.756C860.787 383.893 851.073 487.772 799.088 568.276C810.555 581.506 822.492 591.653 834.841 598.71L965.806 660.905C1005.7 682.786 1026.28 720.003 1026.67 761.437V932.144H1166.91C1189.97 930.153 1199.8 911.757 1200 892.44V731.042C1200 713.401 1192.95 701.055 1178.84 693.997L976.406 597.379C1028.9 558.671 1055.27 500.659 1055.78 441.262C1054.38 394.25 1040.02 350.598 1011.44 316.908C981.57 284.509 944.526 265.655 903.609 265.312Z" fill="black"/>
</svg>
