<svg width="36" height="36" viewBox="0 0 36 36" fill="none" xmlns="http://www.w3.org/2000/svg">
<path d="M19.4001 0C13.5553 0 8.80005 4.75528 8.80005 10.6C8.80005 12.3546 9.23873 14.0943 10.0727 15.6373L18.8204 31.4584C18.9369 31.6693 19.1588 31.8 19.4001 31.8C19.6414 31.8 19.8633 31.6693 19.9797 31.4584L28.7307 15.6321C29.5614 14.0943 30.0001 12.3545 30.0001 10.6C30.0001 4.75528 25.2448 0 19.4001 0ZM19.4001 15.9C16.4777 15.9 14.1001 13.5224 14.1001 10.6C14.1001 7.67765 16.4777 5.30004 19.4001 5.30004C22.3224 5.30004 24.7 7.67765 24.7 10.6C24.7 13.5224 22.3224 15.9 19.4001 15.9Z" fill="#FFCF00"/>
</svg>
