<svg width="93" height="54" viewBox="0 0 93 54" fill="none" xmlns="http://www.w3.org/2000/svg">
    <path d="M0.25 4.85393C0.25 2.31168 2.31476 0.25 4.86272 0.25H88.1368C90.6848 0.25 92.7496 2.31168 92.7496 4.85393V49.1461C92.7496 51.6883 90.6848 53.75 88.1368 53.75H4.86272C2.31476 53.75 0.25 51.6883 0.25 49.1461V4.85393Z"
          fill="#F3F3F3" stroke="#B1B1B1" stroke-width="0.5"/>
    <path d="M6 37.1765C6 36.5267 6.54534 36 7.21805 36H85.782C86.4547 36 87 36.5267 87 37.1765V44.8235C87 45.4733 86.4547 46 85.782 46H7.21805C6.54534 46 6 45.4733 6 44.8235V37.1765Z"
          fill="#B1B1B1"/>
    <path d="M42 9.07872C42 8.40853 42.5443 7.86523 43.2157 7.86523H85.8498C86.5213 7.86523 87.0655 8.40853 87.0655 9.07872V12.7192C87.0655 13.3894 86.5213 13.9326 85.8498 13.9326H43.2157C42.5443 13.9326 42 13.3894 42 12.7192V9.07872Z"
          fill="#DCDCDC"/>
    <path d="M6 9.57143C6 8.15127 6.45826 7 7.02354 7H13.9765C14.5417 7 15 8.15127 15 9.57143V13.4286C15 14.8487 14.5417 16 13.9765 16H7.02354C6.45826 16 6 14.8487 6 13.4286V9.57143Z"
          fill="white"/>
</svg>
