<svg width="24" height="24" viewBox="0 0 24 24" fill="none" xmlns="http://www.w3.org/2000/svg">
    <path fill-rule="evenodd" clip-rule="evenodd"
          d="M9.59175 3.20001C9.43448 3.34232 9.26921 3.47553 9.09675 3.59901C8.79875 3.79901 8.46375 3.93701 8.11175 4.00701C7.95875 4.03701 7.79875 4.05001 7.47975 4.07501C6.67875 4.13901 6.27775 4.17101 5.94375 4.28901C5.56185 4.42385 5.21498 4.64248 4.9286 4.92886C4.64222 5.21524 4.42359 5.56211 4.28875 5.94401C4.17075 6.27801 4.13875 6.67901 4.07475 7.48001C4.06384 7.69177 4.04114 7.90277 4.00675 8.11201C3.93675 8.46401 3.79875 8.79901 3.59875 9.09701C3.51175 9.22701 3.40775 9.34901 3.19975 9.59201C2.67875 10.204 2.41775 10.51 2.26475 10.83C1.91175 11.57 1.91175 12.43 2.26475 13.17C2.41775 13.49 2.67875 13.796 3.19975 14.408C3.40775 14.651 3.51175 14.773 3.59875 14.903C3.79875 15.201 3.93675 15.536 4.00675 15.888C4.03675 16.041 4.04975 16.201 4.07475 16.52C4.13875 17.321 4.17075 17.722 4.28875 18.056C4.42359 18.4379 4.64222 18.7848 4.9286 19.0712C5.21498 19.3575 5.56185 19.5762 5.94375 19.711C6.27775 19.829 6.67875 19.861 7.47975 19.925C7.79875 19.95 7.95875 19.963 8.11175 19.993C8.46375 20.063 8.79875 20.202 9.09675 20.401C9.22675 20.488 9.34875 20.592 9.59175 20.8C10.2037 21.321 10.5098 21.582 10.8298 21.735C11.5698 22.088 12.4298 22.088 13.1698 21.735C13.4898 21.582 13.7958 21.321 14.4078 20.8C14.6508 20.592 14.7728 20.488 14.9028 20.401C15.2008 20.201 15.5357 20.063 15.8877 19.993C16.0407 19.963 16.2008 19.95 16.5198 19.925C17.3208 19.861 17.7217 19.829 18.0557 19.711C18.4377 19.5762 18.7845 19.3575 19.0709 19.0712C19.3573 18.7848 19.5759 18.4379 19.7108 18.056C19.8288 17.722 19.8607 17.321 19.9247 16.52C19.9497 16.201 19.9628 16.041 19.9928 15.888C20.0628 15.536 20.2017 15.201 20.4007 14.903C20.4877 14.773 20.5917 14.651 20.7997 14.408C21.3207 13.796 21.5818 13.49 21.7348 13.17C22.0878 12.43 22.0878 11.57 21.7348 10.83C21.5818 10.51 21.3207 10.204 20.7997 9.59201C20.6574 9.43473 20.5242 9.26947 20.4007 9.09701C20.2009 8.79889 20.0623 8.4641 19.9928 8.11201C19.9584 7.90277 19.9357 7.69177 19.9247 7.48001C19.8607 6.67901 19.8288 6.27801 19.7108 5.94401C19.5759 5.56211 19.3573 5.21524 19.0709 4.92886C18.7845 4.64248 18.4377 4.42385 18.0557 4.28901C17.7217 4.17101 17.3208 4.13901 16.5198 4.07501C16.308 4.0641 16.097 4.0414 15.8877 4.00701C15.5357 3.9375 15.2009 3.79882 14.9028 3.59901C14.7305 3.47527 14.5652 3.34207 14.4078 3.20001C13.7958 2.67901 13.4898 2.41801 13.1698 2.26501C12.8044 2.09039 12.4047 1.99976 11.9998 1.99976C11.5948 1.99976 11.1951 2.09039 10.8298 2.26501C10.5098 2.41801 10.2037 2.67901 9.59175 3.20001ZM15.8308 8.17001C15.983 8.32261 16.0686 8.52941 16.0686 8.74501C16.0686 8.96061 15.983 9.1674 15.8308 9.32001L9.31975 15.832C9.24556 15.9132 9.15569 15.9785 9.05556 16.024C8.95543 16.0695 8.84711 16.0943 8.73716 16.0967C8.6272 16.0992 8.51788 16.0794 8.4158 16.0385C8.31372 15.9975 8.22099 15.9363 8.14322 15.8585C8.06545 15.7808 8.00425 15.688 7.96331 15.586C7.92236 15.4839 7.90253 15.3746 7.90501 15.2646C7.90749 15.1546 7.93223 15.0463 7.97773 14.9462C8.02323 14.8461 8.08855 14.7562 8.16975 14.682L14.6798 8.17101C14.8324 8.01871 15.0392 7.93318 15.2548 7.93318C15.4703 7.93318 15.6771 8.01871 15.8298 8.17101M15.7968 14.714C15.7968 15.0018 15.6824 15.2777 15.479 15.4812C15.2755 15.6847 14.9995 15.799 14.7118 15.799C14.424 15.799 14.148 15.6847 13.9445 15.4812C13.7411 15.2777 13.6267 15.0018 13.6267 14.714C13.6267 14.4262 13.7411 14.1503 13.9445 13.9468C14.148 13.7433 14.424 13.629 14.7118 13.629C14.9995 13.629 15.2755 13.7433 15.479 13.9468C15.6824 14.1503 15.7968 14.4262 15.7968 14.714ZM9.28675 10.374C9.57451 10.374 9.85048 10.2597 10.054 10.0562C10.2574 9.85274 10.3717 9.57677 10.3717 9.28901C10.3717 9.00125 10.2574 8.72527 10.054 8.5218C9.85048 8.31832 9.57451 8.20401 9.28675 8.20401C8.99899 8.20401 8.72302 8.31832 8.51954 8.5218C8.31606 8.72527 8.20175 9.00125 8.20175 9.28901C8.20175 9.57677 8.31606 9.85274 8.51954 10.0562C8.72302 10.2597 8.99899 10.374 9.28675 10.374Z"
          fill="black"/>
</svg>
