<svg width="50" height="50" viewBox="0 0 50 50" fill="none" xmlns="http://www.w3.org/2000/svg">
    <circle cx="25" cy="25" r="24.5" fill="#E28033" stroke="#1A1919"/>
    <path d="M13 17.5V13.9375C13 13.4197 13.4197 13 13.9375 13H17.5C18.0178 13 18.4375 13.4197 18.4375 13.9375C18.4375 14.4553 18.0178 14.875 17.5 14.875H14.875V17.5C14.875 18.0178 14.4553 18.4375 13.9375 18.4375C13.4197 18.4375 13 18.0178 13 17.5ZM36.0625 13H32.5C31.9822 13 31.5625 13.4197 31.5625 13.9375C31.5625 14.4553 31.9822 14.875 32.5 14.875H35.125V17.5C35.125 18.0178 35.5447 18.4375 36.0625 18.4375C36.5803 18.4375 37 18.0178 37 17.5V13.9375C37 13.4197 36.5803 13 36.0625 13ZM17.5 35.125H14.875V32.5C14.875 31.9822 14.4553 31.5625 13.9375 31.5625C13.4197 31.5625 13 31.9822 13 32.5V36.0625C13 36.5803 13.4197 37 13.9375 37H17.5C18.0178 37 18.4375 36.5803 18.4375 36.0625C18.4375 35.5447 18.0178 35.125 17.5 35.125ZM36.0625 31.5625C35.5447 31.5625 35.125 31.9822 35.125 32.5V35.125H32.5C31.9822 35.125 31.5625 35.5447 31.5625 36.0625C31.5625 36.5803 31.9822 37 32.5 37H36.0625C36.5803 37 37 36.5803 37 36.0625V32.5C37 31.9822 36.5803 31.5625 36.0625 31.5625ZM24.1797 17.6172V23.2422C24.1797 23.76 23.76 24.1797 23.2422 24.1797H17.6172C17.0994 24.1797 16.6797 23.76 16.6797 23.2422V17.6172C16.6797 17.0994 17.0994 16.6797 17.6172 16.6797H23.2422C23.76 16.6797 24.1797 17.0994 24.1797 17.6172ZM22.3047 18.5547H18.5547V22.3047H22.3047V18.5547ZM32.8516 24.1797H27.2266C26.7087 24.1797 26.2891 23.76 26.2891 23.2422V17.6172C26.2891 17.0994 26.7087 16.6797 27.2266 16.6797H32.8516C33.3694 16.6797 33.7891 17.0994 33.7891 17.6172V23.2422C33.7891 23.76 33.3694 24.1797 32.8516 24.1797ZM31.9141 18.5547H28.1641V22.3047H31.9141V18.5547ZM24.1797 27.2266V32.8516C24.1797 33.3694 23.76 33.7891 23.2422 33.7891H17.6172C17.0994 33.7891 16.6797 33.3694 16.6797 32.8516V27.2266C16.6797 26.7087 17.0994 26.2891 17.6172 26.2891H23.2422C23.76 26.2891 24.1797 26.7087 24.1797 27.2266ZM22.3047 28.1641H18.5547V31.9141H22.3047V28.1641ZM31.6445 32.582H28.4336C27.9158 32.582 27.4961 32.1624 27.4961 31.6445V28.4336C27.4961 27.9158 27.9158 27.4961 28.4336 27.4961H31.6445C32.1624 27.4961 32.582 27.9158 32.582 28.4336V31.6445C32.582 32.1624 32.1624 32.582 31.6445 32.582ZM30.707 29.3711H29.3711V30.707H30.707V29.3711Z"
          fill="white"/>
</svg>
