<svg width="28" height="28" viewBox="0 0 28 28" fill="none" xmlns="http://www.w3.org/2000/svg">
<g clip-path="url(#clip0)">
<path d="M14 17.1529C11.1955 17.1529 8.91382 19.4346 8.91382 22.239C8.91382 25.0436 11.1955 27.3253 14 27.3253C14.4719 27.3253 14.9394 27.2606 15.3894 27.133C15.6071 27.0713 15.7336 26.8449 15.6718 26.6272C15.6101 26.4095 15.3837 26.283 15.166 26.3447C14.7887 26.4516 14.3964 26.5059 14 26.5059C11.6473 26.5059 9.7332 24.5918 9.7332 22.239C9.7332 19.8863 11.6473 17.9722 14 17.9722C16.3527 17.9722 18.2669 19.8863 18.2669 22.239C18.2669 23.5242 17.6957 24.7286 16.6998 25.5434C16.5247 25.6867 16.4989 25.9447 16.6421 26.1199C16.7854 26.2951 17.0436 26.3208 17.2187 26.1775C18.4055 25.2066 19.0862 23.771 19.0862 22.239C19.0862 19.4346 16.8046 17.1529 14 17.1529Z" fill="#FFCF00"/>
<path d="M25.9343 13.1512V12.609C25.9343 6.02844 20.5806 0.674805 14 0.674805C12.3151 0.674805 10.6851 1.02065 9.15545 1.70266C7.67845 2.3612 6.36847 3.29849 5.26181 4.48849C5.10776 4.6542 5.11716 4.91341 5.28281 5.06747C5.44846 5.22158 5.70768 5.21217 5.86179 5.04647C7.9613 2.78897 10.9275 1.49419 14 1.49419C20.1258 1.49419 25.11 6.47551 25.1148 12.6002C25.0225 11.9853 24.4908 11.5123 23.8506 11.5123H22.8073C22.5489 9.42666 21.5569 7.50238 19.9938 6.0688C18.3521 4.56303 16.2235 3.7338 14 3.7338C11.7586 3.7338 9.61718 4.57479 7.97032 6.10188C6.42589 7.53393 5.44873 9.44329 5.19258 11.5123H4.14936C3.50908 11.5123 2.97735 11.9855 2.8852 12.6005C2.8869 10.3936 3.53653 8.26051 4.76443 6.43121C4.89054 6.24336 4.84045 5.98884 4.65254 5.86273C4.46474 5.73673 4.21023 5.78666 4.08406 5.97463C2.76369 7.94184 2.06577 10.236 2.06577 12.6091V13.1513C0.913992 13.227 0 14.1875 0 15.3581V21.9216C0 23.1414 0.992414 24.1339 2.21233 24.1339H2.87104V24.489C2.87104 25.1939 3.44449 25.7674 4.14941 25.7674H5.93217C6.63709 25.7674 7.21055 25.1939 7.21055 24.489V12.7907C7.21055 12.1149 6.68336 11.5602 6.01869 11.5155C6.55763 7.5773 9.98069 4.55319 14 4.55319C18.0027 4.55319 21.4424 7.58419 21.9815 11.5156C21.3167 11.5601 20.7895 12.1148 20.7895 12.7907V24.4891C20.7895 25.194 21.3629 25.7675 22.0678 25.7675H23.8506C24.5555 25.7675 25.129 25.1939 25.129 24.4891V24.1339H25.7877C27.0076 24.1339 28 23.1415 28 21.9216V15.3581C28 14.1875 27.086 13.227 25.9343 13.1512ZM2.21233 23.3145C1.4443 23.3145 0.819383 22.6896 0.819383 21.9216V15.3581C0.819383 14.5901 1.44424 13.9652 2.21233 13.9652H2.87104V23.3145H2.21233ZM6.39111 12.7907V24.489C6.39111 24.7421 6.18521 24.948 5.93212 24.948H4.14936C3.89627 24.948 3.69037 24.7421 3.69037 24.489V12.7907C3.69037 12.5376 3.89627 12.3317 4.14936 12.3317H5.93212C6.18521 12.3317 6.39111 12.5376 6.39111 12.7907ZM27.1806 21.9216C27.1806 22.6896 26.5558 23.3145 25.7877 23.3145H25.129V16.9204C25.129 16.6941 24.9456 16.5107 24.7194 16.5107C24.4931 16.5107 24.3097 16.6941 24.3097 16.9204V24.489C24.3097 24.7421 24.1038 24.948 23.8506 24.948H22.0679C21.8148 24.948 21.6089 24.7421 21.6089 24.489V12.7907C21.6089 12.5376 21.8148 12.3317 22.0679 12.3317H23.8506C24.1038 12.3317 24.3097 12.5376 24.3097 12.7907V14.9779C24.3097 15.2042 24.4931 15.3876 24.7194 15.3876C24.9456 15.3876 25.129 15.2042 25.129 14.9779V13.9652H25.7877C26.5557 13.9652 27.1806 14.59 27.1806 15.3581V21.9216Z" fill="#FFCF00"/>
<path d="M10.7214 14.9805C10.9477 14.9805 11.1311 14.7971 11.1311 14.5709V11.2513C11.1311 11.025 10.9477 10.8416 10.7214 10.8416C10.4951 10.8416 10.3118 11.025 10.3118 11.2513V14.5709C10.3118 14.7971 10.4951 14.9805 10.7214 14.9805Z" fill="#FFCF00"/>
<path d="M18.9178 11.4142C18.6915 11.4142 18.5082 11.5976 18.5082 11.8239V13.9981C18.5082 14.2244 18.6916 14.4078 18.9178 14.4078C19.1441 14.4078 19.3275 14.2244 19.3275 13.9981V11.8239C19.3276 11.5976 19.1441 11.4142 18.9178 11.4142Z" fill="#FFCF00"/>
<path d="M12.7704 15.4929V10.3292C12.7704 10.1029 12.587 9.91949 12.3607 9.91949C12.1345 9.91949 11.951 10.1029 11.951 10.3292V15.4929C11.951 15.7191 12.1345 15.9026 12.3607 15.9026C12.587 15.9026 12.7704 15.7192 12.7704 15.4929Z" fill="#FFCF00"/>
<path d="M14.4097 15.0319V10.7903C14.4097 10.564 14.2262 10.3806 14 10.3806C13.7738 10.3806 13.5903 10.564 13.5903 10.7903V15.0319C13.5903 15.2582 13.7738 15.4416 14 15.4416C14.2262 15.4416 14.4097 15.2582 14.4097 15.0319Z" fill="#FFCF00"/>
<path d="M17.6883 15.4929V10.3292C17.6883 10.1029 17.5049 9.91949 17.2786 9.91949C17.0524 9.91949 16.869 10.1029 16.869 10.3292V15.4929C16.869 15.7191 17.0524 15.9026 17.2786 15.9026C17.5049 15.9026 17.6883 15.7192 17.6883 15.4929Z" fill="#FFCF00"/>
<path d="M16.049 13.4255V12.3966C16.049 12.1704 15.8656 11.9869 15.6393 11.9869C15.4131 11.9869 15.2297 12.1704 15.2297 12.3966V13.4255C15.2297 13.6518 15.4131 13.8352 15.6393 13.8352C15.8656 13.8352 16.049 13.6518 16.049 13.4255Z" fill="#FFCF00"/>
<path d="M9.49181 13.4255V12.3966C9.49181 12.1704 9.30839 11.9869 9.08215 11.9869C8.85585 11.9869 8.67249 12.1704 8.67249 12.3966V13.4255C8.67249 13.6518 8.85591 13.8352 9.08215 13.8352C9.30839 13.8353 9.49181 13.6518 9.49181 13.4255Z" fill="#FFCF00"/>
<path d="M16.3156 21.6005L13.1096 19.7495C12.8788 19.6161 12.6031 19.6161 12.3722 19.7495C12.1413 19.8827 12.0035 20.1215 12.0035 20.3881V24.0901C12.0035 24.3567 12.1413 24.5954 12.3722 24.7288C12.6031 24.8621 12.8788 24.8621 13.1096 24.7288L16.3156 22.8778C16.5465 22.7444 16.6843 22.5057 16.6843 22.2391C16.6843 21.9725 16.5465 21.7337 16.3156 21.6005ZM12.8229 23.9481V20.53L15.783 22.2391L12.8229 23.9481Z" fill="#FFCF00"/>
</g>
<defs>
<clipPath id="clip0">
<rect width="28" height="28" fill="white"/>
</clipPath>
</defs>
</svg>
