<svg width="24" height="24" viewBox="0 0 24 24" fill="none" xmlns="http://www.w3.org/2000/svg">
<path d="M9.62937 12.6256C8.95607 12.6256 8.31037 12.3581 7.83424 11.882C7.35826 11.4059 7.0908 10.7602 7.0908 10.087H3.70595C3.25717 10.087 2.82667 10.2652 2.50934 10.5827C2.19188 10.9 2.01367 11.3305 2.01367 11.7793V17.7029C2.01367 18.1517 2.19188 18.5822 2.50934 18.8995C2.82667 19.2169 3.25717 19.3952 3.70595 19.3952H4.12909V21.3432C4.12909 21.5887 4.40777 21.7303 4.60599 21.5855L7.26419 19.6448C7.61111 19.2978 7.45458 19.3952 13.8601 19.3952C14.309 19.3952 14.7394 19.217 15.0569 18.8995C15.3742 18.5822 15.5525 18.1517 15.5525 17.7029V12.6258L9.62937 12.6256ZM4.97509 15.5872C4.7507 15.5872 4.53552 15.4981 4.37686 15.3394C4.21806 15.1807 4.12895 14.9654 4.12895 14.741C4.12895 14.5166 4.21806 14.3013 4.37686 14.1426C4.53552 13.984 4.75072 13.8949 4.97509 13.8949C5.19962 13.8949 5.41481 13.984 5.57347 14.1426C5.73213 14.3013 5.82137 14.5166 5.82137 14.741C5.82137 14.9654 5.73213 15.1807 5.57347 15.3394C5.41481 15.4981 5.19961 15.5872 4.97509 15.5872ZM8.78294 15.5872C8.55855 15.5872 8.34337 15.4981 8.18471 15.3394C8.02591 15.1807 7.9368 14.9654 7.9368 14.741C7.9368 14.5166 8.02591 14.3013 8.18471 14.1426C8.34337 13.984 8.55856 13.8949 8.78294 13.8949C9.00747 13.8949 9.22265 13.984 9.38131 14.1426C9.53997 14.3013 9.62922 14.5166 9.62922 14.741C9.62922 14.9654 9.53997 15.1807 9.38131 15.3394C9.22265 15.4981 9.00745 15.5872 8.78294 15.5872ZM12.5908 15.5872C12.3664 15.5872 12.1512 15.4981 11.9926 15.3394C11.8338 15.1807 11.7446 14.9654 11.7446 14.741C11.7446 14.5166 11.8338 14.3013 11.9926 14.1426C12.1512 13.984 12.3664 13.8949 12.5908 13.8949C12.8153 13.8949 13.0305 13.984 13.1892 14.1426C13.3478 14.3013 13.4371 14.5166 13.4371 14.741C13.4371 14.9654 13.3478 15.1807 13.1892 15.3394C13.0305 15.4981 12.8153 15.5872 12.5908 15.5872Z" fill="#F47322"/>
<path d="M20.29 2.06638H10.1358C9.68686 2.06638 9.2565 2.24459 8.93903 2.56205C8.62171 2.87937 8.44336 3.30987 8.44336 3.75866V9.68222C8.44336 10.131 8.62171 10.5615 8.93903 10.8788C9.2565 11.1963 9.68686 11.3745 10.1358 11.3745C16.5373 11.3745 16.385 11.2772 16.7317 11.6241L19.3899 13.5649C19.5881 13.7096 19.8668 13.568 19.8668 13.3226V11.3745H20.2899C20.7387 11.3745 21.1692 11.1963 21.4865 10.8788C21.804 10.5615 21.9822 10.131 21.9822 9.68221V3.75865C21.9822 3.30987 21.804 2.87936 21.4865 2.56204C21.1692 2.24458 20.7388 2.06638 20.29 2.06638ZM15.2129 9.00065C12.9789 6.76664 13.0975 6.88523 13.0636 6.84287C12.7984 6.55006 12.6576 6.16529 12.6714 5.77051C12.685 5.37554 12.8521 5.00157 13.137 4.72788C13.4219 4.45419 13.8024 4.3022 14.1975 4.3043C14.5728 4.31054 14.9331 4.45177 15.2129 4.7021C15.5057 4.43677 15.8904 4.29611 16.2853 4.30985C16.6801 4.32359 17.0541 4.49061 17.3279 4.7755C17.6016 5.06052 17.7536 5.44089 17.7515 5.83597C17.7515 6.72022 17.1803 7.03326 15.2129 9.00065Z" fill="#F47322"/>
</svg>
