<svg width="24" height="24" viewBox="0 0 24 24" fill="none" xmlns="http://www.w3.org/2000/svg">
    <path fill-rule="evenodd" clip-rule="evenodd"
          d="M9.59175 3.19999C9.43448 3.3423 9.26921 3.47552 9.09675 3.59899C8.79875 3.79899 8.46375 3.93699 8.11175 4.00699C7.95875 4.03699 7.79875 4.04999 7.47975 4.07499C6.67875 4.13899 6.27775 4.17099 5.94375 4.28899C5.56185 4.42383 5.21498 4.64246 4.9286 4.92884C4.64222 5.21522 4.42359 5.56209 4.28875 5.94399C4.17075 6.27799 4.13875 6.67899 4.07475 7.47999C4.06384 7.69176 4.04114 7.90275 4.00675 8.11199C3.93675 8.46399 3.79875 8.79899 3.59875 9.09699C3.51175 9.22699 3.40775 9.34899 3.19975 9.59199C2.67875 10.204 2.41775 10.51 2.26475 10.83C1.91175 11.57 1.91175 12.43 2.26475 13.17C2.41775 13.49 2.67875 13.796 3.19975 14.408C3.40775 14.651 3.51175 14.773 3.59875 14.903C3.79875 15.201 3.93675 15.536 4.00675 15.888C4.03675 16.041 4.04975 16.201 4.07475 16.52C4.13875 17.321 4.17075 17.722 4.28875 18.056C4.42359 18.4379 4.64222 18.7848 4.9286 19.0711C5.21498 19.3575 5.56185 19.5762 5.94375 19.711C6.27775 19.829 6.67875 19.861 7.47975 19.925C7.79875 19.95 7.95875 19.963 8.11175 19.993C8.46375 20.063 8.79875 20.202 9.09675 20.401C9.22675 20.488 9.34875 20.592 9.59175 20.8C10.2037 21.321 10.5098 21.582 10.8298 21.735C11.5698 22.088 12.4298 22.088 13.1698 21.735C13.4898 21.582 13.7958 21.321 14.4078 20.8C14.6508 20.592 14.7728 20.488 14.9028 20.401C15.2008 20.201 15.5357 20.063 15.8877 19.993C16.0407 19.963 16.2008 19.95 16.5198 19.925C17.3208 19.861 17.7217 19.829 18.0557 19.711C18.4377 19.5762 18.7845 19.3575 19.0709 19.0711C19.3573 18.7848 19.5759 18.4379 19.7108 18.056C19.8288 17.722 19.8607 17.321 19.9247 16.52C19.9497 16.201 19.9628 16.041 19.9928 15.888C20.0628 15.536 20.2017 15.201 20.4007 14.903C20.4877 14.773 20.5917 14.651 20.7997 14.408C21.3207 13.796 21.5818 13.49 21.7348 13.17C22.0878 12.43 22.0878 11.57 21.7348 10.83C21.5818 10.51 21.3207 10.204 20.7997 9.59199C20.6574 9.43472 20.5242 9.26945 20.4007 9.09699C20.2009 8.79888 20.0623 8.46408 19.9928 8.11199C19.9584 7.90275 19.9357 7.69176 19.9247 7.47999C19.8607 6.67899 19.8288 6.27799 19.7108 5.94399C19.5759 5.56209 19.3573 5.21522 19.0709 4.92884C18.7845 4.64246 18.4377 4.42383 18.0557 4.28899C17.7217 4.17099 17.3208 4.13899 16.5198 4.07499C16.308 4.06408 16.097 4.04138 15.8877 4.00699C15.5357 3.93748 15.2009 3.7988 14.9028 3.59899C14.7305 3.47526 14.5652 3.34205 14.4078 3.19999C13.7958 2.67899 13.4898 2.41799 13.1698 2.26499C12.8044 2.09037 12.4047 1.99974 11.9998 1.99974C11.5948 1.99974 11.1951 2.09037 10.8298 2.26499C10.5098 2.41799 10.2037 2.67899 9.59175 3.19999ZM15.8308 8.16999C15.983 8.3226 16.0686 8.52939 16.0686 8.74499C16.0686 8.96059 15.983 9.16739 15.8308 9.31999L9.31975 15.832C9.24556 15.9132 9.15569 15.9785 9.05556 16.024C8.95543 16.0695 8.84711 16.0942 8.73716 16.0967C8.6272 16.0992 8.51788 16.0794 8.4158 16.0384C8.31372 15.9975 8.22099 15.9363 8.14322 15.8585C8.06545 15.7807 8.00425 15.688 7.96331 15.5859C7.92236 15.4839 7.90253 15.3745 7.90501 15.2646C7.90749 15.1546 7.93223 15.0463 7.97773 14.9462C8.02323 14.8461 8.08855 14.7562 8.16975 14.682L14.6798 8.17099C14.8324 8.0187 15.0392 7.93316 15.2548 7.93316C15.4703 7.93316 15.6771 8.0187 15.8298 8.17099M15.7968 14.714C15.7968 15.0018 15.6824 15.2777 15.479 15.4812C15.2755 15.6847 14.9995 15.799 14.7118 15.799C14.424 15.799 14.148 15.6847 13.9445 15.4812C13.7411 15.2777 13.6267 15.0018 13.6267 14.714C13.6267 14.4262 13.7411 14.1503 13.9445 13.9468C14.148 13.7433 14.424 13.629 14.7118 13.629C14.9995 13.629 15.2755 13.7433 15.479 13.9468C15.6824 14.1503 15.7968 14.4262 15.7968 14.714ZM9.28675 10.374C9.57451 10.374 9.85048 10.2597 10.054 10.0562C10.2574 9.85273 10.3717 9.57675 10.3717 9.28899C10.3717 9.00123 10.2574 8.72526 10.054 8.52178C9.85048 8.31831 9.57451 8.20399 9.28675 8.20399C8.99899 8.20399 8.72302 8.31831 8.51954 8.52178C8.31606 8.72526 8.20175 9.00123 8.20175 9.28899C8.20175 9.57675 8.31606 9.85273 8.51954 10.0562C8.72302 10.2597 8.99899 10.374 9.28675 10.374Z"
          fill="black"/>
</svg>