<svg width="28" height="28" viewBox="0 0 28 28" fill="none" xmlns="http://www.w3.org/2000/svg">
<g clip-path="url(#clip0)">
<path d="M26.5668 11.0617L24.6015 10.7283C24.3968 10.0674 24.1335 9.42982 23.8118 8.82151L24.97 7.2013C25.4613 6.5111 25.3853 5.56939 24.7828 4.97277L23.0398 3.22973C22.7122 2.90218 22.2794 2.72086 21.8173 2.72086C21.4546 2.72086 21.1095 2.83199 20.8171 3.04256L19.191 4.20069C18.5593 3.86729 17.8984 3.59238 17.214 3.38766L16.8865 1.44574C16.7461 0.609317 16.0266 0.00100708 15.1785 0.00100708H12.716C11.8679 0.00100708 11.1485 0.609317 11.0081 1.44574L10.6688 3.43445C10.0137 3.63917 9.37617 3.90823 8.76786 4.23578L7.15935 3.07765C6.86689 2.86708 6.51594 2.75595 6.15329 2.75595C5.69121 2.75595 5.25253 2.93727 4.93082 3.26483L3.18193 5.00787C2.58532 5.60448 2.50343 6.54619 2.99476 7.23639L4.16459 8.88C3.84288 9.49416 3.58552 10.1317 3.38665 10.7927L1.44474 11.1202C0.60831 11.2606 0 11.98 0 12.8282V15.2907C0 16.1388 0.60831 16.8582 1.44474 16.9986L3.43344 17.3379C3.63816 17.993 3.90722 18.6305 4.23478 19.2388L3.0825 20.8415C2.59117 21.5317 2.66721 22.4734 3.26967 23.07L5.01271 24.813C5.34026 25.1406 5.7731 25.3219 6.23518 25.3219C6.59783 25.3219 6.94293 25.2108 7.23538 25.0002L8.87899 23.8304C9.46976 24.1404 10.0898 24.3919 10.7273 24.5908L11.0549 26.5561C11.1953 27.3925 11.9147 28.0008 12.7628 28.0008H15.2312C16.0793 28.0008 16.7987 27.3925 16.9391 26.5561L17.2725 24.5908C17.9335 24.3861 18.571 24.1229 19.1793 23.8011L20.7995 24.9593C21.092 25.1698 21.4429 25.281 21.8056 25.281C22.2677 25.281 22.7005 25.0997 23.0281 24.7721L24.7711 23.0291C25.3677 22.4324 25.4496 21.4907 24.9583 20.8005L23.8001 19.1745C24.1218 18.5603 24.3909 17.9228 24.5898 17.2677L26.5551 16.9401C27.3915 16.7997 27.9998 16.0803 27.9998 15.2322V12.7697C28.0115 11.9215 27.4032 11.2021 26.5668 11.0617ZM26.4323 15.2322C26.4323 15.3082 26.3796 15.3725 26.3036 15.3842L23.8469 15.7937C23.5369 15.8463 23.2913 16.0744 23.2152 16.3727C22.993 17.2326 22.6537 18.0573 22.1975 18.8235C22.0396 19.0926 22.0513 19.426 22.2326 19.6834L23.6773 21.7189C23.7183 21.7773 23.7124 21.8651 23.6598 21.9177L21.9167 23.6608C21.8758 23.7017 21.8348 23.7076 21.8056 23.7076C21.7705 23.7076 21.7412 23.6959 21.7178 23.6783L19.6882 22.2336C19.4367 22.0523 19.0974 22.0406 18.8284 22.1985C18.0621 22.6547 17.2374 22.994 16.3776 23.2162C16.0734 23.2923 15.8453 23.5438 15.7985 23.8479L15.3832 26.3046C15.3715 26.3806 15.3072 26.4333 15.2312 26.4333H12.7687C12.6926 26.4333 12.6283 26.3806 12.6166 26.3046L12.2072 23.8479C12.1545 23.5379 11.9264 23.2923 11.6281 23.2162C10.7917 22.9998 9.98448 22.6664 9.22994 22.2336C9.10711 22.1634 8.96673 22.1283 8.8322 22.1283C8.67427 22.1283 8.5105 22.1751 8.37597 22.2745L6.32877 23.731C6.29952 23.7485 6.27028 23.7602 6.24103 23.7602C6.21763 23.7602 6.17084 23.7544 6.1299 23.7134L4.38685 21.9704C4.33421 21.9177 4.32836 21.8358 4.36931 21.7715L5.80819 19.7535C5.98952 19.4962 6.00122 19.1569 5.84329 18.8879C5.38706 18.1275 5.03611 17.3028 4.81384 16.4429C4.73195 16.1446 4.48629 15.9165 4.18213 15.8639L1.70795 15.4427C1.63191 15.431 1.57927 15.3667 1.57927 15.2907V12.8282C1.57927 12.7521 1.63191 12.6878 1.70795 12.6761L4.14704 12.2666C4.45704 12.214 4.70856 11.9859 4.7846 11.6817C5.00101 10.8219 5.33441 9.99133 5.7848 9.2251C5.94272 8.95604 5.92518 8.62264 5.74385 8.37112L4.28742 6.32393C4.24647 6.26543 4.25232 6.1777 4.30497 6.12505L6.04801 4.38201C6.08895 4.34107 6.1299 4.33522 6.15914 4.33522C6.19424 4.33522 6.22348 4.34692 6.24688 4.36446L8.26483 5.80335C8.52219 5.98467 8.86144 5.99637 9.13051 5.83845C9.89089 5.38221 10.7156 5.03127 11.5754 4.809C11.8738 4.72711 12.1019 4.48145 12.1545 4.17729L12.5756 1.70311C12.5873 1.62707 12.6517 1.57443 12.7277 1.57443H15.1902C15.2663 1.57443 15.3306 1.62707 15.3423 1.70311L15.7517 4.1422C15.8044 4.4522 16.0325 4.70371 16.3366 4.77975C17.2199 5.00202 18.0621 5.34712 18.8459 5.8092C19.115 5.96713 19.4484 5.95543 19.7057 5.77411L21.7237 4.32352C21.7529 4.30597 21.7822 4.29427 21.8114 4.29427C21.8348 4.29427 21.8816 4.30012 21.9226 4.34107L23.6656 6.08411C23.7183 6.13675 23.7241 6.21864 23.6832 6.28298L22.2384 8.31263C22.0571 8.56414 22.0454 8.90339 22.2033 9.17245C22.6596 9.93869 22.9988 10.7634 23.2211 11.6232C23.2971 11.9274 23.5486 12.1555 23.8528 12.2023L26.3094 12.6176C26.3855 12.6293 26.4381 12.6936 26.4381 12.7697V15.2322H26.4323Z" fill="#FFCF00"/>
<path d="M14.0029 7.95493C10.6688 7.95493 7.96069 10.6631 7.96069 13.9971C7.96069 17.3311 10.6688 20.0392 14.0029 20.0392C17.3369 20.0392 20.045 17.3311 20.045 13.9971C20.045 10.6631 17.3369 7.95493 14.0029 7.95493ZM14.0029 18.46C11.5404 18.46 9.53996 16.4596 9.53996 13.9971C9.53996 11.5346 11.5404 9.53419 14.0029 9.53419C16.4653 9.53419 18.4657 11.5346 18.4657 13.9971C18.4657 16.4596 16.4653 18.46 14.0029 18.46Z" fill="#FFCF00"/>
</g>
<defs>
<clipPath id="clip0">
<rect width="28" height="28" fill="white"/>
</clipPath>
</defs>
</svg>
