<svg width="24" height="24" viewBox="0 0 24 24" fill="none" xmlns="http://www.w3.org/2000/svg">
<path d="M11.9914 19.2839C16.0176 19.2839 19.2875 16.0385 19.2875 12.0122C19.2875 7.98601 16.0177 4.71609 11.9914 4.71609C7.96522 4.71609 4.69531 7.98588 4.69531 12.0122C4.71982 16.0141 7.96527 19.2839 11.9918 19.2839H11.9914ZM8.89236 10.4749C9.30716 10.4749 9.69761 10.6458 9.96607 10.9386L12.4062 9.45006C12.3574 9.30368 12.333 9.13279 12.333 8.96207C12.333 8.13246 13.0163 7.44921 13.8459 7.44921C14.6755 7.44921 15.3588 8.13246 15.3588 8.96207C15.3588 9.79169 14.6755 10.4749 13.8459 10.4749C13.4311 10.4749 13.0407 10.304 12.7722 10.0113L10.332 11.4998C10.3809 11.6461 10.4052 11.817 10.4052 11.9878C10.4052 12.1586 10.3809 12.305 10.332 12.4757L12.7722 13.9642C13.0406 13.6958 13.4311 13.5006 13.8459 13.5006C14.6755 13.5006 15.3588 14.1838 15.3588 15.0134C15.3588 15.843 14.6755 16.5263 13.8459 16.5263C13.0163 16.5263 12.333 15.843 12.333 15.0134C12.333 14.8425 12.3574 14.6962 12.4062 14.5254L9.96607 13.0369C9.69765 13.3054 9.30719 13.5006 8.89236 13.5006C8.06274 13.5006 7.3795 12.8174 7.3795 11.9878C7.35499 11.1581 8.03821 10.4749 8.89236 10.4749Z" fill="#F47322"/>
<path fill-rule="evenodd" clip-rule="evenodd" d="M12.0449 21.0968C17.069 21.0968 21.1417 17.024 21.1417 12C21.1417 6.97596 17.069 2.90318 12.0449 2.90318C7.02089 2.90318 2.9481 6.97596 2.9481 12C2.9481 17.024 7.02089 21.0968 12.0449 21.0968ZM12.0449 22.4297C17.8051 22.4297 22.4746 17.7602 22.4746 12C22.4746 6.23984 17.8051 1.57031 12.0449 1.57031C6.28476 1.57031 1.61523 6.23984 1.61523 12C1.61523 17.7602 6.28476 22.4297 12.0449 22.4297Z" fill="#F47322"/>
</svg>
