<svg width="30" height="30" viewBox="0 0 30 30" fill="none" xmlns="http://www.w3.org/2000/svg">
<g clip-path="url(#clip0)">
<path d="M19.7481 24.6557C19.797 24.6639 19.8456 24.6679 19.8936 24.6679C20.3155 24.6679 20.6879 24.3632 20.7595 23.9333L21.6384 18.6598C21.7182 18.1811 21.3948 17.7282 20.916 17.6484C20.4371 17.5683 19.9843 17.892 19.9045 18.3708L19.0256 23.6443C18.9458 24.1231 19.2693 24.576 19.7481 24.6557Z" fill="#FFCF00"/>
<path d="M9.29904 23.9337C9.3707 24.3636 9.74301 24.6683 10.1649 24.6683C10.2129 24.6683 10.2616 24.6644 10.3105 24.6562C10.7893 24.5763 11.1128 24.1235 11.0329 23.6447L10.154 18.3713C10.0742 17.8924 9.62148 17.5691 9.14259 17.6488C8.66377 17.7286 8.34033 18.1814 8.42013 18.6602L9.29904 23.9337Z" fill="#FFCF00"/>
<path d="M29.1211 10.6055H26.0279L19.2605 2.14628C18.9574 1.76735 18.4043 1.70577 18.0252 2.00905C17.6462 2.31227 17.5847 2.86534 17.888 3.24438L23.7768 10.6055H6.22318L12.1121 3.24438C12.4153 2.86534 12.3538 2.31222 11.9749 2.00905C11.5958 1.70577 11.0427 1.76729 10.7395 2.14628L3.97213 10.6055H0.878906C0.393516 10.6055 0 10.999 0 11.4844V15C0 15.4854 0.393516 15.8789 0.878906 15.8789H1.97379L5.3073 27.5461C5.41506 27.9235 5.75994 28.1836 6.15234 28.1836H23.8477C24.2401 28.1836 24.5849 27.9235 24.6928 27.5461L28.0262 15.8789H29.1211C29.6065 15.8789 30 15.4854 30 15V11.4844C30 10.999 29.6065 10.6055 29.1211 10.6055ZM23.1847 26.4258H6.81527L3.80191 15.8789H26.1981L23.1847 26.4258ZM28.2422 14.1211C25.2313 14.1211 4.61016 14.1211 1.75781 14.1211V12.3633H28.2422V14.1211Z" fill="#FFCF00"/>
<path d="M15 24.668C15.4854 24.668 15.8789 24.2745 15.8789 23.7891V18.5156C15.8789 18.0302 15.4854 17.6367 15 17.6367C14.5146 17.6367 14.1211 18.0302 14.1211 18.5156V23.7891C14.1211 24.2745 14.5146 24.668 15 24.668Z" fill="#FFCF00"/>
</g>
<defs>
<clipPath id="clip0">
<rect width="30" height="30" fill="white"/>
</clipPath>
</defs>
</svg>
