<svg width="30" height="30" viewBox="0 0 30 30" fill="none" xmlns="http://www.w3.org/2000/svg">
<g clip-path="url(#clip0)">
<path d="M29.1211 10.6055H26.0279L19.2605 2.14628C18.9574 1.76735 18.4043 1.70577 18.0252 2.00905C17.6462 2.31227 17.5847 2.86534 17.888 3.24438L23.7768 10.6055H6.22318L12.1121 3.24438C12.4153 2.86534 12.3538 2.31222 11.9749 2.00905C11.5958 1.70577 11.0427 1.76729 10.7395 2.14628L3.97213 10.6055H0.878906C0.393516 10.6055 0 10.999 0 11.4844V13.2422C0 13.7276 0.393516 14.1211 0.878906 14.1211H29.1211C29.6065 14.1211 30 13.7276 30 13.2422V11.4844C30 10.999 29.6065 10.6055 29.1211 10.6055Z" fill="#FFCF00"/>
<path d="M5.30727 27.5462C5.41509 27.9235 5.75997 28.1836 6.15237 28.1836H23.8477C24.2401 28.1836 24.585 27.9235 24.6928 27.5462L28.0262 15.8789H1.97382L5.30727 27.5462ZM19.0257 23.6446L19.9046 18.3712C19.9844 17.8924 20.4372 17.5687 20.916 17.6487C21.3948 17.7285 21.7183 18.1813 21.6385 18.6602L20.7596 23.9336C20.6879 24.3635 20.3155 24.6682 19.8937 24.6682C19.8457 24.6682 19.797 24.6643 19.7481 24.6561C19.2693 24.5763 18.9458 24.1234 19.0257 23.6446ZM14.1211 18.5156C14.1211 18.0302 14.5146 17.6367 15 17.6367C15.4854 17.6367 15.8789 18.0302 15.8789 18.5156V23.7891C15.8789 24.2745 15.4854 24.668 15 24.668C14.5146 24.668 14.1211 24.2745 14.1211 23.7891V18.5156ZM9.14264 17.6487C9.62153 17.569 10.0743 17.8924 10.1541 18.3712L11.033 23.6446C11.1128 24.1234 10.7894 24.5763 10.3105 24.6561C10.2617 24.6642 10.213 24.6682 10.165 24.6682C9.74305 24.6682 9.37075 24.3636 9.29909 23.9336L8.42018 18.6602C8.34038 18.1813 8.66382 17.7285 9.14264 17.6487Z" fill="#FFCF00"/>
</g>
<defs>
<clipPath id="clip0">
<rect width="30" height="30" fill="white"/>
</clipPath>
</defs>
</svg>
