<svg width="441" height="274" xmlns="http://www.w3.org/2000/svg">
    <path
        d="M75.252 1.507c-3.58.78-8.75 2.16-11.5 3.06-2.75.91-7.7 3-11 4.64-3.3 1.65-8.02 4.37-10.5 6.05-2.48 1.68-7.81 6.23-11.86 10.12-4.05 3.88-9.3 9.76-11.67 13.06-2.36 3.3-6.37 10.27-8.89 15.5-2.52 5.23-5.75 14-7.18 19.5-2.09 8.05-2.6 12.43-2.65 22.5-.04 6.88.49 15.2 1.16 18.5.67 3.3 2.15 8.92 3.3 12.5 1.14 3.57 3.75 9.88 5.8 14 2.05 4.13 6.4 10.88 9.66 15 3.26 4.13 9.05 9.85 12.88 12.73 3.82 2.88 9.76 6.59 13.2 8.25 3.46 1.67 6.73 4.02 7.34 5.27.59 1.24.82 2.81.5 3.5-.33.69-8.61 12.61-18.42 26.5-9.81 13.89-19.5 27.72-21.54 30.75-3.28 4.86-3.7 6.2-3.66 11.5.02 4.19.64 6.98 2.03 9.25 1.1 1.79 4.02 4.6 6.5 6.25 2.61 1.74 6.49 3.26 9.25 3.63 3.58.48 5.86.15 9.25-1.33 4.09-1.79 5.95-4.04 20.58-24.88 8.85-12.61 20.95-30.57 26.9-39.92 5.96-9.35 11.66-19.36 12.67-22.25 1.02-2.89 1.86-7.16 1.87-9.5.01-2.34-.7-6.28-1.58-8.75-.87-2.47-2.51-5.62-3.62-7-1.12-1.37-3.45-3.44-5.18-4.6-1.73-1.15-6.29-3.15-10.14-4.45-3.85-1.29-9.47-4-12.5-6.03-3.03-2.02-7.69-6.1-10.36-9.05-2.68-2.95-6.04-7.4-7.48-9.87-1.44-2.47-3.67-7.42-4.96-11-1.45-3.98-2.56-9.79-2.88-15-.38-6.04-.05-10.53 1.12-15.5.92-3.85 3.08-9.92 4.82-13.5 2.19-4.52 5.6-8.95 11.2-14.54 5.6-5.6 10.01-9 14.54-11.2 3.58-1.73 9.2-3.92 12.5-4.87 5.18-1.49 12.89-1.8 56.55-2.31 45.83-.53 50.8-.74 53.25-2.33 1.48-.96 3.6-3.21 4.7-5 1.58-2.58 1.99-5.01 1.99-11.75s-.41-9.17-1.99-11.75c-1.1-1.79-3.46-4.15-5.25-5.25-3.15-1.93-4.97-1.99-57.75-1.92-43.05.06-55.87.38-61 1.49zm172.18.07c-1.82.9-4.3 3.04-5.5 4.75-1.69 2.41-2.26 4.92-2.56 11.11-.29 6.32.02 8.83 1.5 11.93 1.04 2.16 3.45 4.94 5.38 6.18 3.49 2.25 3.6 2.26 54 2.63l50.5.38c12.4 4.1 18.81 7.11 22.25 9.33 3.44 2.23 8.05 5.85 10.25 8.05 2.2 2.2 5.81 6.81 8.02 10.25 2.22 3.44 4.96 8.95 6.1 12.25 1.26 3.65 2.27 9.73 2.58 15.5.39 7.1.08 11.14-1.19 16-.94 3.58-3.31 9.65-5.25 13.5-2.36 4.66-5.91 9.37-10.65 14.09-5.03 5.01-9.31 8.16-14.61 10.76-4.12 2.02-10.65 4.34-14.5 5.15-3.85.8-9.7 1.48-13 1.5-4.31.02-7.13.66-10 2.27-2.65 1.49-4.76 3.75-6.26 6.73-1.58 3.16-2.26 6.29-2.27 10.5-.01 4.33.63 7.25 2.3 10.5 1.66 3.21 3.59 5.17 6.77 6.84 4.19 2.19 5.23 2.3 16.96 1.78 7.49-.33 15.9-1.39 21-2.64 4.68-1.15 12.32-3.9 17-6.11 4.68-2.2 11.2-5.95 14.5-8.33 3.3-2.37 8.97-7.4 12.61-11.18 3.63-3.77 8.78-10.23 11.45-14.36 2.67-4.12 6.27-10.87 8.01-15 1.74-4.12 4.21-11.55 5.48-16.5 1.86-7.22 2.32-11.67 2.32-22.5.01-10.67-.46-15.39-2.23-22.5-1.23-4.95-3.82-12.6-5.74-17-1.93-4.4-5.91-11.6-8.84-16-2.94-4.4-7.76-10.51-10.7-13.57-2.95-3.07-8.29-7.73-11.86-10.36-3.57-2.63-9.54-6.31-13.25-8.18-3.71-1.86-10.69-4.62-15.5-6.12l-8.75-2.73c-107.24-.52-113.34-.38-116.32 1.1zm-155.68 76.86c-2.2.77-5.12 2.72-6.5 4.33-1.37 1.61-3.06 4.67-3.73 6.8-.68 2.13-1.24 5.22-1.25 6.87 0 1.65.44 4.69.99 6.75.54 2.06 2.23 5.18 3.74 6.92 1.51 1.74 4.21 3.76 6 4.5 2.46 1.01 10.63 1.33 33.75 1.33h30.5l6 6 .03 136.5c3.49 6.84 6 9.68 7.97 10.87 2.83 1.71 5.12 2.12 12 2.12 6.79.01 9.21-.4 12-2.05 1.93-1.13 4.53-3.6 5.78-5.5l2.28-3.44v-172c-3.55-5.42-6.6-8.02-9.07-9.26-4.47-2.25-4.68-2.26-50.49-2.2-36.9.04-46.79.33-50 1.46zm156.56.74c-2.44 1.24-5.37 3.53-6.5 5.08-2.04 2.8-2.06 3.58-2.06 90.18 0 87.24 0 87.36 2.1 90.18 1.16 1.55 3.64 3.72 5.5 4.82 2.69 1.58 5.19 2 11.9 1.99 6.16 0 9.4-.49 11.75-1.75 1.79-.96 4.26-3.2 5.5-4.99l2.25-3.25 1-140.45c4.53-4.53 4.9-4.56 36.78-5.05 21.74-.34 32.87-.88 34.22-1.66 1.1-.64 2.99-2.21 4.19-3.5 1.21-1.29 2.9-4.03 3.75-6.09.86-2.06 1.55-5.89 1.54-8.5-.01-2.61-.85-6.55-1.86-8.75-1.01-2.2-2.69-4.78-3.73-5.74s-3.69-2.4-5.89-3.21c-3.29-1.2-12.21-1.47-50-1.51-45.83-.06-46.02-.05-50.44 2.2z"
        fill="#fff" />
</svg>