<svg version="1.2" xmlns="http://www.w3.org/2000/svg" width="494" height="524">

    <g id="Слой 1">
        <path id="&lt;Compound Path&gt;" fill-rule="evenodd"
              d="M484.8 498c-9.2-4.5-24-15.9-31.1-24.3-8.9-10.8-2.2-13.2-6.7-19.8-4.5-6.5-3.4-6.8-1-13.4 2.3-6.6 15.8-4.5 21.4-5.1 5.6-.6 7.9-3.7 7.2-6.7-.7-3.1-11.7-2.8-16.4 1.7-4.7 4.4-22.9 5.7-27.7 5.2-4.9-.6-19.2 4.9-20.8 11.5-1.7 6.7-8.5-4.6-12.4-6.4-4-1.7 3 15.5 11.4 21.4 8.5 6 7 10.4 10.8 16 3.8 5.7-1.7 9.3-5.4 4-3.8-5.2-28.3-6.6-33.1-9.1-4.9-2.6-21.2-25.6-23.7-29.8-2.4-4.2 2.2-19-1-26-3.3-7-33.3-20.6-40-24.8-6.7-4.2-19.6-32.5-21.2-35.7-1.5-3.2-13.6 3.1-16.8 10.5-3.2 7.4.3 15.6 11.3 23.7 10.9 8 1.3 7 3.3 15.5 2.1 8.6 16.1 10.8 21.8 11.1 5.6.3 4.9 1.6 2.6 4.7-2.3 3 2.6 7 17.3 15 14.6 8 13 7.1 13.5 9.3.6 2.1-4.3 3.2-7.7.2-3.5-3.1-11.7-2.7-14.6 2.7-2.9 5.4 1.9 7.4 5.4 10.9 3.5 3.5-7.9 13.3-13.6 17.9-5.6 4.5-6 3.2-4.4-1.7 1.5-4.9 4.1-14.6 4.2-20.9.2-6.2-53-44.7-62.4-51.9-9.5-7.2-5.1-23.3-14.4-28.3-9.2-5-39 16.5-39 16.5s-21.3-15.7-32-7.9c-10.6 7.9-8.7 25.2-19.2 25.8-10.5.6-29.9 18-29.9 18s-3.2 10.8-1.2 17.2c2.1 6.5-31.9 20.3-34.7 23.9-2.8 3.7-43.2-3.1-43.2-3.1s-8.4 7.7-7.4 4c1-3.6-3-16.2-4-19.3-1-3.2-10.4-10.7-13.9-6.5-3.5 4.2-10.9-1.1-15-3.8-4-2.7 3.2-12.3 6.1-17.3 2.9-5.1-7.2-8.9-6.9-13 .4-4 20.1-22.9 23.9-27.7 3.7-4.8 4.3-20.5 4.6-26.7.3-6.1 11.7-8.6 18.2-12.3 6.6-3.8 59.6 24.9 66.4 23.3 6.9-1.6 11.1-21.9 15.2-30.7s-2.2-18.9-7-28.6c-4.7-9.7-21.1-20.9-18.4-23.6 2.7-2.7 8.5-4.2 14.6-3.1 6 1.2 14.4 6.7 18.3 4.5 4-2.2.6-11.1 4.1-12 3.5-.9 11.6 8 17.2 5.2 5.5-2.8 9.6-6.4 14.4-12.6 4.7-6.2 17.2-10.3 26.5-12.3 9.4-2 6.7-6.7 11.6-15.7 4.9-8.9 6.2-5 22.2-9.8 15.9-4.8 7.2-2 12.2.4 5 2.4 8.6-3.6 11.5-10.7 2.9-7.1-.7-9.2-4-16.2s-2.4-7.9-.9-15.2c1.6-7.3 2.1-8.2 7.5-9.8 5.4-1.6 10.6-7.6 14.6-10.3 4-2.8 1.3 4.3-.9 8.9-2.3 4.5.1 6.1 1.7 9 1.7 3-1.2 5-2.9 5.8-1.7.9-7.6 12.2-7.5 15.2.1 3 7.4 15.7 8.8 18.8 1.4 3.1 7.5.6 15.8-4.4 8.3-5.1 12.4 6.7 16.8 9.2 4.5 2.6 27.9-12.6 38-15.5 10-2.9 3.5 4.1 5.5 7.3 2.1 3.1 8.7-2.4 11-7.7 2.2-5.4 5.6 4.2 10.4-1.8 4.8-6 2.8-7 .7-18.4-2-11.4 5.2-21.2 7.7-24.8 2.4-3.6 10.3 5 15.8 6.6 5.5 1.6 5.3-8.9 3.3-14.7-1.9-5.8-7.1-5-8.3-13.3-1.1-8.4 7-6.4 14-10.5 7.1-4.2 17-.5 24.4-1.5 7.4-1 11.5-6.5 11.5-6.5s-8.7-9.5-12.3-10.7c-3.6-1.1-29.8 11.8-29.8 11.8s-23.2-3.3-26.7-5c-3.5-1.6 0-14.5-.7-26.4-.7-11.9-1.6-7.4 3.1-13.3 4.7-5.8 20.4-26 23.4-29.3 3-3.2-6.9-11.2-13.7-6.9-6.8 4.2-15.4 6.4-13 15.6 2.4 9.2-28.6 28.5-33.2 38.3-4.5 9.8 7.2 22.7 11.6 26.6 4.3 3.9-18.1 28.6-16.7 44.9 1.4 16.3-19.5 15.4-20.7 21.2-1.2 5.8-10.7 10.4-14.7 8.6-4-1.7-3.9-15.6-1.8-20.2 2.1-4.6-11.9-33.4-13.1-39.2-1.1-5.8-14.2 7.9-22.5 13s-18.1-6.1-22.3-9.5c-4.2-3.4 5.9-14.3 3.1-30-2.8-15.7.9-23.4 13.2-28.8 12.2-5.5 38.3-29.8 53.4-42.8 15.1-12.9 23.7-35.2 33.8-40.3 10.1-5.1 51.1-24.6 56.2-30.1 5.1-5.5 12.4-.3 20.1-.9 7.8-.6 4.7 4.7 8.7 7.2 4.1 2.5 21.7 5.2 28.6 4.6 6.9-.5 27.1 4.5 33.9 7.3 6.7 2.9 11.9 3.3 14.8 8.1 2.9 4.7-2.1 10.6-5.5 16.4-3.4 5.9-15.2 4.4-21.7 4.1-6.5-.3-17.2 3.1-22.1.6-5-2.5-10.7-3.2-7.9.2 1.7 2.1 2 2.6 2 2.7 1.3.7 11.6 5.9 15.1 8.5 3.7 2.8 1.1 9.6 4.3 14.1 3.2 4.6 5.8 5.2 10.9 4.7 5.2-.4 10.4 5.4 12.4 2.1 2.1-3.3-4.9-5.9-9-7.5-4.1-1.6-1.3-3.9.5-8 1.7-4 7.1-1.6 10.1.6s10 .7 13.3-.7c3.4-1.4-3-6.1-5.6-8.7-2.6-2.6 6.2-8.1 9-16s5.7-5.9 9.6-7.4c3.9-1.4 5.6-3.6 5.9-8.6.3-5.1-6.8-8.1-6-12.1.8-3.9-4.2-7.3-5.1-8.2-.9-.8 13.2-2.5 15.3-3.4 2.2-.9 4.1 3.8 7.2 5.1 3.1 1.4-2.9 4.8-6.9 6.3-3.9 1.4-4.2 7.1.2 6.6 4.4-.6 6.3 4.6 9.8 3.3 3.5-1.4 8.6-6 8.5-10-.1-4 5-10.2 11.9-18.5 1-1.2 1.8-2.2 2.4-3q18.1 7.6 35.3 16c15.5 47.4 24.5 97.7 25.9 150 3.8 141.1-48.5 270.6-136.5 367.3zM472.5 95.1c5.4 1.2 8.1 5 10.8 6.7 2.7 1.8 7.7.7 5.7-4-2-4.8-5.1-2.3-6-8.4-.9-6.1 3.1-8.3-2.2-9.9-5.2-1.6-5.7-4.4-5.8 1.2 0 5.5-4 4.3-4 4.3s-3.9 8.9 1.5 10.1zm-27.6 18c6.9 7.5 6.9 11.6 11.1 7.2 4.2-4.4 4.3-8.1 4.7-13.2.3-5.1-13.4-8.2-13.4-8.2-2.5-.9-9.2 6.8-2.4 14.2zM476.3 246c5.4-2.8-1.3-10.6-3.9-16.3-2.6-5.6 9.9-1.1 9.9-7.3 0-6.2-7-7.2-16.8-16.2-9.8-8.9-6.2-13.9-13.1-14.3-6.8-.5-10.8-2.2-15.4-6.1-4.7-3.8-11.2 6.1-12.4 7 0 0-6.7 13.3-10.3 21.8-3.5 8.4-14.4 9.6-20.2 11.2-5.7 1.6 5.8 14.7 3.3 19.2s-1.5 12.3 1.6 18.8c3.2 6.5 8-4.1 12.2-9.1 4.2-4.9 50.3 3.1 56.9 2.5 6.6-.6 2.8-8.4 8.2-11.2z"
              style="opacity:.1;fill:#fefefe"/>
        <g id="&lt;Group&gt;">
            <path id="&lt;Path&gt;" class="s1"
                  d="m325.2-151.2 8.9 17 19.1-2.8-13.4 13.8 8.5 17.2-17.3-8.5-13.7 13.5 2.7-19-17-9 19-3.2z"/>
            <path class="s1"
                  d="m425.3 473.4 9 17.1 19-2.9-13.4 13.8 8.6 17.3-17.3-8.5-13.8 13.5 2.8-19.1-17.1-8.9 19-3.3zM688.1 110.9l9 17 19-2.8-13.4 13.8 8.6 17.2-17.3-8.5-13.8 13.5L683 142l-17.1-8.9 19-3.3zM620.4-38.7l9 17 19-2.8L635-10.7l8.6 17.2L626.3-2l-13.7 13.5 2.7-19.1-17.1-8.9 19-3.2zM488.3-134.4l8.9 17.1 19.1-2.8-13.4 13.8 8.5 17.2-17.2-8.5-13.8 13.5 2.8-19.1-17.1-8.9 19-3.3zM62.4 211.2l9 17 19.1-2.8L77 239.2l8.6 17.2-17.3-8.5-13.7 13.5 2.7-19.1-17-8.9 18.9-3.3zM175.5-83.5l8.7 16.5 18.4-2.7-13 13.4 8.3 16.7-16.7-8.3-13.3 13.1 2.6-18.5-16.5-8.6 18.4-3.2zM78.6 49.9l8.7 16.5 18.5-2.7-13 13.4 8.3 16.7-16.8-8.3L71 98.6l2.7-18.5-16.6-8.6 18.4-3.2zM670.8 274.7l8.7 16.5 18.5-2.7-13 13.4 8.3 16.7-16.8-8.3-13.3 13.1 2.7-18.5-16.6-8.6 18.4-3.2zM574.7 407.5l8.7 16.6 18.5-2.8-13.1 13.4 8.4 16.7-16.8-8.2-13.3 13 2.6-18.4-16.5-8.7 18.4-3.1zM262.8 458.2l8.7 16.5 18.5-2.8-13 13.4 8.3 16.7-16.8-8.2-13.3 13 2.7-18.4-16.6-8.7 18.4-3.1zM128.7 360.7l8.7 16.6 18.5-2.8-13 13.4 8.3 16.7-16.8-8.2-13.3 13 2.7-18.4-16.6-8.7 18.4-3.2z"
                  fill="#fed357"/>
        </g>
    </g>
</svg>