<svg version="1.2" xmlns="http://www.w3.org/2000/svg" width="463" height="408">
    <path fill-rule="evenodd"
          d="M276 0c3.1 0 4 .4 4 1.8 0 .9.5 2.3 1.2 3 .7.7 2.3 1.2 3.5 1.2 1.4 0 3.1-1.2 4.3-3 1.5-2.3 2.8-3 5.3-3 1.7 0 3.5.3 3.9.7.4.4.1 2.4-.8 4.3-.8 1.9-2.1 4.2-2.8 5-.8.8-3.6 2.1-6.2 2.9-3.8 1.1-5.7 1.1-8.4.3-1.9-.6-4.5-2.1-5.7-3.4-1.1-1.3-2.2-3.4-2.3-4.8-.1-1.4-.2-3.1-.1-3.8.1-.7 1.6-1.2 4.1-1.2zm187 17-.6 4.8c-.3 2.6-.8 5.3-1 6-.3.8-2.7 1.2-14.4 1.2l-.6 5.8c-.4 4.1-.2 5.9.8 6.4.7.5 2.5.6 4.1.3 1.6-.3 3 0 3.3.7.4.7.4 3.7-.6 11.8h-10.5l-.8 4.2c-.4 2.4-1 5.3-1.2 6.5-.5 2.2-.2 2.3 13 2.3l-.8 6.2c-.5 3.5-.9 6.4-1 6.5-.1.2-6.1.3-13.2.3s-13.1-.1-13.2-.2c-.1-.2.7-5.5 1.7-11.8 1-6.3 2.8-16 3.9-21.5s2.5-13.4 3.1-17.5c.6-4.1 1.4-8.5 1.6-9.8.4-2.1.7-2.2 26.4-2.2zM38 342.1c4.1 0 8 .3 8.5.7.8.5-.7 10.9-10 63.2h-5.7c-5.3 0-5.8-.2-5.8-2.3 0-1.2.7-5.6 1.6-9.7.8-4.1 1.4-8.6 1.2-10-.2-2.1-1.7-.4-16.3 22.1l-5.2-.1c-2.9 0-5.5-.3-5.8-.8-.2-.4 3-6.1 7.1-12.7s7.9-12.5 8.4-13c.7-.6 0-2-1.8-3.8-2.2-2.3-2.8-3.9-3.1-9-.2-3.4.2-8 .9-10.2.7-2.2 2.3-5.5 3.6-7.3 1.3-1.7 3.4-3.7 4.7-4.4 1.2-.7 4-1.5 6.2-1.9 2.2-.3 7.4-.7 11.5-.8zm-13.3 16.4c-1 1.9-1.7 5-1.7 6.7-.1 1.8.5 3.9 1.2 4.6.7.7 2.4 1.1 3.8 1 2.2-.3 2.6-1 3.7-6.8.7-3.6 1.2-7.5 1.3-8.8 0-1.2-.6-2.2-1.2-2.1-.7 0-2.2.4-3.4.9-1.1.6-2.8 2.6-3.7 4.5zM29 16c2.5 0 6.2.5 8.3 1 3.1.8 4 1.8 5.7 5.5 1.1 2.5 1.9 6.1 1.5 12h-6c-5.9 0-5.9 0-6-3 0-2.7-.4-3-3.2-3.3-2.7-.2-3.5.3-4.7 2.5-.7 1.6-1.6 4.7-2.6 11.3h13l-.6 4.7c-.4 2.7-.8 5.1-1 5.5-.2.5-3.3.8-6.9.8-5.9 0-6.5.2-7 2.2-.3 1.3-.5 4.9-.5 8 0 5.8 0 5.8 3 5.8q3 0 4-2c.6-1.1 1-3 1-4.3-.1-1.2.5-2.8 1.2-3.5.9-.9 2.8-1 6.6-.5 4.3.7 5.2 1.1 5.2 2.8 0 1.1-.7 4.5-1.6 7.5-.9 3-2.8 6.7-4.2 8.2-1.9 1.9-4.4 3.1-8.2 3.7-3.6.7-6.9.7-9.5.1-2.2-.5-5-2-6.3-3.2-1.3-1.3-2.8-4.1-3.4-6.3-.7-2.9-.7-6.8.2-14C7.6 52 8.9 44.1 9.7 40c.8-4.1 2.4-9.8 3.5-12.5 1.1-2.8 2.5-5.9 3.2-6.9.7-1.1 2.8-2.5 4.7-3.2 1.9-.7 5.4-1.3 7.9-1.4zm127.5 0c3.2 0 6.2.7 8.3 2 1.7 1.1 3.9 3 4.7 4.2 1.1 1.6 1.6 4.6 1.5 9.8 0 4.1-.5 10.4-1 14-.6 3.6-2 10.3-3.1 15-1.2 4.7-2.7 9.6-3.4 11-.7 1.4-2.8 3.9-4.6 5.6-2.4 2.1-4.9 3.3-8.4 3.8-3 .5-6.7.3-9.3-.3-2.6-.7-5.2-2.3-6.7-4.1-1.4-1.7-2.8-4.2-3.1-5.8-.3-1.5-.8-3.3-1-4-.2-.6.3-6 1.1-12 .8-5.9 2.4-14.3 3.5-18.7 1.2-4.4 3.3-9.8 4.8-12 1.6-2.3 4.6-5 7.2-6.3 2.9-1.4 6.3-2.2 9.5-2.2zM147 42.5c-1.2 5.5-2.3 13.6-2.4 18l-.1 8c5.7.4 6.8 0 7.5-1.5.6-1.1 2.2-8.6 3.6-16.8 1.4-8.1 2.4-16.3 2.2-18.2-.3-2.9-.7-3.5-3-3.8-1.9-.2-3.1.3-4.2 2-.8 1.3-2.5 6.8-3.6 12.3zM326.5 16c2.8 0 6.7.5 8.8 1 2.7.7 4.2 1.9 5.3 4.2 1.3 2.5 1.5 4.9 1.1 10.3-.3 3.8-.8 7.8-1.1 8.7-.5 1.4-1.8 1.8-6.1 1.8-3.5 0-5.6-.4-5.8-1.3-.2-.6 0-2.6.5-4.2.4-1.7.8-4.2.8-5.8 0-2.4-.3-2.7-3.2-2.5-3.2.3-3.4.6-5.4 7.8-1.2 4.1-2.9 12.7-3.8 19-1.5 10.3-1.5 11.7-.2 13 1.3 1.2 2 1.3 4.1.2 1.9-.9 2.8-2.5 3.8-6.7.9-4.1 1.7-5.7 3.2-6 1.1-.3 3.8-.1 6 .3 3.8.7 4 .9 3.7 4.2-.2 1.9-.9 5.7-1.7 8.5-.8 2.7-2.2 6.1-3.2 7.4-1 1.4-3.3 3.1-5 3.8-1.8.7-5.8 1.3-8.8 1.3-3.2 0-7-.7-9.1-1.8-2.1-1-4.1-3-5-5-.8-1.7-1.4-5.6-1.4-8.5 0-2.8.9-10.4 2-16.7 1-6.3 2.9-14.7 4.1-18.5 1.2-3.9 2.9-8.1 3.8-9.4.9-1.3 3-3 4.6-3.7 1.6-.7 5.3-1.3 8-1.4zM55.2 17h10.6c8.2 0 11.5.4 14.2 1.8 1.9.9 4.1 2.8 4.8 4.2.9 1.7 1.1 4.5.7 8.2-.3 3.2-1.2 7.1-2 8.8-.8 1.6-2.9 4-7.6 7.5l2.5 1.7c1.4 1 3.1 3.5 3.7 5.5.7 2.2.8 5.7.4 8.3-.4 2.5-1.2 5.8-1.9 7.5-.7 1.6-2.3 4.1-3.7 5.3-1.3 1.3-3.5 2.9-4.9 3.4-1.4.6-8.1 1-15 .9-6.9 0-12.7-.4-13-.7-.3-.2.3-4.6 1.3-9.7 1.1-5.1 2.9-14.6 4.2-21.2 1.2-6.6 3-16.4 4-21.8zm9.3 16c-.3 2.5-.8 5.3-1.1 6.3-.3 1.3.2 1.8 1.9 1.8 1.2 0 3.2-.8 4.5-1.8 1.6-1.2 2.4-3 2.6-6 .3-3.6 0-4.3-2-5.2-1.3-.6-2.8-1.1-3.3-1.1-.6 0-1.2.4-1.4.8-.3.4-.8 2.8-1.2 5.2zM59 66.5c0 2.1.5 2.6 2.8 2.6 1.5 0 3.7-.7 5-1.5 1.3-1 2.4-3 2.8-5.3.3-2.1.1-4.8-.5-6-.8-1.7-2-2.3-4.5-2.3-3.3 0-3.5.2-4.5 5-.6 2.8-1.1 6.2-1.1 7.5zM98.1 17h10.7c5.9 0 12.2.5 14 1 1.9.6 3.8 2.2 4.6 3.8.7 1.5 1.7 4.3 2.1 6.2.4 2.2.1 6.3-.9 10.5-.9 4.3-2.7 8.7-4.6 11.3-1.6 2.3-4.6 4.9-6.5 5.7-1.9.9-5.7 1.5-8.5 1.5-3.9 0-5.1.4-5.4 1.8-.2 1-1 4.9-1.6 8.7-.7 3.9-1.6 8.4-2 10-.6 2.9-.9 3-6.2 3-3.1 0-5.9-.2-6.2-.5-.3-.2.5-6.3 1.9-13.5 1.3-7.1 3.6-19.9 5-28.5 1.4-8.5 2.8-16.7 3.1-18.2zm8.9 20c-.6 3.6-1 7.1-1.1 7.7q0 1.3 2.8.7c1.5-.3 3.5-1.3 4.5-2.2 1-.9 2.2-4.1 2.8-7 .7-3.9.6-5.6-.3-6.7-.7-.9-2.5-1.6-4-1.5-1.6 0-3 .6-3.3 1.2-.2.7-.9 4.2-1.4 7.8zm113.4-20-.6 3.7c-.4 2.1-2.8 15.9-5.3 30.8-2.5 14.8-4.8 27.7-5.1 28.5-.5 1.2-1.6 1.4-6.8.7-3.4-.5-6.3-.9-6.4-1-.2-.1.6-4.7 1.7-10.2 1.1-5.5 2.9-15.9 4-23 1.1-7.2 2.3-14 2.5-15.3.5-2.1.2-2.2-10-2.2l-4.3 25.2c-2.4 13.9-4.5 25.5-4.7 25.8-.1.3-3 .6-6.4.7-5.2.3-6.1.1-6.1-1.5 0-.9 1.1-8.2 2.5-16.2s3.7-21 5.1-29c1.5-8 2.8-15.1 3-15.8.3-.9 4.9-1.2 36.9-1.2zm36.5 0-.6 4.7c-.3 2.7-.8 5.4-1 6-.2.9-2.6 1.3-14.4 1.3l-.6 5.7c-.4 4.3-.2 6 .8 6.5.7.5 2.6.6 4.1.3 1.5-.3 3-.1 3.2.5.3.5.3 3.5-.5 12h-10.5l-.8 4.2c-.4 2.4-1 5.3-1.2 6.5-.4 2.2-.2 2.3 13 2.3l-.8 6.2c-.4 3.5-.9 6.4-1 6.5-.1.2-6 .3-13.2.3-7.1 0-13.1-.1-13.2-.2-.1-.2.6-5.5 1.7-11.8 1-6.3 2.8-16 3.9-21.5s2.5-13.4 3.2-17.5c.6-4.1 1.3-8.5 1.5-9.8.5-2.1.8-2.2 26.4-2.2zm20.5 0-.7 6.2c-.4 3.5-1.9 11.2-3.2 17.3-1.4 6-2.8 11.9-3.1 13-.2 1.1 2.2-3.6 5.5-10.5s7.5-15.4 12.8-25.5h6.9c6.7 0 6.8.1 6.7 2.5-.1 1.4-1.8 11.5-3.8 22.5-2 11-4.1 22.7-4.6 26-.6 3.3-1.2 7.2-1.5 8.7-.4 2.7-.7 2.8-7 2.8-4.5 0-6.5-.4-6.4-1.3 0-.6 1.3-7.1 2.9-14.2 1.6-7.2 3.2-13.9 3.6-15 .5-1.2.4-1.7-.2-1.2-.5.4-4.2 7.6-15.9 31.2l-15.5.5.5-2.8c.3-1.5 1.9-10.4 3.5-19.7 1.6-9.4 3.7-21.5 4.6-27 .9-5.5 2-10.8 2.5-11.8.8-1.3 2.3-1.7 12.4-1.7zm81.5 0c4.7 0 6 .3 6 1.5 0 .8-.6 4.5-1.3 8.2-.8 3.8-1.7 8.5-2.7 14.3l6 .2c5 .3 6.4.7 8.8 3.1 2.3 2.4 2.8 3.7 3.1 9.5.2 5.2-.2 8.1-2 12.7-1.2 3.3-3.4 7.3-4.8 8.8-1.4 1.6-3.9 3.2-5.6 3.7-1.6.5-7.6 1.2-13.2 1.5-7.7.4-10.4.2-10.8-.8-.4-.6.8-8.9 2.4-18.2 1.7-9.4 4-22.6 5.1-29.5 1.2-6.9 2.3-13.1 2.5-13.8.3-.8 2.6-1.2 6.5-1.2zm-1.5 43.5c-.3 2.2-.8 4.8-1 5.7-.4 1.4.2 1.8 2.5 1.8s3.5-.8 5.1-3.3c1.4-2.2 1.9-4.6 1.7-7.7-.2-4.3-.4-4.5-3.4-4.8-2.6-.3-3.3.1-3.7 2-.3 1.3-.8 4.1-1.2 6.3zM398 17c3.3 0 6.2.4 6.4 1 .3.5.1 3.8-.5 7.2-.6 3.5-1.4 7.4-1.7 8.8-.5 1.8-.3 2.3.5 1.7.7-.4 3.9-4.8 13.2-18.7h7c5.4 0 6.9.3 6.3 1.2-.4.7-2.8 4.4-5.4 8.3-2.6 3.8-6.7 9.9-13.7 20l2.3 7c1.2 3.8 3.7 11.2 5.4 16.2 1.7 5.1 3.1 9.5 3.1 9.8 0 .3-3 .5-13.5.5l-4-12.5c-2.2-6.9-4.2-12.5-4.5-12.5-.2 0-1.1 3.7-1.8 8.2-.7 4.6-1.7 10.2-3.2 16.8h-6c-4.1 0-6-.4-6-1.3 0-.6.9-6.4 2-12.7 1.2-6.3 3.2-18.5 4.6-27 1.3-8.5 2.7-17 3-18.8.5-3.2.5-3.2 6.5-3.2zM33.5 125.2c9.7.2 17.8.6 18 1 .3.5-1.1 9.9-3.1 21-1.9 11.2-4.2 25-7 41.3l-6 .3c-3.3.1-6.3-.1-6.7-.5-.4-.5.1-5.5 1.2-11.3 1.1-5.8 2.9-16.1 4-23 1.1-6.9 2-13.3 2-14.3 0-1.4-.9-1.7-5-1.7-2.7 0-5 .2-5 .5s-1.3 8.5-3 18.2c-1.7 9.8-3.6 20.9-5.5 31.8h-6.5c-4.6 0-6.4-.4-6.2-1.3.1-.6.7-4.2 1.2-8 .6-3.7 1.7-10.1 2.4-14.2.8-4.1 2.6-14.3 4.1-22.5 1.5-8.3 2.9-15.6 3.1-16.3.3-.9 4.6-1.1 18-1zm47.2.5c.7.2 1.9.3 2.7.3 1.3 0 1.6 2.4 2 13.7.3 7.6.7 21.8 1.5 49.3l-12.5-.5-.5-9.5h-4.7c-4.8 0-4.8 0-9.3 10h-6.5c-3.5 0-6.5-.3-6.5-.8 0-.4 2.4-6.6 5.3-13.7 3-7.2 6.4-15.7 7.7-19 1.3-3.3 4.6-11.3 7.4-17.7 5.1-11.6 5.2-11.8 8.6-12.1 2-.2 4.1-.2 4.8 0zm-12.5 40.8c4.8.4 6.4.4 6.5.3.1-.2.1-4.6 0-9.8l-.3-9.5zm55.3-41.2c8.4.1 15.6.4 15.9.7.3.3-1 9.1-3 19.5-1.9 10.4-4.1 23.3-4.9 28.5-.8 5.2-1.7 10.7-2 12.2-.5 2.7-.8 2.8-6.2 2.8-3.2 0-6.1-.3-6.5-.7-.3-.5 0-4 .8-7.8.8-3.9 2.8-14.9 4.5-24.5 1.6-9.6 2.9-17.6 2.9-17.8 0-.1-1.7-.2-7.5-.2l-2.8 14.2c-1.6 7.9-3.7 17-4.7 20.3-1.3 4.1-3.1 7.3-5.7 10-2.2 2.2-5.7 4.5-7.9 5.2-2.1.6-4.2.8-4.7.5-.4-.4-.7-3.2-.7-6.2 0-4.9.2-5.6 2.5-6.8 1.4-.6 3.2-2.4 3.9-4 .8-1.5 2.3-7.4 3.4-13.2 1.1-5.8 2.8-15 3.8-20.5s2.2-10.5 2.7-11.2c.6-.8 5.2-1.1 16.2-1zm35.5-.1c.8-.2 2 .2 2.5.8q1 1-.7 10.7l-1.8 10.8c0 .6 2.6 1.3 5.8 1.7 3.5.5 6.6 1.6 8 2.8 1.2 1.1 2.7 3.1 3.2 4.5.6 1.4 1 4.4 1 6.7 0 2.4-.6 6.3-1.4 8.8-.7 2.5-2 5.8-2.9 7.5-.8 1.6-2.6 4-3.8 5.1-1.3 1.2-4 2.6-5.9 3.3-1.9.6-7.9 1.1-13.2 1.1-5.4 0-10-.3-10.2-.8-.2-.4.6-6.3 1.9-13.2 1.3-6.9 3.3-18.1 4.5-25 1.2-6.9 2.7-15.1 3.3-18.2 1.2-5.6 1.3-5.8 4.7-6.1 1.9-.2 4.2-.4 5-.5zm-3.9 44.3c-.5 3.8-.9 7.1-.8 7.3.1.2 1.5.1 3-.2 1.5-.3 3.4-1.6 4.2-2.9.9-1.2 1.9-4.1 2.3-6.3.5-3.1.3-4.6-.8-5.8-.8-.9-2.5-1.7-3.8-1.6-1.2 0-2.4.6-2.7 1.2-.3.7-.9 4.5-1.4 8.3zm42-44.5c5.8 0 5.9.1 5.9 2.7 0 1.6-.7 6.6-1.5 11.3-.8 4.7-1.5 9.1-1.5 9.7 0 .8 1.5 1.3 4 1.3 3.6 0 4.1-.3 4.5-2.8.3-1.5 1.2-6.8 2.1-11.7.8-4.9 2.1-9.3 2.7-9.7.7-.4 2.8-.8 4.7-.8 1.9 0 4.3.5 5.2 1.2 1.5 1.2 1.4 2.4-.8 15.3-1.3 7.7-3.3 19.2-4.4 25.5-1.2 6.3-2.5 13.9-4 22h-6c-3.3 0-6.2-.4-6.5-1-.3-.6.4-6.2 1.5-12.5s2-11.7 2-12c0-.3-1.8-.5-8-.5l-1.6 7.7c-.9 4.3-2.1 10-3.9 17.8l-5.5.3c-3 .1-5.8-.1-6.1-.5-.4-.5.4-6.7 1.7-13.8 1.4-7.2 3.9-20.8 5.7-30.4 1.8-9.6 3.3-17.8 3.5-18.3.2-.4 3-.8 6.3-.8zm64.4 0-.6 5.2c-.3 2.9-.9 5.9-1.2 6.5-.5.9-3 1.3-13.7 1.3l-1 5c-.5 2.7-1 5.4-1 6 0 .6 2.3 1 5 1 3.8 0 5 .4 5 1.5 0 .8-.4 3.7-2 11.5h-5c-2.7 0-5.2.3-5.4.7-.2.5-.7 3.4-1.6 12.3h13l-.5 3.7c-.3 2.1-.8 5-1.5 9.3h-26l.6-6.3c.4-3.4 2.1-13.9 3.9-23.2 1.8-9.4 3.8-20.4 4.5-24.5.6-4.1 1.3-8.1 1.6-8.8.3-.9 3.8-1.2 25.9-1.2zm21 94.5-.3 4c-.2 2.2-.6 4.3-.8 4.7-.2.5-2.4.8-4.9.8-3.6 0-4.5-.3-4.5-1.8 0-.9.3-3.2.7-5 .6-3.2.8-3.3 9.8-2.7zm15 0-.3 4c-.2 2.2-.6 4.3-.8 4.7-.2.5-2.4.8-4.9.8-4.5 0-4.5 0-4.5-3.5 0-1.9.3-4.2.7-5 .4-1.2 1.8-1.5 9.8-1zM122 233.4c3.6.2 7.5.9 8.8 1.5 1.2.6 2.9 2.8 3.8 4.8 1.2 2.8 1.4 5.3.9 9.3-.3 3-.8 6.5-1.1 7.7-.4 2.1-.9 2.3-6.1 2-5.1-.2-5.8-.4-5.7-2.2 0-1.1.4-3.9.7-6.3.6-3.6.4-4.3-1.3-5.2-1.1-.6-2.7-.7-3.5-.3-.9.5-2 2.1-2.5 3.8-.5 1.6-1.8 7.3-2.9 12.5-1.1 5.2-2.2 12.6-2.6 16.5-.6 5.5-.5 7.1.6 7.7.8.3 2.4.3 3.7 0 1.3-.4 2.7-2 3.3-3.7.5-1.6.9-3.7.9-4.5 0-.8.5-2.3 1.2-3.3 1.1-1.6 2.1-1.7 12.1-.2l-.7 5.5c-.4 3-1.8 7.9-3.1 10.7-1.9 4-3.3 5.7-6 6.8-1.9.8-6.3 1.5-9.7 1.5-4.6 0-7.1-.5-9.3-2-1.6-1.1-3.5-3-4.2-4.3-.7-1.2-1.2-5.3-1.3-9.2 0-3.9.9-12 2-18 1.1-6.1 2.9-13.9 4-17.5 1.1-3.6 2.7-7.6 3.6-8.9.9-1.2 3.1-2.9 4.8-3.7 2-1 5.3-1.3 9.6-1zm41-.4c3.8 0 6.5.6 8.8 2 1.8 1.1 3.9 3.3 4.7 5 .8 1.6 1.5 5.6 1.5 8.7 0 3.2-.9 11-1.9 17.3-1.1 6.3-3 14.2-4.1 17.5-1.2 3.3-3 7.2-4.1 8.7-1 1.6-3.3 3.6-5.1 4.5-2 1-5.8 1.7-9.5 1.7-4.8.1-6.8-.4-9-2-1.5-1.2-3.7-3.4-4.8-4.8-1.7-2.3-2-4.2-1.9-11.4.1-4.8 1.2-13.4 2.3-19.2 1.2-5.8 3.2-12.8 4.5-15.5 1.3-2.8 3.4-6.1 4.7-7.4 1.3-1.4 3.8-3 5.4-3.7 1.7-.7 5.5-1.3 8.5-1.4zm-6.7 16.5c-.6 1.6-1.9 6.1-2.7 10-.9 3.9-2 10.1-2.4 14-.4 3.9-.6 8.2-.4 9.7.2 2.3.7 2.8 3 2.8 1.5 0 3.3-.4 3.9-.8.7-.4 2.1-5 3.2-10.2 1.1-5.2 2.6-13.3 3.2-18 .7-4.7 1-9.3.6-10.3-.4-.9-1.7-1.7-2.9-1.7-1.3 0-2.8.4-3.3.8-.6.4-1.6 2-2.2 3.7zm94.2-16.3c4.7.2 6.8.9 9.3 2.8 1.9 1.5 3.6 4.1 4.3 6.5.8 3 .8 6.7-.1 14.5-.6 5.8-2.3 14.8-3.6 20-1.4 5.2-3.5 11.2-4.7 13.3-1.2 2.1-3.5 4.7-5.2 5.7-1.6 1.1-5.5 2.2-8.5 2.5-4.6.5-6.2.2-9.9-1.7-2.7-1.4-5.1-3.6-6.3-5.8-1.1-2.2-1.8-5.6-1.8-9.3 0-3.1.9-10.8 1.9-17 1.1-6.1 2.9-13.7 4-16.7s2.9-6.8 3.9-8.4c1-1.6 3.9-3.7 6.3-4.8 3.1-1.3 6.2-1.8 10.4-1.6zM239 266.5c-1.2 7.1-2 14.4-1.8 16 .3 2.5.8 3.1 3.3 3.3 1.7.2 3.5-.2 4.2-1 .6-.7 2.1-6 3.2-11.8 1.2-5.8 2.5-13.9 3-18s.7-8.1.5-8.8c-.2-.6-1.8-1.2-3.4-1.2-2.7 0-3.3.6-4.9 4.2-1.1 2.4-2.9 10.2-4.1 17.3zm-199-32 3.2 3.3c3 2.9 3.3 3.8 3.2 8.5-.1 2.9-1.1 7.3-2.3 9.9-1.3 3-3.3 5.5-5.3 6.7-3.1 1.8-3.2 2-1 2.5 1.2.3 2.9 2.1 3.8 3.8 1.2 2.4 1.6 5.1 1.2 9.8-.2 3.9-1.2 7.9-2.4 10-1.1 1.9-3.5 4.5-5.4 5.8-3.2 2.1-4.6 2.3-16.7 2.2C5.2 297 5 297 5 294.7c0-1.2 1.2-8.3 2.6-15.7 1.4-7.4 3.6-20 5-28s2.8-15.1 3.1-15.8c.3-1.1 3.1-1.3 24.3-.7zm-16 22.2c0 .7 1 1.3 2.3 1.3 1.2 0 3.2-1 4.5-2.2 1.4-1.4 2.4-3.7 2.5-6 .1-2 0-3.9-.3-4.2-.3-.3-1.8-.8-3.5-1.1-3-.7-3-.6-4.2 5.2-.7 3.2-1.3 6.4-1.3 7zm-3.4 19.8c-.4 2.2-.9 5.1-1.1 6.5-.5 2.2-.2 2.5 2.7 2.7 1.8.2 4.1-.3 5.2-1 1.2-.8 2-2.9 2.3-6.7.4-4 .1-5.7-.8-6.2-.8-.4-2.6-.8-4.1-.8-1.5 0-2.9.3-3.1.7-.2.5-.7 2.6-1.1 4.8zM65.1 234c5 0 5.9.3 5.9 1.7 0 1-.6 5.4-1.4 9.8-.8 4.4-2.3 12.1-3.5 17-1.1 4.9-2 9.1-1.8 9.2.1.1 2.8-5.6 6-12.5 3.2-7 7.2-15.4 12.2-24.7h7c4.1 0 6.9.4 6.8 1-.1.6-2.5 14.3-5.3 30.5s-5.3 29.8-5.6 30.2c-.2.5-3.1.8-6.4.8-4.7 0-6-.3-6-1.5 0-.8.9-6.1 2-11.8 1.1-5.6 2.6-12.2 3.5-14.7.8-2.5 1.3-4.6 1-4.8-.3-.1-4.1 7.2-16.5 32.8h-7.5c-6.8 0-7.5-.2-7.5-2 0-1.1.9-6.6 2-12.3 1-5.6 3.3-18.2 4.9-28 1.7-9.8 3.3-18.4 3.7-19.2.4-1.1 2.2-1.5 6.5-1.5zm131 0c3.2 0 6.1.3 6.4.7.2.5-.2 4.6-1 9.3-.8 4.7-1.5 8.9-1.5 9.5 0 .6 3.3-3.6 14.5-19.6l6.8.1c5.1 0 6.5.3 6 1.2-.4.7-3 4.7-5.8 8.8-2.9 4.1-7 10.1-9.3 13.2-3.8 5.3-4.1 6.1-3.2 9 .6 1.8 3 9.4 5.5 16.8s4.5 13.6 4.5 13.7c0 .2-3 .3-13.5.3l-3.3-10.2c-1.8-5.7-3.8-11.4-4.4-12.8-.9-2.2-1.4-.9-3.4 10-1.2 6.9-2.3 12.6-2.3 12.7-.1.2-2.8.3-6.1.3-4.1 0-6-.4-6-1.3 0-.6.9-6.4 2-12.7 1.1-6.3 3.1-18.5 4.5-27s2.7-17 3-18.8c.6-3.2.6-3.2 6.6-3.2zm88 0c5 0 5.9.3 5.9 1.7 0 1-.8 6.3-1.9 11.8-1.1 5.5-2.6 13.6-3.4 18-.9 4.4-2.4 12.9-3.4 18.9-1 6-2.2 11.6-2.8 12.4-.7 1-2.4 1.2-6.7.8-3.7-.4-5.8-1.1-5.8-1.9 0-.6.9-5.9 2-11.7 1.1-5.8 3.4-18.8 5.1-29 1.7-10.2 3.5-19.1 4.1-19.8.6-.7 3.4-1.2 6.9-1.2zM119.5 341.5c3.2.3 6.2 1.5 8.3 3 2 1.5 3.6 3.9 4.2 6.2.7 2.5.7 7 .1 12.8-.6 4.9-1.4 11.2-2 14-.5 2.7-1.8 7.9-2.8 11.5-1 3.6-3 8.5-4.5 10.8-1.7 2.6-4.2 4.8-6.5 5.8-2.8 1.2-5.5 1.5-10.3 1.1-5.6-.5-6.9-1-9.7-3.9-2.1-2-3.6-4.8-4.1-7.3-.4-2.2-.4-7.4.1-11.5.4-4.1 1.6-11.8 2.7-17 1.1-5.2 3.1-11.9 4.5-14.8 1.4-2.8 3.8-6 5.3-6.9 1.5-1 4.3-2.3 6.2-3.1 2.1-.7 5.6-1 8.5-.7zm-8.3 15.2c-.7 1.3-2.1 6.7-3.2 12-1.1 5.4-2.4 12.8-2.8 16.4-.5 5.3-.4 7 .8 8.3.8.9 2.3 1.7 3.2 1.6.9 0 2.3-.6 3-1.3.7-.7 2.4-6.4 3.7-12.7 1.3-6.3 2.4-15.1 2.5-19.5.1-7.3-.1-8-1.9-8.3-1.1-.1-2.5.1-3.1.5-.6.5-1.6 1.8-2.2 3zm48.6-15.2c2.9.3 6.8 1.2 8.7 2 2.9 1.2 3.6 2.2 4.2 5.2.3 2.1.6 4.9.6 6.3 0 1.4-.3 4.6-.6 7.2-.5 3.5-1.2 4.9-2.4 5.1-1 .2-3.7.2-10.3-.3l.3-6.8c.2-6 0-6.7-1.8-7-1.1-.2-2.5.3-3.2 1-.7.7-2.4 6.2-3.7 12.3-1.4 6.1-2.9 14.7-4.1 27.5h3.3c2.4 0 3.5-.6 4.2-2.3.5-1.2 1.4-4.1 3-10.7h5.5c3.4 0 5.7.5 6.1 1.2.3.7 0 4-.6 7.3-.7 3.3-2.1 7.7-3.1 9.7-1 2.1-2.9 4.5-4.1 5.3-1.3.8-4.8 1.7-7.8 2.1-3.2.4-6.9.2-9-.4-1.9-.6-4.7-2.4-6.3-3.9-1.7-1.7-2.9-4.3-3.3-6.8-.3-2.2.2-9.2 1.1-15.5.9-6.3 2.5-15.1 3.7-19.5 1.1-4.4 2.8-9.6 3.8-11.5 1-1.9 2.4-4 3.1-4.6.8-.6 2.8-1.6 4.4-2.2 1.7-.7 5.4-.9 8.3-.7zm-94.4.9c2.8.3 5.2.7 5.3.8.1.2-.5 4.1-1.3 8.8-.8 4.7-1.3 8.8-1.2 9.2.2.5 3-3.1 6.3-7.8 3.3-4.8 6.6-9.2 7.3-10 .7-.7 3.6-1.3 6.7-1.3 3-.1 5.7.3 6 .9.3.6-3.4 6.7-8.2 13.7-4.8 7-9.1 13.3-9.5 14-.5.7 1.6 8.6 4.7 18 3 9.3 5.5 16.9 5.5 17 0 .2-3 .3-13.5.3l-4.3-13.2c-2.4-7.3-4.5-13.1-4.6-12.8-.2.3-1.1 5.2-2.1 11-.9 5.8-2.1 11.5-2.6 12.7-.8 2-1.6 2.3-11.9 2.3l.6-5.8c.3-3.1 2.1-14.3 3.9-24.7 1.8-10.4 3.7-21.7 4.1-25 .5-3.3 1.5-6.6 2.2-7.3q1.4-1.3 6.6-.8zm131.2-.4c8.5 0 15.6.3 15.8.7.2.5 0 3.4-1.4 12.3h-9.5l-10 50.5-5.5.3c-3 .1-5.8-.1-6.2-.5-.5-.5.4-7.1 1.8-14.8 1.5-7.7 3.5-18.5 4.5-24s1.9-10.3 1.9-10.8c0-.4-2.2-.7-10-.7l.6-5.3c.4-2.8 1.1-5.8 1.6-6.5.8-.9 5.3-1.2 16.4-1.2zm30.1.2c3.3-.1 4.5.2 5 1.5.3 1 .1 4.3-.5 7.3s-2.2 11.8-3.6 19.5c-1.4 7.7-3.4 18.7-6.1 35l-6 .3c-3.3.1-6.3-.1-6.7-.5-.4-.5.3-6.9 1.6-14.3 1.4-7.4 3.4-18.9 4.6-25.5 1.1-6.6 2.5-14.3 3.1-17.2q1-5.2 2.6-5.5c.9-.2 3.6-.4 6-.6z"
          style="opacity:1;fill:#221f1f"/>
</svg>