<svg width="24" height="24" viewBox="0 0 24 24" fill="none" xmlns="http://www.w3.org/2000/svg">
<path fill-rule="evenodd" clip-rule="evenodd" d="M17.5749 5.15199C14.8395 2.30633 10.1019 2.10872 6.98338 4.15512C5.32834 5.24116 3.96335 7.19191 3.3337 9.40768C2.70583 11.6171 2.82735 14.0217 4.04339 16.032C4.21853 16.3215 4.12579 16.6982 3.83627 16.8733C3.54674 17.0485 3.17006 16.9557 2.99492 16.6662C1.56604 14.304 1.45559 11.534 2.155 9.07273C2.85262 6.61779 4.37413 4.40168 6.31111 3.13063C9.87755 0.790329 15.4082 0.971013 18.5805 4.42896L18.6773 3.18346C18.7035 2.8461 18.9983 2.59387 19.3356 2.62009C19.673 2.64631 19.9252 2.94104 19.899 3.2784L19.6764 6.14239C19.6628 6.31838 19.5738 6.47992 19.4325 6.58562C19.2911 6.69132 19.111 6.7309 18.9383 6.69423L16.0133 6.07305C15.6823 6.00276 15.471 5.67745 15.5413 5.34646C15.6116 5.01546 15.9369 4.80412 16.2679 4.87442L17.5749 5.15199ZM5.66035 12.0023C5.66035 8.50332 8.50085 5.66282 11.9998 5.66282C15.4988 5.66282 18.3393 8.50332 18.3393 12.0023C18.3393 15.5012 15.4988 18.3417 11.9998 18.3417C8.50085 18.3417 5.66035 15.5012 5.66035 12.0023ZM11.3811 7.90451H11.1301C9.82774 7.90451 8.77176 8.96048 8.77176 10.2627C8.77176 11.565 9.82773 12.621 11.1301 12.621H12.8695C13.4886 12.621 13.9904 13.1228 13.9904 13.7419C13.9904 14.361 13.4886 14.8627 12.8695 14.8627H11.1301C10.511 14.8627 10.0092 14.361 10.0092 13.7419C10.0092 13.4002 9.73212 13.1231 9.3905 13.1231C9.04888 13.1231 8.77176 13.4002 8.77176 13.7419C8.77176 15.0441 9.82774 16.1 11.1301 16.1H11.3811V16.3512C11.3811 16.6927 11.6582 16.9697 11.9998 16.9697C12.3414 16.9697 12.6185 16.6927 12.6185 16.3512V16.1H12.8695C14.1719 16.1 15.2278 15.0441 15.2278 13.7419C15.2278 12.4395 14.1719 11.3835 12.8695 11.3835H11.1301C10.511 11.3835 10.0092 10.8818 10.0092 10.2627C10.0092 9.64359 10.511 9.14184 11.1301 9.14184H12.8695C13.4886 9.14184 13.9904 9.64359 13.9904 10.2627C13.9904 10.6043 14.2675 10.8814 14.6091 10.8814C14.9507 10.8814 15.2278 10.6043 15.2278 10.2627C15.2278 8.96048 14.1719 7.90451 12.8695 7.90451H12.6185V7.65339C12.6185 7.31187 12.3414 7.0348 11.9998 7.0348C11.6582 7.0348 11.3811 7.31187 11.3811 7.65339V7.90451ZM17.0484 19.4837C15.4359 20.6154 13.1447 21.1785 10.9307 20.9521C9.25611 20.7808 7.66736 20.1637 6.45998 19.0425L7.53345 19.229C7.86683 19.2869 8.18404 19.0636 8.24195 18.7302C8.29986 18.3968 8.07655 18.0796 7.74317 18.0217L5.02522 17.5496C4.85428 17.5199 4.67876 17.564 4.54224 17.6711C4.40572 17.7782 4.32101 17.9381 4.30912 18.1112L4.10721 21.052C4.08403 21.3896 4.3389 21.682 4.67648 21.7052C5.01406 21.7284 5.30651 21.4735 5.32969 21.1359L5.42502 19.7475C6.88371 21.2049 8.83044 21.969 10.806 22.1711C13.2811 22.4242 15.8735 21.8053 17.7523 20.4867C19.603 19.1879 21.1581 17.3066 21.8143 14.8605C22.472 12.4085 22.3359 9.66655 20.8628 7.3879C20.679 7.10374 20.2998 7.02231 20.0156 7.20602C19.7314 7.38973 19.65 7.76901 19.8337 8.05318C21.0733 9.9705 21.223 12.3353 20.6308 14.543C20.037 16.7565 18.6282 18.375 17.0484 19.4837Z" fill="#F47322"/>
</svg>
