<svg width="32" height="35" viewBox="0 0 32 35" fill="none" xmlns="http://www.w3.org/2000/svg">
<path d="M15.1465 16.8951C17.3458 16.8951 19.2502 16.1104 20.8063 14.5621C22.3623 13.014 23.1511 11.1199 23.1511 8.93161C23.1511 6.74411 22.3623 4.84973 20.806 3.30117C19.2497 1.75337 17.3456 0.968628 15.1465 0.968628C12.947 0.968628 11.0431 1.75337 9.48705 3.30142C7.93101 4.84947 7.14197 6.74386 7.14197 8.93161C7.14197 11.1199 7.93101 13.0143 9.4873 14.5623C11.0436 16.1101 12.9477 16.8951 15.1465 16.8951Z" fill="#FFCF00"/>
<path d="M29.1523 26.3922C29.1075 25.748 29.0167 25.0452 28.8831 24.3031C28.7482 23.5554 28.5745 22.8486 28.3666 22.2026C28.1518 21.5349 27.8597 20.8755 27.4987 20.2437C27.1239 19.5878 26.6838 19.0167 26.1899 18.5468C25.6734 18.0552 25.041 17.6599 24.3098 17.3716C23.5811 17.0848 22.7735 16.9395 21.9097 16.9395C21.5704 16.9395 21.2424 17.0779 20.6087 17.4884C20.2188 17.7414 19.7626 18.034 19.2535 18.3576C18.8182 18.6336 18.2284 18.8921 17.5 19.1262C16.7893 19.355 16.0677 19.471 15.3554 19.471C14.6432 19.471 13.9219 19.355 13.2104 19.1262C12.4827 18.8924 11.893 18.6338 11.4581 18.3579C10.9538 18.0372 10.4974 17.7446 10.1016 17.4881C9.46877 17.0777 9.14042 16.9392 8.80118 16.9392C7.93708 16.9392 7.12978 17.0848 6.40133 17.3718C5.6706 17.6596 5.03799 18.0549 4.521 18.547C4.02734 19.0172 3.58693 19.5881 3.21269 20.2437C2.85189 20.8755 2.5598 21.5347 2.34479 22.2029C2.13713 22.8489 1.96345 23.5554 1.82856 24.3031C1.69494 25.0442 1.60417 25.7472 1.55929 26.393C1.51517 27.0256 1.49286 27.6822 1.49286 28.3454C1.49286 30.0713 2.04433 31.4685 3.1318 32.4989C4.20584 33.5157 5.62699 34.0316 7.35518 34.0316H23.3572C25.0854 34.0316 26.506 33.516 27.5803 32.4989C28.6681 31.4692 29.2195 30.0718 29.2195 28.3451C29.2193 27.6789 29.1967 27.0218 29.1523 26.3922Z" fill="#FFCF00"/>
</svg>
