<svg width="20" height="20" viewBox="0 0 20 20" fill="none" xmlns="http://www.w3.org/2000/svg">
    <path
        d="M10 15.9167C10.7657 15.9167 11.403 15.3301 11.4675 14.5671L12.4629 2.67841C12.5209 1.98889 12.2871 1.30727 11.819 0.798173C11.3516 0.289732 10.6915 0 10 0C9.30859 0 8.64846 0.289732 8.18096 0.798173C7.71285 1.30727 7.47919 1.98889 7.53714 2.67841L8.53256 14.5671C8.59705 15.3301 9.23438 15.9167 10 15.9167Z"
        fill="#FFCF00" />
    <path
        d="M9.99994 16.7915C9.11383 16.7915 8.39575 17.5095 8.39575 18.3957C8.39575 19.2818 9.11383 19.9998 9.99994 19.9998C10.8861 19.9998 11.6041 19.2818 11.6041 18.3957C11.6041 17.5095 10.8861 16.7915 9.99994 16.7915Z"
        fill="#FFCF00" />
</svg>
